<svg width="206" height="184" viewBox="0 0 206 184" fill="none" xmlns="http://www.w3.org/2000/svg">
<g clip-path="url(#clip0_101_28)">
<path d="M102.512 0C45.8969 0 0 41.12 0 91.8419C0 142.566 45.8969 183.684 102.512 183.684C159.128 183.684 205.025 142.566 205.025 91.8419C205.025 41.12 159.128 0 102.512 0ZM154.449 131.747C87.2616 171.832 27.1826 130.352 15.621 118.249C45.9303 141.947 93.6071 149.309 133.535 132.443C157.196 121.2 169.799 105.97 175.713 85.7327C181.63 63.2476 174.592 41.8855 152.408 27.2683C131.705 13.7764 105.083 9.27977 78.465 16.0247C57.7617 22.7717 41.4923 35.1385 35.5777 53.127C28.1844 72.2408 41.4944 91.3525 63.6763 101.471C85.8582 109.341 116.916 105.968 128.748 87.9811C136.141 75.6122 133.184 59.872 116.916 52.0018C109.523 48.6283 99.551 47.913 94.2031 52.3657C86.8391 58.4979 98.156 53.1208 106.488 56.9795C111.752 59.416 118.2 63.5989 116.916 74.4891C115.302 88.2069 93.2557 94.7281 78.465 90.2294C62.1976 84.6075 54.8023 72.2408 56.283 59.872C59.2403 46.38 72.5503 36.2616 88.8197 32.8881C116.918 27.2662 142.058 41.8834 150.932 62.1224C158.325 81.234 146.496 99.2226 125.79 110.466C108.046 119.462 87.339 121.71 68.1144 116.088C40.0157 108.218 20.7911 89.1063 19.3125 65.4959C17.8317 35.1385 44.4496 12.6533 81.4223 4.78315C122.831 -1.96178 164.24 13.7785 181.985 43.0086C198.253 73.366 189.536 110.813 154.449 131.747Z" fill="#E6B17E"/>
</g>
<defs>
<clipPath id="clip0_101_28">
<rect width="205.025" height="183.684" rx="17" fill="white"/>
</clipPath>
</defs>
</svg>
