<svg width="242" height="247" viewBox="0 0 242 247" fill="none" xmlns="http://www.w3.org/2000/svg">
<g clip-path="url(#clip0_101_26)">
<g clip-path="url(#clip1_101_26)">
<path d="M120.512 0C63.8969 0 18 41.12 18 91.8419C18 142.566 63.8969 183.684 120.512 183.684C177.128 183.684 223.025 142.566 223.025 91.8419C223.025 41.12 177.128 0 120.512 0ZM172.449 131.747C105.262 171.832 45.1826 130.352 33.621 118.249C63.9303 141.947 111.607 149.309 151.535 132.443C175.196 121.2 187.799 105.97 193.713 85.7327C199.63 63.2476 192.592 41.8855 170.408 27.2683C149.705 13.7764 123.083 9.27977 96.465 16.0247C75.7617 22.7717 59.4923 35.1385 53.5777 53.127C46.1844 72.2408 59.4944 91.3525 81.6763 101.471C103.858 109.341 134.916 105.968 146.748 87.9811C154.141 75.6122 151.184 59.872 134.916 52.0018C127.523 48.6283 117.551 47.913 112.203 52.3657C104.839 58.4979 116.156 53.1208 124.488 56.9795C129.752 59.416 136.2 63.5989 134.916 74.4891C133.302 88.2069 111.256 94.7281 96.465 90.2294C80.1976 84.6075 72.8023 72.2408 74.283 59.872C77.2403 46.38 90.5503 36.2616 106.82 32.8881C134.918 27.2662 160.058 41.8834 168.932 62.1224C176.325 81.234 164.496 99.2226 143.79 110.466C126.046 119.462 105.339 121.71 86.1144 116.088C58.0157 108.218 38.7911 89.1063 37.3125 65.4959C35.8317 35.1385 62.4496 12.6533 99.4223 4.78315C140.831 -1.96178 182.24 13.7785 199.985 43.0086C216.253 73.366 207.536 110.813 172.449 131.747Z" fill="#E6B17E"/>
</g>
</g>
<g clip-path="url(#clip2_101_26)">
<g clip-path="url(#clip3_101_26)">
<path d="M239.58 233.445H2.42C1.08347 233.445 0 233.855 0 234.36C0 234.865 1.08347 235.275 2.42 235.275H239.58C240.917 235.275 242 234.865 242 234.36C242 233.855 240.917 233.445 239.58 233.445Z" fill="#50331E"/>
<g clip-path="url(#clip4_101_26)">
<g clip-path="url(#clip5_101_26)">
<path d="M0.610535 230.948V211.342H17.566V216.044H6.90828V218.751H16.0272V223.254H6.90828V226.246H17.7655V230.948H0.610535ZM21.1851 230.948V211.342H27.4828V225.932H37.5421V230.948H21.1851ZM46.775 230.948H40.4772V211.342H46.775V230.948ZM59.5073 211C62.015 211 64.0762 211.507 65.691 212.522C67.3058 213.54 68.1322 215.047 68.1702 217.041V217.383H62.2714V217.269C62.2714 216.699 62.0624 216.224 61.6445 215.844C61.2265 215.464 60.5901 215.274 59.7352 215.274C58.8993 215.274 58.2591 215.398 57.8146 215.645C57.3662 215.892 57.142 216.196 57.142 216.557C57.142 217.07 57.446 217.45 58.0539 217.697C58.6619 217.944 59.6402 218.2 60.9891 218.466C62.5659 218.789 63.8634 219.125 64.8817 219.475C65.8962 219.828 66.7834 220.404 67.5433 221.202C68.3032 222 68.6926 223.083 68.7116 224.45C68.7116 226.768 67.9289 228.487 66.3635 229.608C64.7943 230.729 62.6989 231.29 60.0772 231.29C57.0186 231.29 54.64 230.777 52.9416 229.751C51.2394 228.725 50.3883 226.911 50.3883 224.308H56.3441C56.3441 225.296 56.6006 225.955 57.1135 226.286C57.6265 226.62 58.4244 226.787 59.5073 226.787C60.3052 226.787 60.9663 226.702 61.4906 226.531C62.0111 226.36 62.2714 226.008 62.2714 225.476C62.2714 225.001 61.9827 224.644 61.4051 224.405C60.8238 224.169 59.8777 223.918 58.5669 223.652C56.9711 223.311 55.6507 222.953 54.6058 222.581C53.561 222.212 52.6491 221.601 51.8702 220.746C51.0913 219.891 50.7018 218.732 50.7018 217.269C50.7018 215.123 51.5339 213.54 53.1981 212.522C54.8585 211.507 56.9616 211 59.5073 211ZM91.6514 230.948H84.9832L84.1568 228.183H77.2891L76.4627 230.948H70.0225L77.1751 211.342H84.4987L91.6514 230.948ZM80.6802 216.813L78.6 223.795H82.8459L80.7942 216.813H80.6802ZM98.1771 215.531L96.8093 219.606H94.8715L93.5322 215.531V211.342H98.1771V215.531ZM110.174 211C112.682 211 114.743 211.507 116.358 212.522C117.973 213.54 118.799 215.047 118.837 217.041V217.383H112.938V217.269C112.938 216.699 112.729 216.224 112.311 215.844C111.893 215.464 111.257 215.274 110.402 215.274C109.566 215.274 108.924 215.398 108.476 215.645C108.031 215.892 107.809 216.196 107.809 216.557C107.809 217.07 108.113 217.45 108.721 217.697C109.329 217.944 110.307 218.2 111.656 218.466C113.233 218.789 114.528 219.125 115.543 219.475C116.561 219.828 117.45 220.404 118.21 221.202C118.97 222 119.36 223.083 119.379 224.45C119.379 226.768 118.594 228.487 117.025 229.608C115.459 230.729 113.366 231.29 110.744 231.29C107.685 231.29 105.305 230.777 103.603 229.751C101.904 228.725 101.055 226.911 101.055 224.308H107.011C107.011 225.296 107.268 225.955 107.78 226.286C108.293 226.62 109.091 226.787 110.174 226.787C110.972 226.787 111.631 226.702 112.152 226.531C112.676 226.36 112.938 226.008 112.938 225.476C112.938 225.001 112.648 224.644 112.066 224.405C111.489 224.169 110.545 223.918 109.234 223.652C107.638 223.311 106.318 222.953 105.273 222.581C104.228 222.212 103.316 221.601 102.537 220.746C101.758 219.891 101.369 218.732 101.369 217.269C101.369 215.123 102.199 213.54 103.859 212.522C105.524 211.507 107.628 211 110.174 211ZM141.344 211C144.25 211 146.549 211.726 148.24 213.177C149.931 214.632 150.776 216.709 150.776 219.406H144.763C144.763 218.267 144.465 217.364 143.869 216.699C143.268 216.034 142.417 215.702 141.315 215.702C140.042 215.702 139.108 216.101 138.511 216.899C137.911 217.697 137.611 218.808 137.611 220.233V222.057C137.611 223.463 137.911 224.568 138.511 225.374C139.108 226.183 140.023 226.588 141.258 226.588C142.474 226.588 143.395 226.274 144.022 225.647C144.649 225.02 144.963 224.137 144.963 222.997H150.776C150.776 225.676 149.955 227.727 148.314 229.152C146.669 230.577 144.345 231.29 141.344 231.29C138 231.29 135.47 230.435 133.752 228.725C132.031 227.015 131.17 224.488 131.17 221.145C131.17 217.801 132.031 215.274 133.752 213.565C135.47 211.855 138 211 141.344 211ZM163.913 211C167.295 211 169.907 211.864 171.75 213.593C173.592 215.322 174.514 217.839 174.514 221.145C174.514 224.45 173.592 226.968 171.75 228.696C169.907 230.425 167.295 231.29 163.913 231.29C160.531 231.29 157.923 230.429 156.088 228.708C154.256 226.99 153.341 224.469 153.341 221.145C153.341 217.82 154.256 215.297 156.088 213.576C157.923 211.859 160.531 211 163.913 211ZM163.913 215.702C162.564 215.702 161.538 216.11 160.835 216.927C160.132 217.744 159.781 218.846 159.781 220.233V222.057C159.781 223.444 160.132 224.545 160.835 225.362C161.538 226.179 162.564 226.588 163.913 226.588C165.262 226.588 166.291 226.179 167.002 225.362C167.716 224.545 168.073 223.444 168.073 222.057V220.233C168.073 218.846 167.716 217.744 167.002 216.927C166.291 216.11 165.262 215.702 163.913 215.702ZM197.425 230.948H191.925L183.69 221.43V230.948H177.905V211.342H183.405L191.64 221.002V211.342H197.425V230.948ZM201.637 230.948V211.342H218.592V216.044H207.934V218.751H217.053V223.254H207.934V226.246H218.792V230.948H201.637ZM240.82 217.355C240.82 218.552 240.497 219.634 239.851 220.603C239.205 221.572 238.264 222.285 237.029 222.741L241.389 230.948H234.322L230.846 223.795H228.509V230.948H222.211V211.342H234.208C235.614 211.342 236.817 211.612 237.816 212.151C238.811 212.695 239.562 213.426 240.067 214.345C240.569 215.269 240.82 216.272 240.82 217.355ZM234.408 217.611C234.408 217.098 234.237 216.671 233.895 216.329C233.553 215.987 233.135 215.816 232.641 215.816H228.509V219.435H232.641C233.135 219.435 233.553 219.258 233.895 218.905C234.237 218.555 234.408 218.124 234.408 217.611Z" fill="#50331E"/>
</g>
</g>
<g clip-path="url(#clip6_101_26)">
<g clip-path="url(#clip7_101_26)">
<path d="M61.5596 243.993C61.0862 243.993 60.657 243.87 60.2721 243.623C59.8884 243.374 59.5828 243.025 59.3553 242.575C59.1278 242.125 59.014 241.595 59.014 240.987C59.014 240.491 59.0854 240.051 59.228 239.668C59.3707 239.283 59.5687 238.958 59.822 238.694C60.0765 238.429 60.3711 238.23 60.7055 238.094C61.0413 237.959 61.3997 237.891 61.781 237.891C62.279 237.891 62.7063 237.996 63.063 238.205C63.4196 238.414 63.7129 238.746 63.9428 239.201L63.0759 239.45C62.8914 239.195 62.6885 239.004 62.4672 238.876C62.2458 238.748 62.0029 238.685 61.7385 238.685C61.4163 238.685 61.1187 238.778 60.8457 238.965C60.574 239.151 60.3569 239.415 60.1946 239.758C60.031 240.1 59.9493 240.509 59.9493 240.987C59.9493 241.419 60.0175 241.801 60.154 242.132C60.2917 242.463 60.4854 242.721 60.7351 242.907C60.9859 243.093 61.2823 243.185 61.6242 243.185C61.8935 243.185 62.1364 243.124 62.3528 243.001C62.568 242.878 62.7377 242.696 62.8619 242.455C62.9861 242.214 63.0482 241.915 63.0482 241.558H63.2788C63.2788 242.053 63.2198 242.483 63.1017 242.848C62.9836 243.212 62.7986 243.493 62.5465 243.693C62.2944 243.893 61.9654 243.993 61.5596 243.993ZM63.8967 243.873H63.1866L63.0482 242.527V241.531L61.6371 241.494V240.916H63.8967V243.873ZM66.3999 243.873H65.5237V239.422H66.3999V243.873ZM66.3999 241.89H66.1601C66.1601 241.321 66.2197 240.848 66.339 240.472C66.4571 240.096 66.6231 239.815 66.837 239.631C67.0498 239.446 67.3007 239.354 67.5896 239.354C67.6757 239.354 67.7563 239.36 67.8313 239.373C67.9075 239.385 67.9825 239.401 68.0563 239.422L68.0231 240.295C67.9407 240.273 67.851 240.254 67.7538 240.238C67.6567 240.22 67.5681 240.212 67.4882 240.212C67.2361 240.212 67.0301 240.279 66.8702 240.413C66.7104 240.546 66.5923 240.738 66.5161 240.988C66.4386 241.239 66.3999 241.54 66.3999 241.89ZM72.524 243.873H71.7585L71.6478 242.853V241.005C71.6478 240.642 71.5728 240.378 71.4228 240.214C71.2715 240.049 71.0329 239.967 70.707 239.967C70.5226 239.967 70.359 239.994 70.2164 240.048C70.0737 240.102 69.9612 240.182 69.8788 240.289C69.7976 240.398 69.7571 240.533 69.7571 240.695H68.7886C68.7886 240.369 68.8686 240.105 69.0284 239.902C69.1883 239.699 69.4121 239.551 69.6999 239.457C69.9876 239.364 70.3234 239.317 70.707 239.317C71.0674 239.317 71.384 239.376 71.657 239.494C71.9312 239.612 72.144 239.797 72.2953 240.05C72.4477 240.302 72.524 240.628 72.524 241.027V243.873ZM70.2736 243.993C69.9022 243.993 69.5935 243.928 69.3476 243.798C69.1016 243.666 68.9178 243.495 68.796 243.283C68.6743 243.07 68.6134 242.844 68.6134 242.604C68.6134 242.313 68.6878 242.072 68.8366 241.883C68.9866 241.694 69.1938 241.553 69.4582 241.461C69.7226 241.368 70.027 241.322 70.3713 241.322C70.6074 241.322 70.838 241.344 71.0631 241.387C71.2869 241.43 71.5082 241.487 71.7271 241.558V242.088C71.5488 242.024 71.3508 241.973 71.1331 241.935C70.9167 241.895 70.715 241.876 70.5281 241.876C70.2477 241.876 70.0141 241.931 69.8272 242.042C69.639 242.152 69.5449 242.34 69.5449 242.604C69.5449 242.799 69.6187 242.966 69.7663 243.106C69.9139 243.245 70.1475 243.314 70.4672 243.314C70.7009 243.314 70.9069 243.262 71.0852 243.156C71.2635 243.05 71.4018 242.917 71.5002 242.757C71.5986 242.598 71.6478 242.438 71.6478 242.278H71.8599C71.8599 242.585 71.7978 242.869 71.6736 243.128C71.5482 243.388 71.3674 243.597 71.1313 243.755C70.8952 243.914 70.6093 243.993 70.2736 243.993ZM78.1685 243.873H77.296V241.273C77.296 240.888 77.205 240.596 77.023 240.398C76.8398 240.2 76.5926 240.101 76.2815 240.101C76.0355 240.101 75.8215 240.168 75.6395 240.302C75.4563 240.435 75.3149 240.63 75.2153 240.887C75.1144 241.144 75.064 241.457 75.064 241.826H74.7504C74.7504 241.281 74.8205 240.823 74.9607 240.452C75.1009 240.079 75.3014 239.797 75.5621 239.605C75.824 239.413 76.1376 239.317 76.5028 239.317C76.8594 239.317 77.162 239.397 77.4104 239.557C77.6575 239.717 77.8457 239.944 77.9748 240.238C78.1039 240.532 78.1685 240.877 78.1685 241.273V243.873ZM75.064 243.873H74.1878V239.437H74.9497L75.064 240.396V243.873ZM81.4408 243.993C81.0793 243.993 80.746 243.896 80.4411 243.7C80.1373 243.504 79.8951 243.231 79.7143 242.879C79.5347 242.527 79.445 242.113 79.445 241.636C79.445 241.162 79.5335 240.752 79.7106 240.406C79.8877 240.058 80.1219 239.789 80.4134 239.601C80.7061 239.412 81.0307 239.317 81.3874 239.317C81.7132 239.317 81.9973 239.397 82.2396 239.555C82.4831 239.713 82.6712 239.942 82.804 240.243C82.9381 240.544 83.0051 240.912 83.0051 241.346H82.7007C82.7007 241.078 82.6472 240.851 82.5402 240.666C82.432 240.48 82.2918 240.339 82.1197 240.243C81.9475 240.149 81.763 240.101 81.5663 240.101C81.3363 240.101 81.1279 240.163 80.941 240.287C80.7553 240.412 80.6077 240.589 80.4982 240.819C80.3888 241.047 80.3341 241.32 80.3341 241.636C80.3341 241.956 80.3888 242.234 80.4982 242.47C80.6077 242.705 80.7553 242.885 80.941 243.012C81.1279 243.137 81.3351 243.2 81.5626 243.2C81.7495 243.2 81.9297 243.15 82.1031 243.051C82.2765 242.95 82.4197 242.806 82.5329 242.619C82.6448 242.431 82.7007 242.208 82.7007 241.949H83.0051C83.0051 242.392 82.935 242.766 82.7948 243.071C82.6558 243.375 82.4677 243.605 82.2303 243.761C81.9942 243.916 81.7311 243.993 81.4408 243.993ZM83.5824 243.873H82.8538L82.7007 242.807V237.569H83.5824V243.873ZM92.4071 243.873H91.5272V241.273C91.5272 240.888 91.4356 240.596 91.2523 240.398C91.0691 240.2 90.8238 240.101 90.5163 240.101C90.1474 240.101 89.8627 240.246 89.6623 240.535C89.4606 240.824 89.3598 241.239 89.3598 241.78H88.9761C88.9761 241.352 89.0179 240.983 89.1015 240.673C89.1839 240.362 89.3032 240.107 89.4594 239.907C89.6143 239.707 89.8 239.559 90.0165 239.463C90.2329 239.366 90.4752 239.317 90.7432 239.317C91.0999 239.317 91.4018 239.397 91.6489 239.557C91.8961 239.717 92.0843 239.944 92.2134 240.238C92.3425 240.532 92.4071 240.877 92.4071 241.273V243.873ZM86.2553 243.873H85.3791V239.437H86.1409L86.2368 240.271C86.3783 239.961 86.5732 239.724 86.8216 239.561C87.0688 239.398 87.3596 239.317 87.6941 239.317C88.0507 239.317 88.3532 239.397 88.6016 239.557C88.8488 239.717 89.037 239.944 89.1661 240.238C89.2952 240.532 89.3598 240.877 89.3598 241.273V243.873H88.4873V241.273C88.4873 240.888 88.3963 240.596 88.2143 240.398C88.031 240.2 87.7839 240.101 87.4727 240.101C87.2268 240.101 87.0128 240.168 86.8308 240.302C86.6476 240.435 86.5062 240.63 86.4065 240.887C86.3057 241.144 86.2553 241.457 86.2553 241.826V243.873ZM97.6052 243.873H96.8397L96.729 242.853V241.005C96.729 240.642 96.6534 240.378 96.5021 240.214C96.3521 240.049 96.1141 239.967 95.7883 239.967C95.6038 239.967 95.4396 239.994 95.2957 240.048C95.1531 240.102 95.0412 240.182 94.96 240.289C94.8789 240.398 94.8383 240.533 94.8383 240.695H93.8699C93.8699 240.369 93.9498 240.105 94.1097 239.902C94.2695 239.699 94.4927 239.551 94.7792 239.457C95.067 239.364 95.4033 239.317 95.7883 239.317C96.1473 239.317 96.464 239.376 96.7382 239.494C97.0112 239.612 97.224 239.797 97.3765 240.05C97.529 240.302 97.6052 240.628 97.6052 241.027V243.873ZM95.3548 243.993C94.9822 243.993 94.6729 243.928 94.4269 243.798C94.181 243.666 93.9971 243.495 93.8754 243.283C93.7549 243.07 93.6946 242.844 93.6946 242.604C93.6946 242.313 93.769 242.072 93.9178 241.883C94.0666 241.694 94.2732 241.553 94.5376 241.461C94.802 241.368 95.1064 241.322 95.4507 241.322C95.688 241.322 95.9186 241.344 96.1424 241.387C96.3675 241.43 96.5888 241.487 96.8065 241.558V242.088C96.6282 242.024 96.4308 241.973 96.2144 241.935C95.9979 241.895 95.7956 241.876 95.6075 241.876C95.3283 241.876 95.0947 241.931 94.9065 242.042C94.7196 242.152 94.6261 242.34 94.6261 242.604C94.6261 242.799 94.6999 242.966 94.8475 243.106C94.9951 243.245 95.2287 243.314 95.5485 243.314C95.7821 243.314 95.9881 243.262 96.1664 243.156C96.3447 243.05 96.4831 242.917 96.5814 242.757C96.6798 242.598 96.729 242.438 96.729 242.278H96.9411C96.9411 242.585 96.8784 242.869 96.753 243.128C96.6288 243.388 96.4486 243.597 96.2125 243.755C95.9752 243.914 95.6893 243.993 95.3548 243.993ZM98.7525 239.727L98.6363 237.629H99.5273L99.4074 239.727H98.7525ZM102.313 243.993C101.882 243.993 101.519 243.932 101.224 243.811C100.929 243.689 100.704 243.52 100.547 243.303C100.392 243.087 100.312 242.832 100.306 242.54H101.132C101.144 242.796 101.246 242.985 101.438 243.108C101.63 243.231 101.891 243.292 102.22 243.292C102.395 243.292 102.554 243.265 102.696 243.209C102.84 243.154 102.954 243.078 103.038 242.982C103.122 242.888 103.165 242.78 103.165 242.66C103.165 242.51 103.11 242.391 102.999 242.304C102.888 242.216 102.71 242.138 102.464 242.069L101.556 241.761C101.194 241.638 100.915 241.475 100.721 241.271C100.528 241.065 100.431 240.82 100.431 240.535C100.431 240.168 100.594 239.874 100.92 239.651C101.246 239.429 101.677 239.317 102.215 239.317C102.772 239.317 103.202 239.435 103.504 239.67C103.807 239.904 103.964 240.199 103.976 240.553H103.134C103.111 240.377 103.024 240.243 102.872 240.149C102.72 240.056 102.501 240.009 102.215 240.009C101.948 240.009 101.738 240.067 101.586 240.184C101.433 240.301 101.357 240.433 101.357 240.581C101.357 240.845 101.585 241.042 102.04 241.171L102.995 241.507C103.358 241.624 103.638 241.774 103.834 241.959C104.031 242.143 104.13 242.377 104.13 242.66C104.13 242.887 104.054 243.102 103.903 243.305C103.753 243.508 103.541 243.674 103.268 243.801C102.996 243.929 102.678 243.993 102.313 243.993ZM108.671 243.873H107.795V237.998H111.423V238.755H108.671V240.535H111.217V241.285H108.671V243.873ZM114.111 243.993C113.709 243.993 113.348 243.905 113.03 243.73C112.711 243.555 112.46 243.294 112.275 242.946C112.091 242.599 111.999 242.17 111.999 241.66C111.999 241.14 112.091 240.707 112.275 240.361C112.46 240.016 112.711 239.755 113.03 239.579C113.348 239.405 113.709 239.317 114.111 239.317C114.508 239.317 114.865 239.405 115.181 239.579C115.498 239.755 115.748 240.016 115.931 240.361C116.113 240.707 116.204 241.14 116.204 241.66C116.204 242.17 116.113 242.599 115.931 242.946C115.748 243.294 115.498 243.555 115.181 243.73C114.865 243.905 114.508 243.993 114.111 243.993ZM114.083 243.228C114.339 243.228 114.56 243.166 114.745 243.043C114.931 242.92 115.074 242.741 115.175 242.507C115.275 242.27 115.325 241.988 115.325 241.66C115.325 241.156 115.222 240.765 115.016 240.489C114.812 240.212 114.518 240.074 114.135 240.074C113.877 240.074 113.655 240.136 113.469 240.26C113.282 240.385 113.139 240.565 113.039 240.8C112.939 241.035 112.89 241.322 112.89 241.66C112.89 242.154 112.992 242.539 113.198 242.815C113.404 243.09 113.699 243.228 114.083 243.228ZM118.436 243.873H117.56V239.422H118.436V243.873ZM118.436 241.89H118.197C118.197 241.321 118.256 240.848 118.374 240.472C118.493 240.096 118.659 239.815 118.872 239.631C119.086 239.446 119.337 239.354 119.626 239.354C119.712 239.354 119.793 239.36 119.868 239.373C119.944 239.385 120.019 239.401 120.093 239.422L120.06 240.295C119.977 240.273 119.888 240.254 119.79 240.238C119.693 240.22 119.605 240.212 119.525 240.212C119.273 240.212 119.067 240.279 118.907 240.413C118.747 240.546 118.629 240.738 118.553 240.988C118.475 241.239 118.436 241.54 118.436 241.89ZM122.531 246.161C122.052 246.161 121.639 246.095 121.294 245.963C120.947 245.831 120.68 245.653 120.493 245.432C120.305 245.211 120.211 244.97 120.211 244.709C120.211 244.377 120.333 244.122 120.576 243.945C120.818 243.768 121.127 243.68 121.502 243.68L122.07 243.947C121.751 243.947 121.504 244.012 121.331 244.141C121.156 244.27 121.069 244.445 121.069 244.667C121.069 244.898 121.195 245.088 121.447 245.237C121.699 245.385 122.06 245.46 122.531 245.46C122.872 245.46 123.172 245.41 123.43 245.31C123.688 245.211 123.888 245.08 124.029 244.917C124.171 244.756 124.241 244.584 124.241 244.399C124.241 244.274 124.197 244.167 124.107 244.078C124.016 243.991 123.878 243.947 123.694 243.947H122.07C121.769 243.947 121.504 243.9 121.275 243.807C121.045 243.712 120.866 243.588 120.737 243.434C120.608 243.281 120.543 243.11 120.543 242.923C120.543 242.739 120.595 242.58 120.7 242.446C120.804 242.312 120.943 242.21 121.115 242.141C121.287 242.072 121.476 242.038 121.683 242.038L121.88 242.342C121.792 242.342 121.703 242.361 121.613 242.4C121.524 242.438 121.451 242.495 121.391 242.573C121.334 242.649 121.305 242.745 121.305 242.859C121.305 242.992 121.361 243.102 121.473 243.189C121.585 243.276 121.784 243.32 122.07 243.32H123.694C124.136 243.32 124.484 243.407 124.736 243.582C124.988 243.758 125.114 244.014 125.114 244.349C125.114 244.653 125.009 244.943 124.8 245.22C124.591 245.497 124.294 245.723 123.908 245.899C123.521 246.073 123.063 246.161 122.531 246.161ZM122.627 242.54C122.283 242.54 121.971 242.473 121.69 242.341C121.409 242.206 121.185 242.019 121.019 241.778C120.853 241.536 120.77 241.253 120.77 240.931C120.77 240.605 120.853 240.322 121.019 240.081C121.185 239.839 121.409 239.651 121.69 239.518C121.971 239.384 122.283 239.317 122.627 239.317C122.963 239.317 123.27 239.384 123.548 239.518C123.826 239.651 124.049 239.839 124.217 240.081C124.385 240.322 124.468 240.605 124.468 240.931C124.468 241.253 124.385 241.536 124.217 241.778C124.049 242.019 123.826 242.206 123.548 242.341C123.27 242.473 122.963 242.54 122.627 242.54ZM122.627 241.922C122.945 241.922 123.187 241.828 123.354 241.64C123.521 241.45 123.605 241.214 123.605 240.931C123.605 240.636 123.521 240.398 123.354 240.216C123.187 240.035 122.945 239.944 122.627 239.944C122.317 239.944 122.076 240.035 121.902 240.216C121.728 240.398 121.641 240.636 121.641 240.931C121.641 241.214 121.728 241.45 121.902 241.64C122.076 241.828 122.317 241.922 122.627 241.922ZM124.136 240.027L123.725 239.828C123.725 239.564 123.78 239.333 123.891 239.136C124.002 238.94 124.155 238.786 124.352 238.675C124.549 238.565 124.775 238.509 125.031 238.509L124.976 239.363C124.701 239.363 124.493 239.417 124.35 239.524C124.208 239.632 124.136 239.8 124.136 240.027ZM127.844 243.993C127.441 243.993 127.08 243.905 126.761 243.73C126.444 243.555 126.193 243.294 126.009 242.946C125.824 242.599 125.732 242.17 125.732 241.66C125.732 241.14 125.824 240.707 126.009 240.361C126.193 240.016 126.444 239.755 126.761 239.579C127.08 239.405 127.441 239.317 127.844 239.317C128.24 239.317 128.597 239.405 128.914 239.579C129.23 239.755 129.479 240.016 129.663 240.361C129.846 240.707 129.938 241.14 129.938 241.66C129.938 242.17 129.846 242.599 129.663 242.946C129.479 243.294 129.23 243.555 128.914 243.73C128.597 243.905 128.24 243.993 127.844 243.993ZM127.816 243.228C128.071 243.228 128.291 243.166 128.477 243.043C128.664 242.92 128.807 242.741 128.906 242.507C129.006 242.27 129.056 241.988 129.056 241.66C129.056 241.156 128.954 240.765 128.75 240.489C128.546 240.212 128.251 240.074 127.866 240.074C127.608 240.074 127.386 240.136 127.2 240.26C127.014 240.385 126.871 240.565 126.77 240.8C126.671 241.035 126.621 241.322 126.621 241.66C126.621 242.154 126.724 242.539 126.931 242.815C127.136 243.09 127.431 243.228 127.816 243.228ZM132.717 243.993C132.465 243.993 132.238 243.945 132.035 243.849C131.832 243.755 131.672 243.611 131.553 243.42C131.434 243.227 131.375 242.984 131.375 242.693V238.229H132.247V242.665C132.247 243.083 132.442 243.292 132.832 243.292C132.952 243.292 133.069 243.279 133.182 243.254C133.297 243.227 133.426 243.187 133.57 243.136L133.695 243.757C133.531 243.825 133.371 243.881 133.214 243.927C133.055 243.971 132.89 243.993 132.717 243.993ZM133.56 240.031H130.698V239.437H133.56V240.031ZM136.259 243.993C136.007 243.993 135.779 243.945 135.577 243.849C135.374 243.755 135.213 243.611 135.093 243.42C134.975 243.227 134.916 242.984 134.916 242.693V238.229H135.789V242.665C135.789 243.083 135.984 243.292 136.373 243.292C136.494 243.292 136.611 243.279 136.724 243.254C136.838 243.227 136.967 243.187 137.111 243.136L137.237 243.757C137.073 243.825 136.912 243.881 136.753 243.927C136.596 243.971 136.431 243.993 136.259 243.993ZM137.102 240.031H134.239V239.437H137.102V240.031ZM139.965 243.993C139.584 243.993 139.239 243.895 138.932 243.698C138.624 243.501 138.381 243.228 138.201 242.877C138.022 242.527 137.932 242.121 137.932 241.66C137.932 241.17 138.021 240.752 138.2 240.404C138.378 240.054 138.621 239.786 138.928 239.598C139.236 239.411 139.581 239.317 139.965 239.317C140.309 239.317 140.604 239.387 140.85 239.528C141.096 239.666 141.295 239.854 141.446 240.09C141.596 240.325 141.7 240.591 141.758 240.889C141.814 241.188 141.824 241.495 141.787 241.811H138.633V241.304H141.188L140.976 241.442C140.984 241.276 140.976 241.11 140.95 240.944C140.924 240.778 140.874 240.626 140.801 240.487C140.727 240.347 140.623 240.234 140.489 240.149C140.355 240.064 140.185 240.022 139.98 240.022C139.721 240.022 139.506 240.086 139.332 240.216C139.158 240.345 139.026 240.518 138.937 240.736C138.848 240.952 138.803 241.189 138.803 241.448V241.802C138.803 242.088 138.846 242.342 138.932 242.564C139.018 242.785 139.147 242.96 139.317 243.088C139.488 243.214 139.704 243.278 139.965 243.278C140.221 243.278 140.432 243.218 140.599 243.099C140.767 242.978 140.871 242.798 140.911 242.558H141.806C141.759 242.847 141.653 243.099 141.487 243.314C141.321 243.53 141.108 243.697 140.848 243.816C140.589 243.934 140.294 243.993 139.965 243.993ZM147.155 243.873H146.283V241.273C146.283 240.888 146.191 240.596 146.008 240.398C145.826 240.2 145.579 240.101 145.268 240.101C145.022 240.101 144.808 240.168 144.624 240.302C144.442 240.435 144.301 240.63 144.2 240.887C144.101 241.144 144.051 241.457 144.051 241.826H143.737C143.737 241.281 143.807 240.823 143.947 240.452C144.088 240.079 144.288 239.797 144.549 239.605C144.811 239.413 145.124 239.317 145.49 239.317C145.846 239.317 146.148 239.397 146.395 239.557C146.644 239.717 146.832 239.944 146.96 240.238C147.09 240.532 147.155 240.877 147.155 241.273V243.873ZM144.051 243.873H143.175V239.437H143.936L144.051 240.396V243.873ZM151.946 243.873H151.069V237.998H153.172C153.857 237.998 154.379 238.161 154.737 238.485C155.096 238.809 155.275 239.235 155.275 239.764C155.275 240.286 155.096 240.709 154.737 241.033C154.379 241.355 153.857 241.516 153.172 241.516H151.946V243.873ZM155.45 243.873H154.31L152.684 241.171H153.628L155.45 243.873ZM151.946 238.755V240.916H153.093C153.511 240.916 153.83 240.816 154.049 240.616C154.266 240.414 154.375 240.153 154.375 239.834C154.375 239.504 154.273 239.242 154.069 239.048C153.865 238.852 153.566 238.755 153.172 238.755H151.946ZM158.428 243.993C158.046 243.993 157.702 243.895 157.395 243.698C157.087 243.501 156.844 243.228 156.664 242.877C156.485 242.527 156.395 242.121 156.395 241.66C156.395 241.17 156.484 240.752 156.662 240.404C156.841 240.054 157.084 239.786 157.391 239.598C157.698 239.411 158.044 239.317 158.428 239.317C158.772 239.317 159.067 239.387 159.313 239.528C159.559 239.666 159.758 239.854 159.909 240.09C160.059 240.325 160.162 240.591 160.219 240.889C160.277 241.188 160.287 241.495 160.25 241.811H157.096V241.304H159.651L159.438 241.442C159.447 241.276 159.438 241.11 159.413 240.944C159.387 240.778 159.337 240.626 159.263 240.487C159.189 240.347 159.086 240.234 158.952 240.149C158.817 240.064 158.648 240.022 158.442 240.022C158.184 240.022 157.968 240.086 157.795 240.216C157.62 240.345 157.489 240.518 157.4 240.736C157.31 240.952 157.266 241.189 157.266 241.448V241.802C157.266 242.088 157.309 242.342 157.395 242.564C157.481 242.785 157.609 242.96 157.78 243.088C157.951 243.214 158.167 243.278 158.428 243.278C158.683 243.278 158.895 243.218 159.062 243.099C159.229 242.978 159.333 242.798 159.374 242.558H160.269C160.222 242.847 160.115 243.099 159.949 243.314C159.783 243.53 159.571 243.697 159.311 243.816C159.052 243.934 158.757 243.993 158.428 243.993ZM163.251 243.993C162.889 243.993 162.55 243.896 162.237 243.702C161.923 243.509 161.671 243.237 161.48 242.887C161.29 242.536 161.195 242.124 161.195 241.651C161.195 241.153 161.29 240.731 161.48 240.385C161.671 240.038 161.923 239.774 162.237 239.592C162.55 239.409 162.889 239.317 163.251 239.317C163.518 239.317 163.756 239.36 163.965 239.444C164.174 239.528 164.354 239.642 164.506 239.786C164.656 239.928 164.778 240.089 164.873 240.267C164.966 240.446 165.031 240.63 165.068 240.821L164.177 240.867C164.113 240.635 164.001 240.45 163.84 240.311C163.677 240.171 163.478 240.101 163.242 240.101C163.042 240.101 162.853 240.157 162.678 240.269C162.501 240.381 162.357 240.552 162.248 240.782C162.138 241.011 162.084 241.3 162.084 241.651C162.084 241.977 162.135 242.254 162.237 242.484C162.338 242.716 162.476 242.893 162.652 243.016C162.826 243.139 163.023 243.2 163.242 243.2C163.556 243.2 163.79 243.124 163.945 242.971C164.1 242.819 164.177 242.609 164.177 242.342H165.068C165.068 242.652 164.996 242.932 164.851 243.182C164.707 243.43 164.499 243.627 164.227 243.774C163.954 243.92 163.629 243.993 163.251 243.993ZM166.953 238.491C166.779 238.491 166.641 238.443 166.54 238.347C166.441 238.25 166.391 238.118 166.391 237.952C166.391 237.792 166.441 237.666 166.54 237.572C166.641 237.478 166.779 237.43 166.953 237.43C167.126 237.43 167.261 237.478 167.361 237.572C167.462 237.666 167.512 237.792 167.512 237.952C167.512 238.118 167.462 238.25 167.361 238.347C167.261 238.443 167.126 238.491 166.953 238.491ZM167.392 243.873H166.516V239.422H167.392V243.873ZM171.417 243.993C171.094 243.993 170.814 243.92 170.578 243.774C170.341 243.627 170.16 243.412 170.036 243.128C169.912 242.844 169.849 242.491 169.849 242.069H170.191C170.191 242.313 170.243 242.518 170.348 242.685C170.452 242.853 170.59 242.981 170.761 243.069C170.93 243.156 171.112 243.2 171.307 243.2C171.51 243.2 171.707 243.142 171.899 243.027C172.091 242.911 172.248 242.738 172.371 242.508C172.494 242.277 172.556 241.991 172.556 241.651C172.556 241.325 172.501 241.047 172.393 240.817C172.284 240.586 172.135 240.409 171.947 240.286C171.76 240.163 171.55 240.101 171.316 240.101C171.119 240.101 170.935 240.148 170.763 240.241C170.59 240.335 170.452 240.472 170.348 240.653C170.243 240.832 170.191 241.051 170.191 241.309H169.849C169.849 240.863 169.921 240.492 170.063 240.197C170.206 239.902 170.399 239.682 170.643 239.537C170.885 239.39 171.154 239.317 171.449 239.317C171.797 239.317 172.123 239.41 172.426 239.596C172.731 239.781 172.979 240.048 173.168 240.396C173.356 240.743 173.45 241.161 173.45 241.651C173.45 242.139 173.355 242.558 173.164 242.909C172.974 243.259 172.724 243.528 172.415 243.715C172.107 243.9 171.774 243.993 171.417 243.993ZM170.191 246.05H169.315V239.437H170.038L170.191 240.501V246.05ZM176.398 243.993C176.017 243.993 175.672 243.895 175.365 243.698C175.057 243.501 174.813 243.228 174.633 242.877C174.453 242.527 174.363 242.121 174.363 241.66C174.363 241.17 174.452 240.752 174.631 240.404C174.809 240.054 175.052 239.786 175.359 239.598C175.667 239.411 176.013 239.317 176.398 239.317C176.742 239.317 177.037 239.387 177.283 239.528C177.529 239.666 177.727 239.854 177.877 240.09C178.028 240.325 178.132 240.591 178.189 240.889C178.246 241.188 178.255 241.495 178.218 241.811H175.064V241.304H177.619L177.407 241.442C177.417 241.276 177.408 241.11 177.381 240.944C177.355 240.778 177.305 240.626 177.232 240.487C177.158 240.347 177.054 240.234 176.92 240.149C176.787 240.064 176.617 240.022 176.411 240.022C176.153 240.022 175.937 240.086 175.763 240.216C175.59 240.345 175.458 240.518 175.369 240.736C175.28 240.952 175.236 241.189 175.236 241.448V241.802C175.236 242.088 175.279 242.342 175.365 242.564C175.451 242.785 175.579 242.96 175.749 243.088C175.919 243.214 176.136 243.278 176.398 243.278C176.652 243.278 176.863 243.218 177.031 243.099C177.199 242.978 177.303 242.798 177.342 242.558H178.237C178.191 242.847 178.086 243.099 177.92 243.314C177.754 243.53 177.54 243.697 177.28 243.816C177.02 243.934 176.726 243.993 176.398 243.993ZM181.229 243.993C180.798 243.993 180.436 243.932 180.141 243.811C179.845 243.689 179.62 243.52 179.465 243.303C179.31 243.087 179.23 242.832 179.224 242.54H180.048C180.061 242.796 180.163 242.985 180.356 243.108C180.548 243.231 180.808 243.292 181.137 243.292C181.313 243.292 181.472 243.265 181.614 243.209C181.757 243.154 181.871 243.078 181.956 242.982C182.041 242.888 182.083 242.78 182.083 242.66C182.083 242.51 182.028 242.391 181.917 242.304C181.806 242.216 181.628 242.138 181.382 242.069L180.473 241.761C180.11 241.638 179.832 241.475 179.639 241.271C179.445 241.065 179.347 240.82 179.347 240.535C179.347 240.168 179.51 239.874 179.836 239.651C180.162 239.429 180.594 239.317 181.133 239.317C181.689 239.317 182.119 239.435 182.422 239.67C182.725 239.904 182.882 240.199 182.895 240.553H182.05C182.029 240.377 181.942 240.243 181.79 240.149C181.637 240.056 181.418 240.009 181.133 240.009C180.865 240.009 180.655 240.067 180.504 240.184C180.351 240.301 180.275 240.433 180.275 240.581C180.275 240.845 180.503 241.042 180.958 241.171L181.911 241.507C182.274 241.624 182.554 241.774 182.751 241.959C182.947 242.143 183.046 242.377 183.046 242.66C183.046 242.887 182.971 243.102 182.821 243.305C182.67 243.508 182.458 243.674 182.186 243.801C181.914 243.929 181.595 243.993 181.229 243.993ZM187.587 243.873H186.711V237.998H188.814C189.5 237.998 190.022 238.161 190.38 238.485C190.738 238.809 190.917 239.235 190.917 239.764C190.917 240.286 190.738 240.709 190.38 241.033C190.022 241.355 189.5 241.516 188.814 241.516H187.587V243.873ZM191.092 243.873H189.954L188.325 241.171H189.271L191.092 243.873ZM187.587 238.755V240.916H188.736C189.155 240.916 189.472 240.816 189.69 240.616C189.909 240.414 190.018 240.153 190.018 239.834C190.018 239.504 189.916 239.242 189.712 239.048C189.507 238.852 189.207 238.755 188.814 238.755H187.587ZM194.071 243.993C193.69 243.993 193.346 243.895 193.038 243.698C192.731 243.501 192.487 243.228 192.308 242.877C192.128 242.527 192.038 242.121 192.038 241.66C192.038 241.17 192.127 240.752 192.306 240.404C192.484 240.054 192.727 239.786 193.034 239.598C193.342 239.411 193.687 239.317 194.071 239.317C194.415 239.317 194.711 239.387 194.957 239.528C195.202 239.666 195.401 239.854 195.552 240.09C195.702 240.325 195.806 240.591 195.862 240.889C195.92 241.188 195.93 241.495 195.894 241.811H192.739V241.304H195.294L195.082 241.442C195.091 241.276 195.082 241.11 195.056 240.944C195.03 240.778 194.98 240.626 194.907 240.487C194.833 240.347 194.729 240.234 194.595 240.149C194.461 240.064 194.291 240.022 194.086 240.022C193.828 240.022 193.611 240.086 193.437 240.216C193.263 240.345 193.132 240.518 193.044 240.736C192.954 240.952 192.909 241.189 192.909 241.448V241.802C192.909 242.088 192.952 242.342 193.038 242.564C193.124 242.785 193.253 242.96 193.424 243.088C193.595 243.214 193.81 243.278 194.071 243.278C194.327 243.278 194.538 243.218 194.706 243.099C194.873 242.978 194.977 242.798 195.017 242.558H195.912C195.865 242.847 195.759 243.099 195.593 243.314C195.427 243.53 195.214 243.697 194.955 243.816C194.695 243.934 194.401 243.993 194.071 243.993ZM198.889 243.993C198.526 243.993 198.193 243.896 197.889 243.7C197.584 243.504 197.342 243.231 197.163 242.879C196.983 242.527 196.893 242.113 196.893 241.636C196.893 241.162 196.982 240.752 197.159 240.406C197.335 240.058 197.569 239.789 197.862 239.601C198.153 239.412 198.477 239.317 198.834 239.317C199.16 239.317 199.444 239.397 199.688 239.555C199.93 239.713 200.118 239.942 200.252 240.243C200.386 240.544 200.453 240.912 200.453 241.346H200.149C200.149 241.078 200.095 240.851 199.987 240.666C199.88 240.48 199.74 240.339 199.568 240.243C199.396 240.149 199.211 240.101 199.015 240.101C198.783 240.101 198.575 240.163 198.389 240.287C198.204 240.412 198.056 240.589 197.947 240.819C197.837 241.047 197.782 241.32 197.782 241.636C197.782 241.956 197.837 242.234 197.947 242.47C198.056 242.705 198.204 242.885 198.389 243.012C198.575 243.137 198.782 243.2 199.009 243.2C199.197 243.2 199.378 243.15 199.551 243.051C199.725 242.95 199.868 242.806 199.981 242.619C200.093 242.431 200.149 242.208 200.149 241.949H200.453C200.453 242.392 200.383 242.766 200.243 243.071C200.103 243.375 199.915 243.605 199.679 243.761C199.441 243.916 199.178 243.993 198.889 243.993ZM201.029 243.873H200.3L200.149 242.807V237.569H201.029V243.873ZM203.335 238.491C203.16 238.491 203.022 238.443 202.922 238.347C202.822 238.25 202.772 238.118 202.772 237.952C202.772 237.792 202.822 237.666 202.922 237.572C203.022 237.478 203.16 237.43 203.335 237.43C203.507 237.43 203.643 237.478 203.742 237.572C203.843 237.666 203.894 237.792 203.894 237.952C203.894 238.118 203.843 238.25 203.742 238.347C203.643 238.443 203.507 238.491 203.335 238.491ZM203.774 243.873H202.898V239.422H203.774V243.873ZM207.319 243.993C206.889 243.993 206.526 243.932 206.231 243.811C205.936 243.689 205.711 243.52 205.556 243.303C205.399 243.087 205.318 242.832 205.312 242.54H206.139C206.151 242.796 206.253 242.985 206.445 243.108C206.637 243.231 206.897 243.292 207.227 243.292C207.402 243.292 207.561 243.265 207.705 243.209C207.847 243.154 207.961 243.078 208.046 242.982C208.13 242.888 208.171 242.78 208.171 242.66C208.171 242.51 208.116 242.391 208.005 242.304C207.895 242.216 207.716 242.138 207.47 242.069L206.563 241.761C206.2 241.638 205.922 241.475 205.727 241.271C205.534 241.065 205.438 240.82 205.438 240.535C205.438 240.168 205.601 239.874 205.926 239.651C206.252 239.429 206.684 239.317 207.221 239.317C207.778 239.317 208.208 239.435 208.511 239.67C208.813 239.904 208.971 240.199 208.983 240.553H208.14C208.118 240.377 208.031 240.243 207.88 240.149C207.727 240.056 207.508 240.009 207.221 240.009C206.954 240.009 206.745 240.067 206.592 240.184C206.44 240.301 206.364 240.433 206.364 240.581C206.364 240.845 206.591 241.042 207.046 241.171L208.002 241.507C208.364 241.624 208.644 241.774 208.841 241.959C209.038 242.143 209.136 242.377 209.136 242.66C209.136 242.887 209.06 243.102 208.909 243.305C208.759 243.508 208.548 243.674 208.276 243.801C208.003 243.929 207.684 243.993 207.319 243.993ZM212.165 243.993C211.802 243.993 211.464 243.896 211.15 243.702C210.837 243.509 210.585 243.237 210.394 242.887C210.203 242.536 210.108 242.124 210.108 241.651C210.108 241.153 210.203 240.731 210.394 240.385C210.585 240.038 210.837 239.774 211.15 239.592C211.464 239.409 211.802 239.317 212.165 239.317C212.433 239.317 212.672 239.36 212.881 239.444C213.09 239.528 213.269 239.642 213.419 239.786C213.571 239.928 213.693 240.089 213.786 240.267C213.88 240.446 213.945 240.63 213.982 240.821L213.093 240.867C213.028 240.635 212.914 240.45 212.753 240.311C212.592 240.171 212.393 240.101 212.156 240.101C211.956 240.101 211.768 240.157 211.591 240.269C211.414 240.381 211.271 240.552 211.161 240.782C211.053 241.011 210.999 241.3 210.999 241.651C210.999 241.977 211.05 242.254 211.15 242.484C211.252 242.716 211.391 242.893 211.565 243.016C211.741 243.139 211.938 243.2 212.156 243.2C212.469 243.2 212.704 243.124 212.858 242.971C213.015 242.819 213.093 242.609 213.093 242.342H213.982C213.982 242.652 213.91 242.932 213.766 243.182C213.621 243.43 213.412 243.627 213.141 243.774C212.869 243.92 212.544 243.993 212.165 243.993ZM217.029 243.993C216.627 243.993 216.267 243.905 215.948 243.73C215.63 243.555 215.378 243.294 215.194 242.946C215.009 242.599 214.917 242.17 214.917 241.66C214.917 241.14 215.009 240.707 215.194 240.361C215.378 240.016 215.63 239.755 215.948 239.579C216.267 239.405 216.627 239.317 217.029 239.317C217.426 239.317 217.783 239.405 218.099 239.579C218.416 239.755 218.667 240.016 218.85 240.361C219.032 240.707 219.123 241.14 219.123 241.66C219.123 242.17 219.032 242.599 218.85 242.946C218.667 243.294 218.416 243.555 218.099 243.73C217.783 243.905 217.426 243.993 217.029 243.993ZM217.001 243.228C217.257 243.228 217.478 243.166 217.664 243.043C217.849 242.92 217.993 242.741 218.094 242.507C218.193 242.27 218.243 241.988 218.243 241.66C218.243 241.156 218.141 240.765 217.937 240.489C217.731 240.212 217.437 240.074 217.053 240.074C216.795 240.074 216.573 240.136 216.387 240.26C216.2 240.385 216.057 240.565 215.957 240.8C215.858 241.035 215.808 241.322 215.808 241.66C215.808 242.154 215.911 242.539 216.116 242.815C216.323 243.09 216.618 243.228 217.001 243.228ZM221.443 243.873L219.722 239.437H220.728L221.978 243.121H221.886L223.135 239.437H224.14L222.415 243.873H221.443ZM226.769 243.993C226.387 243.993 226.043 243.895 225.736 243.698C225.428 243.501 225.185 243.228 225.005 242.877C224.824 242.527 224.734 242.121 224.734 241.66C224.734 241.17 224.823 240.752 225.002 240.404C225.18 240.054 225.423 239.786 225.73 239.598C226.038 239.411 226.384 239.317 226.769 239.317C227.113 239.317 227.408 239.387 227.654 239.528C227.9 239.666 228.098 239.854 228.248 240.09C228.399 240.325 228.503 240.591 228.56 240.889C228.616 241.188 228.626 241.495 228.589 241.811H225.435V241.304H227.99L227.778 241.442C227.788 241.276 227.78 241.11 227.754 240.944C227.727 240.778 227.676 240.626 227.602 240.487C227.529 240.347 227.425 240.234 227.293 240.149C227.159 240.064 226.988 240.022 226.782 240.022C226.523 240.022 226.308 240.086 226.134 240.216C225.961 240.345 225.829 240.518 225.739 240.736C225.651 240.952 225.607 241.189 225.607 241.448V241.802C225.607 242.088 225.65 242.342 225.736 242.564C225.822 242.785 225.95 242.96 226.121 243.088C226.291 243.214 226.507 243.278 226.769 243.278C227.023 243.278 227.235 243.218 227.403 243.099C227.571 242.978 227.674 242.798 227.713 242.558H228.608C228.562 242.847 228.457 243.099 228.291 243.314C228.125 243.53 227.912 243.697 227.652 243.816C227.392 243.934 227.097 243.993 226.769 243.993ZM230.855 243.873H229.978V239.422H230.855V243.873ZM230.855 241.89H230.615C230.615 241.321 230.674 240.848 230.792 240.472C230.91 240.096 231.076 239.815 231.29 239.631C231.504 239.446 231.755 239.354 232.044 239.354C232.13 239.354 232.211 239.36 232.286 239.373C232.361 239.385 232.435 239.401 232.509 239.422L232.478 240.295C232.394 240.273 232.304 240.254 232.207 240.238C232.111 240.22 232.023 240.212 231.943 240.212C231.691 240.212 231.485 240.279 231.325 240.413C231.165 240.546 231.046 240.738 230.969 240.988C230.893 241.239 230.855 241.54 230.855 241.89ZM235.022 243.993C234.64 243.993 234.296 243.895 233.989 243.698C233.681 243.501 233.438 243.228 233.258 242.877C233.079 242.527 232.989 242.121 232.989 241.66C232.989 241.17 233.078 240.752 233.256 240.404C233.435 240.054 233.677 239.786 233.985 239.598C234.292 239.411 234.638 239.317 235.022 239.317C235.366 239.317 235.661 239.387 235.907 239.528C236.153 239.666 236.351 239.854 236.503 240.09C236.653 240.325 236.757 240.591 236.814 240.889C236.871 241.188 236.881 241.495 236.844 241.811H233.69V241.304H236.245L236.032 241.442C236.041 241.276 236.032 241.11 236.007 240.944C235.981 240.778 235.931 240.626 235.857 240.487C235.783 240.347 235.679 240.234 235.545 240.149C235.411 240.064 235.242 240.022 235.036 240.022C234.778 240.022 234.562 240.086 234.389 240.216C234.214 240.345 234.083 240.518 233.994 240.736C233.904 240.952 233.859 241.189 233.859 241.448V241.802C233.859 242.088 233.902 242.342 233.989 242.564C234.075 242.785 234.203 242.96 234.374 243.088C234.545 243.214 234.761 243.278 235.022 243.278C235.277 243.278 235.489 243.218 235.656 243.099C235.823 242.978 235.927 242.798 235.968 242.558H236.862C236.816 242.847 236.709 243.099 236.543 243.314C236.377 243.53 236.165 243.697 235.905 243.816C235.646 243.934 235.351 243.993 235.022 243.993ZM239.841 243.993C239.479 243.993 239.145 243.896 238.84 243.7C238.536 243.504 238.294 243.231 238.113 242.879C237.934 242.527 237.844 242.113 237.844 241.636C237.844 241.162 237.932 240.752 238.109 240.406C238.286 240.058 238.521 239.789 238.812 239.601C239.105 239.412 239.43 239.317 239.786 239.317C240.112 239.317 240.396 239.397 240.638 239.555C240.882 239.713 241.07 239.942 241.203 240.243C241.337 240.544 241.404 240.912 241.404 241.346H241.1C241.1 241.078 241.046 240.851 240.939 240.666C240.831 240.48 240.691 240.339 240.518 240.243C240.346 240.149 240.162 240.101 239.965 240.101C239.735 240.101 239.527 240.163 239.34 240.287C239.154 240.412 239.006 240.589 238.897 240.819C238.789 241.047 238.735 241.32 238.735 241.636C238.735 241.956 238.789 242.234 238.897 242.47C239.006 242.705 239.154 242.885 239.34 243.012C239.527 243.137 239.734 243.2 239.961 243.2C240.148 243.2 240.328 243.15 240.502 243.051C240.676 242.95 240.82 242.806 240.932 242.619C241.044 242.431 241.1 242.208 241.1 241.949H241.404C241.404 242.392 241.334 242.766 241.194 243.071C241.055 243.375 240.866 243.605 240.629 243.761C240.393 243.916 240.13 243.993 239.841 243.993ZM241.981 243.873H241.253L241.1 242.807V237.569H241.981V243.873Z" fill="#E6B17E"/>
</g>
</g>
</g>
</g>
<defs>
<clipPath id="clip0_101_26">
<rect width="205.025" height="183.684" fill="white" transform="translate(18)"/>
</clipPath>
<clipPath id="clip1_101_26">
<rect width="205.025" height="183.684" fill="white" transform="translate(18)"/>
</clipPath>
<clipPath id="clip2_101_26">
<rect width="242" height="35.1607" fill="white" transform="translate(0 211)"/>
</clipPath>
<clipPath id="clip3_101_26">
<rect width="242" height="35.1607" fill="white" transform="translate(0 211)"/>
</clipPath>
<clipPath id="clip4_101_26">
<rect width="240.796" height="20.2896" fill="white" transform="translate(0.60199 211)"/>
</clipPath>
<clipPath id="clip5_101_26">
<rect width="240.796" height="20.2896" fill="white" transform="translate(0.60199 211)"/>
</clipPath>
<clipPath id="clip6_101_26">
<rect width="183.005" height="8.73056" fill="white" transform="translate(58.9951 237.43)"/>
</clipPath>
<clipPath id="clip7_101_26">
<rect width="183.005" height="8.73056" fill="white" transform="translate(58.9951 237.43)"/>
</clipPath>
</defs>
</svg>
