<svg width="268" height="268" viewBox="0 0 268 268" fill="none" xmlns="http://www.w3.org/2000/svg">
<rect width="268" height="268" rx="22" fill="#99592A"/>
<g clip-path="url(#clip0_101_32)">
<g clip-path="url(#clip1_101_32)">
<path d="M133.512 42C76.8969 42 31 83.12 31 133.842C31 184.566 76.8969 225.684 133.512 225.684C190.128 225.684 236.025 184.566 236.025 133.842C236.025 83.12 190.128 42 133.512 42ZM185.449 173.747C118.262 213.832 58.1826 172.352 46.621 160.249C76.9303 183.947 124.607 191.309 164.535 174.443C188.196 163.2 200.799 147.97 206.713 127.733C212.63 105.248 205.592 83.8855 183.408 69.2683C162.705 55.7764 136.083 51.2798 109.465 58.0247C88.7617 64.7717 72.4923 77.1385 66.5777 95.127C59.1844 114.241 72.4944 133.352 94.6763 143.471C116.858 151.341 147.916 147.968 159.748 129.981C167.141 117.612 164.184 101.872 147.916 94.0018C140.523 90.6283 130.551 89.913 125.203 94.3657C117.839 100.498 129.156 95.1208 137.488 98.9795C142.752 101.416 149.2 105.599 147.916 116.489C146.302 130.207 124.256 136.728 109.465 132.229C93.1976 126.608 85.8023 114.241 87.283 101.872C90.2403 88.38 103.55 78.2616 119.82 74.8881C147.918 69.2662 173.058 83.8834 181.932 104.122C189.325 123.234 177.496 141.223 156.79 152.466C139.046 161.462 118.339 163.71 99.1144 158.088C71.0157 150.218 51.7911 131.106 50.3125 107.496C48.8317 77.1385 75.4496 54.6533 112.422 46.7831C153.831 40.0382 195.24 55.7785 212.985 85.0086C229.253 115.366 220.536 152.813 185.449 173.747Z" fill="#E6B17E"/>
</g>
</g>
<defs>
<clipPath id="clip0_101_32">
<rect width="205.025" height="183.684" fill="white" transform="translate(31 42)"/>
</clipPath>
<clipPath id="clip1_101_32">
<rect width="205.025" height="183.684" fill="white" transform="translate(31 42)"/>
</clipPath>
</defs>
</svg>
