<svg width="483" height="270" viewBox="0 0 483 270" fill="none" xmlns="http://www.w3.org/2000/svg">
<g clip-path="url(#clip0_101_26)">
<g clip-path="url(#clip1_101_26)">
<path d="M241.512 0C184.897 0 139 41.12 139 91.8419C139 142.566 184.897 183.684 241.512 183.684C298.128 183.684 344.025 142.566 344.025 91.8419C344.025 41.12 298.128 0 241.512 0ZM293.449 131.747C226.262 171.832 166.183 130.352 154.621 118.249C184.93 141.947 232.607 149.309 272.535 132.443C296.196 121.2 308.799 105.97 314.713 85.7327C320.63 63.2476 313.592 41.8855 291.408 27.2683C270.705 13.7764 244.083 9.27977 217.465 16.0247C196.762 22.7717 180.492 35.1385 174.578 53.127C167.184 72.2408 180.494 91.3525 202.676 101.471C224.858 109.341 255.916 105.968 267.748 87.9811C275.141 75.6122 272.184 59.872 255.916 52.0018C248.523 48.6283 238.551 47.913 233.203 52.3657C225.839 58.4979 237.156 53.1208 245.488 56.9795C250.752 59.416 257.2 63.5989 255.916 74.4891C254.302 88.2069 232.256 94.7281 217.465 90.2294C201.198 84.6075 193.802 72.2408 195.283 59.872C198.24 46.38 211.55 36.2616 227.82 32.8881C255.918 27.2662 281.058 41.8834 289.932 62.1224C297.325 81.234 285.496 99.2226 264.79 110.466C247.046 119.462 226.339 121.71 207.114 116.088C179.016 108.218 159.791 89.1063 158.312 65.4959C156.832 35.1385 183.45 12.6533 220.422 4.78315C261.831 -1.96178 303.24 13.7785 320.985 43.0086C337.253 73.366 328.536 110.813 293.449 131.747Z" fill="#E6B17E"/>
</g>
</g>
<g clip-path="url(#clip2_101_26)">
<g clip-path="url(#clip3_101_26)">
<path d="M478.072 243.788H4.82901C2.16202 243.788 0 244.605 0 245.614C0 246.622 2.16202 247.439 4.82901 247.439H478.072C480.739 247.439 482.901 246.622 482.901 245.614C482.901 244.605 480.739 243.788 478.072 243.788Z" fill="#50331E"/>
<g clip-path="url(#clip4_101_26)">
<g clip-path="url(#clip5_101_26)">
<path d="M1.21838 238.805V199.682H35.0523V209.065H13.7853V214.467H31.9817V223.451H13.7853V229.422H35.4504V238.805H1.21838ZM42.274 238.805V199.682H54.8409V228.797H74.9138V238.805H42.274ZM93.3377 238.805H80.7708V199.682H93.3377V238.805ZM118.744 199C123.748 199 127.862 200.012 131.084 202.037C134.306 204.068 135.955 207.075 136.031 211.055V211.737H124.26V211.51C124.26 210.373 123.843 209.425 123.009 208.667C122.175 207.909 120.905 207.53 119.199 207.53C117.531 207.53 116.254 207.776 115.367 208.269C114.472 208.762 114.025 209.368 114.025 210.088C114.025 211.112 114.631 211.87 115.844 212.363C117.057 212.856 119.01 213.368 121.701 213.898C124.848 214.543 127.437 215.214 129.469 215.911C131.493 216.616 133.264 217.765 134.78 219.357C136.296 220.949 137.074 223.11 137.111 225.84C137.111 230.465 135.55 233.895 132.426 236.132C129.295 238.369 125.113 239.487 119.882 239.487C113.778 239.487 109.032 238.463 105.643 236.416C102.246 234.369 100.548 230.749 100.548 225.555H112.433C112.433 227.527 112.944 228.842 113.968 229.502C114.991 230.169 116.584 230.503 118.744 230.503C120.337 230.503 121.656 230.332 122.702 229.991C123.741 229.65 124.26 228.948 124.26 227.887C124.26 226.939 123.684 226.226 122.532 225.749C121.372 225.279 119.484 224.778 116.868 224.248C113.684 223.565 111.049 222.852 108.964 222.109C106.879 221.374 105.059 220.153 103.505 218.447C101.951 216.742 101.174 214.429 101.174 211.51C101.174 207.226 102.834 204.068 106.155 202.037C109.468 200.012 113.665 199 118.744 199ZM182.887 238.805H169.581L167.932 233.289H154.227L152.578 238.805H139.727L154 199.682H168.614L182.887 238.805ZM160.994 210.6L156.843 224.532H165.316L161.222 210.6H160.994ZM195.909 208.041L193.179 216.173H189.312L186.64 208.041V199.682H195.909V208.041ZM219.848 199C224.852 199 228.965 200.012 232.188 202.037C235.41 204.068 237.059 207.075 237.135 211.055V211.737H225.364V211.51C225.364 210.373 224.947 209.425 224.113 208.667C223.279 207.909 222.009 207.53 220.303 207.53C218.635 207.53 217.354 207.776 216.459 208.269C215.572 208.762 215.129 209.368 215.129 210.088C215.129 211.112 215.735 211.87 216.948 212.363C218.161 212.856 220.114 213.368 222.805 213.898C225.952 214.543 228.537 215.214 230.561 215.911C232.593 216.616 234.367 217.765 235.884 219.357C237.4 220.949 238.177 223.11 238.215 225.84C238.215 230.465 236.65 233.895 233.518 236.132C230.395 238.369 226.217 239.487 220.986 239.487C214.882 239.487 210.132 238.463 206.735 236.416C203.346 234.369 201.652 230.749 201.652 225.555H213.536C213.536 227.527 214.048 228.842 215.072 229.502C216.095 230.169 217.687 230.503 219.848 230.503C221.44 230.503 222.756 230.332 223.795 229.991C224.841 229.65 225.364 228.948 225.364 227.887C225.364 226.939 224.784 226.226 223.624 225.749C222.472 225.279 220.587 224.778 217.972 224.248C214.787 223.565 212.153 222.852 210.068 222.109C207.983 221.374 206.163 220.153 204.609 218.447C203.054 216.742 202.277 214.429 202.277 211.51C202.277 207.226 203.934 204.068 207.247 202.037C210.568 200.012 214.768 199 219.848 199ZM282.046 199C287.846 199 292.433 200.448 295.807 203.344C299.181 206.248 300.868 210.392 300.868 215.775H288.87C288.87 213.5 288.274 211.7 287.084 210.373C285.886 209.046 284.188 208.383 281.989 208.383C279.449 208.383 277.584 209.179 276.394 210.771C275.196 212.363 274.597 214.581 274.597 217.424V221.063C274.597 223.868 275.196 226.075 276.394 227.682C277.584 229.297 279.411 230.104 281.875 230.104C284.301 230.104 286.14 229.479 287.391 228.228C288.642 226.977 289.268 225.214 289.268 222.94H300.868C300.868 228.285 299.23 232.379 295.955 235.222C292.672 238.065 288.036 239.487 282.046 239.487C275.374 239.487 270.324 237.781 266.897 234.369C263.463 230.957 261.745 225.916 261.745 219.244C261.745 212.571 263.463 207.53 266.897 204.118C270.324 200.706 275.374 199 282.046 199ZM327.082 199C333.83 199 339.042 200.725 342.719 204.175C346.397 207.624 348.235 212.647 348.235 219.244C348.235 225.84 346.397 230.863 342.719 234.312C339.042 237.762 333.83 239.487 327.082 239.487C320.334 239.487 315.129 237.77 311.467 234.335C307.813 230.908 305.985 225.878 305.985 219.244C305.985 212.609 307.813 207.575 311.467 204.14C315.129 200.713 320.334 199 327.082 199ZM327.082 208.383C324.39 208.383 322.343 209.198 320.941 210.828C319.538 212.458 318.837 214.656 318.837 217.424V221.063C318.837 223.831 319.538 226.029 320.941 227.659C322.343 229.289 324.39 230.104 327.082 230.104C329.774 230.104 331.828 229.289 333.246 227.659C334.671 226.029 335.384 223.831 335.384 221.063V217.424C335.384 214.656 334.671 212.458 333.246 210.828C331.828 209.198 329.774 208.383 327.082 208.383ZM393.954 238.805H382.979L366.545 219.812V238.805H355.002V199.682H365.977L382.41 218.959V199.682H393.954V238.805ZM402.358 238.805V199.682H436.192V209.065H414.925V214.467H433.122V223.451H414.925V229.422H436.59V238.805H402.358ZM480.546 211.681C480.546 214.069 479.901 216.23 478.613 218.163C477.324 220.096 475.447 221.518 472.983 222.428L481.683 238.805H467.581L460.644 224.532H455.981V238.805H443.414V199.682H467.354C470.159 199.682 472.558 200.221 474.552 201.297C476.539 202.382 478.036 203.841 479.045 205.676C480.046 207.518 480.546 209.52 480.546 211.681ZM467.752 212.192C467.752 211.169 467.41 210.316 466.728 209.634C466.046 208.951 465.212 208.61 464.226 208.61H455.981V215.832H464.226C465.212 215.832 466.046 215.479 466.728 214.774C467.41 214.076 467.752 213.216 467.752 212.192Z" fill="#50331E"/>
</g>
</g>
<g clip-path="url(#clip6_101_26)">
<g clip-path="url(#clip7_101_26)">
<path d="M122.84 264.837C121.895 264.837 121.038 264.59 120.27 264.097C119.505 263.601 118.895 262.904 118.441 262.006C117.987 261.108 117.76 260.052 117.76 258.837C117.76 257.848 117.902 256.971 118.187 256.205C118.472 255.437 118.867 254.789 119.372 254.262C119.88 253.734 120.468 253.335 121.135 253.065C121.805 252.796 122.521 252.661 123.281 252.661C124.275 252.661 125.128 252.869 125.839 253.286C126.551 253.703 127.136 254.366 127.595 255.274L125.865 255.771C125.497 255.263 125.092 254.881 124.651 254.626C124.209 254.371 123.724 254.243 123.197 254.243C122.554 254.243 121.96 254.43 121.415 254.803C120.873 255.173 120.44 255.701 120.116 256.386C119.789 257.068 119.626 257.885 119.626 258.837C119.626 259.701 119.762 260.463 120.035 261.123C120.31 261.783 120.696 262.298 121.194 262.669C121.695 263.039 122.286 263.225 122.968 263.225C123.506 263.225 123.99 263.102 124.422 262.857C124.852 262.611 125.19 262.248 125.438 261.767C125.686 261.286 125.81 260.69 125.81 259.978H126.27C126.27 260.965 126.152 261.822 125.917 262.551C125.681 263.277 125.312 263.839 124.809 264.237C124.306 264.637 123.649 264.837 122.84 264.837ZM127.503 264.598H126.086L125.81 261.911V259.923L122.994 259.849V258.697H127.503V264.598ZM132.498 264.598H130.75V255.716H132.498V264.598ZM132.498 260.641H132.02C132.02 259.505 132.139 258.561 132.377 257.81C132.612 257.059 132.943 256.5 133.37 256.132C133.795 255.764 134.296 255.579 134.872 255.579C135.044 255.579 135.205 255.592 135.354 255.616C135.507 255.641 135.656 255.674 135.803 255.716L135.737 257.457C135.573 257.413 135.394 257.375 135.2 257.343C135.006 257.308 134.829 257.291 134.67 257.291C134.167 257.291 133.756 257.425 133.437 257.692C133.118 257.957 132.882 258.34 132.73 258.841C132.575 259.341 132.498 259.941 132.498 260.641ZM144.719 264.598H143.191L142.97 262.562V258.874C142.97 258.15 142.82 257.624 142.521 257.295C142.219 256.966 141.743 256.802 141.093 256.802C140.725 256.802 140.398 256.856 140.114 256.963C139.829 257.071 139.605 257.232 139.44 257.446C139.278 257.662 139.197 257.932 139.197 258.255H137.265C137.265 257.605 137.424 257.078 137.743 256.673C138.062 256.268 138.509 255.972 139.083 255.786C139.657 255.599 140.327 255.506 141.093 255.506C141.812 255.506 142.444 255.624 142.989 255.859C143.536 256.095 143.96 256.464 144.262 256.967C144.566 257.47 144.719 258.121 144.719 258.918V264.598ZM140.228 264.837C139.487 264.837 138.871 264.707 138.38 264.447C137.889 264.184 137.522 263.842 137.28 263.42C137.037 262.995 136.915 262.544 136.915 262.065C136.915 261.484 137.064 261.004 137.36 260.626C137.66 260.248 138.073 259.967 138.601 259.783C139.129 259.599 139.736 259.507 140.423 259.507C140.894 259.507 141.354 259.55 141.803 259.636C142.25 259.722 142.692 259.836 143.128 259.978V261.035C142.773 260.907 142.377 260.805 141.943 260.729C141.511 260.65 141.109 260.611 140.736 260.611C140.176 260.611 139.71 260.722 139.337 260.942C138.962 261.163 138.774 261.538 138.774 262.065C138.774 262.453 138.921 262.787 139.216 263.066C139.51 263.344 139.976 263.482 140.614 263.482C141.081 263.482 141.492 263.377 141.847 263.166C142.203 262.955 142.479 262.69 142.676 262.371C142.872 262.052 142.97 261.733 142.97 261.414H143.393C143.393 262.027 143.269 262.593 143.022 263.111C142.771 263.628 142.411 264.045 141.939 264.362C141.468 264.679 140.898 264.837 140.228 264.837ZM155.982 264.598H154.241V259.408C154.241 258.64 154.059 258.058 153.696 257.663C153.33 257.268 152.837 257.07 152.216 257.07C151.726 257.07 151.299 257.204 150.935 257.471C150.57 257.736 150.288 258.125 150.089 258.638C149.888 259.151 149.787 259.776 149.787 260.512H149.161C149.161 259.425 149.301 258.511 149.581 257.77C149.861 257.026 150.261 256.463 150.781 256.08C151.304 255.697 151.929 255.506 152.658 255.506C153.37 255.506 153.973 255.665 154.469 255.984C154.962 256.303 155.338 256.756 155.595 257.343C155.853 257.929 155.982 258.617 155.982 259.408V264.598ZM149.787 264.598H148.039V255.745H149.559L149.787 257.659V264.598ZM162.512 264.837C161.79 264.837 161.125 264.642 160.517 264.252C159.911 263.861 159.427 263.315 159.066 262.614C158.708 261.912 158.529 261.085 158.529 260.133C158.529 259.188 158.706 258.37 159.059 257.678C159.412 256.983 159.88 256.448 160.462 256.073C161.046 255.695 161.693 255.506 162.405 255.506C163.055 255.506 163.622 255.664 164.106 255.981C164.591 256.295 164.967 256.752 165.232 257.354C165.499 257.955 165.633 258.689 165.633 259.555H165.026C165.026 259.02 164.919 258.567 164.706 258.197C164.49 257.826 164.21 257.545 163.866 257.354C163.523 257.165 163.155 257.07 162.762 257.07C162.303 257.07 161.887 257.194 161.514 257.442C161.144 257.69 160.849 258.043 160.631 258.502C160.412 258.959 160.303 259.502 160.303 260.133C160.303 260.771 160.412 261.325 160.631 261.796C160.849 262.265 161.144 262.626 161.514 262.879C161.887 263.129 162.301 263.254 162.755 263.254C163.128 263.254 163.487 263.155 163.833 262.956C164.179 262.755 164.465 262.468 164.691 262.095C164.914 261.719 165.026 261.274 165.026 260.758H165.633C165.633 261.642 165.493 262.388 165.214 262.996C164.936 263.603 164.561 264.061 164.087 264.373C163.616 264.682 163.091 264.837 162.512 264.837ZM166.785 264.598H165.331L165.026 262.47V252.016H166.785V264.598ZM184.394 264.598H182.639V259.408C182.639 258.64 182.456 258.058 182.09 257.663C181.725 257.268 181.235 257.07 180.622 257.07C179.885 257.07 179.317 257.359 178.917 257.935C178.515 258.512 178.314 259.34 178.314 260.42H177.548C177.548 259.566 177.631 258.83 177.798 258.211C177.963 257.59 178.201 257.081 178.512 256.684C178.822 256.284 179.192 255.988 179.624 255.797C180.056 255.603 180.539 255.506 181.074 255.506C181.786 255.506 182.388 255.665 182.882 255.984C183.375 256.303 183.75 256.756 184.008 257.343C184.266 257.929 184.394 258.617 184.394 259.408V264.598ZM172.119 264.598H170.37V255.745H171.891L172.082 257.409C172.364 256.79 172.753 256.318 173.249 255.992C173.742 255.668 174.322 255.506 174.99 255.506C175.701 255.506 176.305 255.665 176.801 255.984C177.294 256.303 177.67 256.756 177.927 257.343C178.185 257.929 178.314 258.617 178.314 259.408V264.598H176.573V259.408C176.573 258.64 176.391 258.058 176.028 257.663C175.662 257.268 175.169 257.07 174.548 257.07C174.057 257.07 173.63 257.204 173.267 257.471C172.902 257.736 172.619 258.125 172.421 258.638C172.219 259.151 172.119 259.776 172.119 260.512V264.598ZM194.767 264.598H193.24L193.019 262.562V258.874C193.019 258.15 192.868 257.624 192.566 257.295C192.267 256.966 191.792 256.802 191.141 256.802C190.773 256.802 190.446 256.856 190.159 256.963C189.874 257.071 189.651 257.232 189.489 257.446C189.327 257.662 189.246 257.932 189.246 258.255H187.313C187.313 257.605 187.473 257.078 187.792 256.673C188.111 256.268 188.556 255.972 189.128 255.786C189.702 255.599 190.373 255.506 191.141 255.506C191.858 255.506 192.49 255.624 193.037 255.859C193.582 256.095 194.006 256.464 194.311 256.967C194.615 257.47 194.767 258.121 194.767 258.918V264.598ZM190.276 264.837C189.533 264.837 188.916 264.707 188.425 264.447C187.934 264.184 187.567 263.842 187.324 263.42C187.084 262.995 186.964 262.544 186.964 262.065C186.964 261.484 187.112 261.004 187.409 260.626C187.706 260.248 188.118 259.967 188.646 259.783C189.173 259.599 189.781 259.507 190.468 259.507C190.941 259.507 191.402 259.55 191.848 259.636C192.297 259.722 192.739 259.836 193.173 259.978V261.035C192.817 260.907 192.424 260.805 191.992 260.729C191.56 260.65 191.156 260.611 190.781 260.611C190.224 260.611 189.757 260.722 189.382 260.942C189.009 261.163 188.822 261.538 188.822 262.065C188.822 262.453 188.97 262.787 189.264 263.066C189.559 263.344 190.025 263.482 190.663 263.482C191.129 263.482 191.54 263.377 191.896 263.166C192.252 262.955 192.528 262.69 192.724 262.371C192.921 262.052 193.019 261.733 193.019 261.414H193.442C193.442 262.027 193.317 262.593 193.067 263.111C192.819 263.628 192.459 264.045 191.988 264.362C191.514 264.679 190.944 264.837 190.276 264.837ZM197.057 256.323L196.825 252.138H198.603L198.363 256.323H197.057ZM204.161 264.837C203.302 264.837 202.578 264.715 201.989 264.472C201.4 264.229 200.95 263.892 200.638 263.46C200.329 263.028 200.168 262.52 200.156 261.936H201.805C201.829 262.447 202.033 262.825 202.416 263.07C202.799 263.315 203.319 263.438 203.977 263.438C204.325 263.438 204.642 263.383 204.926 263.272C205.213 263.162 205.44 263.011 205.607 262.82C205.777 262.631 205.861 262.416 205.861 262.176C205.861 261.876 205.751 261.639 205.53 261.465C205.309 261.291 204.953 261.135 204.462 260.998L202.651 260.383C201.928 260.138 201.372 259.811 200.984 259.404C200.599 258.994 200.406 258.505 200.406 257.935C200.406 257.204 200.731 256.616 201.382 256.172C202.032 255.728 202.893 255.506 203.966 255.506C205.077 255.506 205.935 255.74 206.538 256.209C207.142 256.678 207.456 257.265 207.481 257.972H205.799C205.754 257.621 205.58 257.352 205.276 257.166C204.974 256.979 204.537 256.886 203.966 256.886C203.433 256.886 203.015 257.003 202.71 257.236C202.406 257.469 202.254 257.733 202.254 258.027C202.254 258.555 202.708 258.947 203.616 259.205L205.523 259.875C206.246 260.108 206.805 260.409 207.197 260.777C207.59 261.145 207.786 261.611 207.786 262.176C207.786 262.63 207.635 263.059 207.334 263.464C207.034 263.869 206.612 264.199 206.067 264.454C205.525 264.709 204.889 264.837 204.161 264.837ZM216.849 264.598H215.1V252.874H222.34V254.383H216.849V257.935H221.928V259.433H216.849V264.598ZM227.703 264.837C226.901 264.837 226.182 264.661 225.546 264.31C224.911 263.962 224.409 263.441 224.041 262.746C223.673 262.054 223.489 261.199 223.489 260.181C223.489 259.143 223.673 258.279 224.041 257.589C224.409 256.9 224.911 256.379 225.546 256.029C226.182 255.68 226.901 255.506 227.703 255.506C228.496 255.506 229.208 255.68 229.838 256.029C230.471 256.379 230.971 256.9 231.336 257.589C231.7 258.279 231.881 259.143 231.881 260.181C231.881 261.199 231.7 262.054 231.336 262.746C230.971 263.441 230.471 263.962 229.838 264.31C229.208 264.661 228.496 264.837 227.703 264.837ZM227.648 263.309C228.159 263.309 228.599 263.187 228.97 262.941C229.34 262.696 229.626 262.339 229.827 261.87C230.026 261.399 230.125 260.836 230.125 260.181C230.125 259.174 229.92 258.395 229.511 257.843C229.103 257.291 228.517 257.015 227.751 257.015C227.236 257.015 226.793 257.139 226.422 257.387C226.049 257.637 225.764 257.997 225.565 258.465C225.366 258.934 225.267 259.506 225.267 260.181C225.267 261.167 225.472 261.935 225.881 262.485C226.294 263.034 226.883 263.309 227.648 263.309ZM236.335 264.598H234.587V255.716H236.335V264.598ZM236.335 260.641H235.856C235.856 259.505 235.974 258.561 236.21 257.81C236.448 257.059 236.779 256.5 237.204 256.132C237.631 255.764 238.132 255.579 238.709 255.579C238.881 255.579 239.042 255.592 239.191 255.616C239.343 255.641 239.493 255.674 239.64 255.716L239.574 257.457C239.41 257.413 239.231 257.375 239.037 257.343C238.843 257.308 238.666 257.291 238.507 257.291C238.004 257.291 237.593 257.425 237.274 257.692C236.955 257.957 236.719 258.34 236.567 258.841C236.412 259.341 236.335 259.941 236.335 260.641ZM244.506 269.162C243.549 269.162 242.726 269.031 242.037 268.768C241.345 268.503 240.812 268.15 240.439 267.708C240.064 267.266 239.876 266.785 239.876 266.265C239.876 265.602 240.119 265.094 240.605 264.741C241.088 264.388 241.704 264.211 242.453 264.211L243.586 264.745C242.948 264.745 242.456 264.874 242.11 265.131C241.762 265.389 241.588 265.739 241.588 266.18C241.588 266.642 241.839 267.021 242.342 267.318C242.845 267.615 243.567 267.763 244.506 267.763C245.186 267.763 245.784 267.664 246.299 267.465C246.814 267.266 247.213 267.005 247.495 266.681C247.777 266.359 247.919 266.015 247.919 265.647C247.919 265.396 247.829 265.183 247.65 265.006C247.468 264.832 247.193 264.745 246.825 264.745H243.586C242.985 264.745 242.456 264.652 242 264.465C241.541 264.276 241.183 264.028 240.925 263.722C240.667 263.415 240.538 263.075 240.538 262.702C240.538 262.334 240.643 262.016 240.851 261.749C241.06 261.481 241.336 261.279 241.68 261.141C242.023 261.004 242.401 260.935 242.813 260.935L243.207 261.542C243.03 261.542 242.853 261.581 242.673 261.657C242.497 261.733 242.349 261.848 242.232 262.003C242.116 262.155 242.059 262.345 242.059 262.573C242.059 262.838 242.17 263.058 242.394 263.232C242.617 263.406 243.014 263.493 243.586 263.493H246.825C247.709 263.493 248.402 263.668 248.905 264.016C249.408 264.367 249.66 264.877 249.66 265.547C249.66 266.153 249.451 266.732 249.034 267.285C248.617 267.837 248.023 268.288 247.252 268.639C246.482 268.988 245.567 269.162 244.506 269.162ZM244.698 261.936C244.011 261.936 243.387 261.804 242.828 261.539C242.266 261.271 241.819 260.897 241.488 260.416C241.157 259.933 240.991 259.37 240.991 258.727C240.991 258.076 241.157 257.511 241.488 257.03C241.819 256.546 242.266 256.172 242.828 255.907C243.387 255.64 244.011 255.506 244.698 255.506C245.368 255.506 245.98 255.64 246.535 255.907C247.089 256.172 247.535 256.546 247.871 257.03C248.204 257.511 248.371 258.076 248.371 258.727C248.371 259.37 248.204 259.933 247.871 260.416C247.535 260.897 247.089 261.271 246.535 261.539C245.98 261.804 245.368 261.936 244.698 261.936ZM244.698 260.703C245.331 260.703 245.814 260.516 246.148 260.14C246.482 259.762 246.649 259.291 246.649 258.727C246.649 258.138 246.482 257.662 246.148 257.298C245.814 256.938 245.331 256.757 244.698 256.757C244.079 256.757 243.597 256.938 243.251 257.298C242.903 257.662 242.729 258.138 242.729 258.727C242.729 259.291 242.903 259.762 243.251 260.14C243.597 260.516 244.079 260.703 244.698 260.703ZM247.709 256.923L246.888 256.525C246.888 255.998 246.998 255.538 247.219 255.145C247.44 254.753 247.747 254.446 248.139 254.225C248.532 254.004 248.984 253.894 249.494 253.894L249.384 255.598C248.836 255.598 248.42 255.705 248.136 255.918C247.851 256.134 247.709 256.469 247.709 256.923ZM255.107 264.837C254.302 264.837 253.582 264.661 252.947 264.31C252.314 263.962 251.813 263.441 251.445 262.746C251.077 262.054 250.893 261.199 250.893 260.181C250.893 259.143 251.077 258.279 251.445 257.589C251.813 256.9 252.314 256.379 252.947 256.029C253.582 255.68 254.302 255.506 255.107 255.506C255.897 255.506 256.609 255.68 257.242 256.029C257.873 256.379 258.371 256.9 258.737 257.589C259.102 258.279 259.285 259.143 259.285 260.181C259.285 261.199 259.102 262.054 258.737 262.746C258.371 263.441 257.873 263.962 257.242 264.31C256.609 264.661 255.897 264.837 255.107 264.837ZM255.052 263.309C255.56 263.309 255.999 263.187 256.37 262.941C256.743 262.696 257.029 262.339 257.227 261.87C257.426 261.399 257.526 260.836 257.526 260.181C257.526 259.174 257.322 258.395 256.915 257.843C256.507 257.291 255.92 257.015 255.151 257.015C254.636 257.015 254.193 257.139 253.823 257.387C253.452 257.637 253.166 257.997 252.965 258.465C252.766 258.934 252.667 259.506 252.667 260.181C252.667 261.167 252.873 261.935 253.285 262.485C253.695 263.034 254.284 263.309 255.052 263.309ZM264.832 264.837C264.329 264.837 263.875 264.741 263.47 264.55C263.065 264.361 262.745 264.075 262.509 263.692C262.271 263.307 262.152 262.823 262.152 262.242V253.334H263.893V262.187C263.893 263.021 264.282 263.438 265.06 263.438C265.301 263.438 265.534 263.412 265.76 263.361C265.988 263.307 266.246 263.228 266.533 263.125L266.783 264.366C266.457 264.501 266.136 264.614 265.822 264.704C265.506 264.793 265.176 264.837 264.832 264.837ZM266.514 256.93H260.802V255.745H266.514V256.93ZM271.899 264.837C271.396 264.837 270.942 264.741 270.537 264.55C270.133 264.361 269.811 264.075 269.573 263.692C269.337 263.307 269.22 262.823 269.22 262.242V253.334H270.961V262.187C270.961 263.021 271.35 263.438 272.128 263.438C272.368 263.438 272.601 263.412 272.827 263.361C273.055 263.307 273.313 263.228 273.6 263.125L273.85 264.366C273.524 264.501 273.202 264.614 272.886 264.704C272.572 264.793 272.243 264.837 271.899 264.837ZM273.581 256.93H267.869V255.745H273.581V256.93ZM279.294 264.837C278.533 264.837 277.846 264.641 277.233 264.248C276.619 263.855 276.134 263.309 275.775 262.61C275.417 261.911 275.238 261.101 275.238 260.181C275.238 259.204 275.416 258.368 275.772 257.674C276.127 256.977 276.612 256.441 277.226 256.065C277.839 255.692 278.529 255.506 279.294 255.506C279.981 255.506 280.57 255.646 281.061 255.925C281.552 256.203 281.948 256.577 282.25 257.048C282.549 257.517 282.757 258.048 282.872 258.642C282.985 259.238 283.004 259.852 282.931 260.482H276.637V259.47H281.735L281.311 259.746C281.328 259.415 281.311 259.084 281.26 258.752C281.208 258.421 281.109 258.117 280.962 257.84C280.814 257.56 280.607 257.335 280.34 257.166C280.072 256.997 279.733 256.912 279.324 256.912C278.808 256.912 278.378 257.041 278.032 257.298C277.683 257.556 277.421 257.902 277.244 258.336C277.065 258.768 276.975 259.242 276.975 259.757V260.464C276.975 261.036 277.061 261.542 277.233 261.984C277.405 262.426 277.661 262.774 278.002 263.03C278.343 263.282 278.774 263.409 279.294 263.409C279.805 263.409 280.227 263.29 280.56 263.052C280.894 262.811 281.101 262.452 281.182 261.973H282.968C282.874 262.55 282.662 263.053 282.331 263.482C282 263.912 281.575 264.245 281.057 264.483C280.54 264.719 279.952 264.837 279.294 264.837ZM293.642 264.598H291.901V259.408C291.901 258.64 291.718 258.058 291.353 257.663C290.989 257.268 290.497 257.07 289.877 257.07C289.386 257.07 288.958 257.204 288.592 257.471C288.229 257.736 287.947 258.125 287.745 258.638C287.547 259.151 287.447 259.776 287.447 260.512H286.822C286.822 259.425 286.961 258.511 287.241 257.77C287.521 257.026 287.921 256.463 288.441 256.08C288.964 255.697 289.59 255.506 290.318 255.506C291.03 255.506 291.632 255.665 292.126 255.984C292.621 256.303 292.997 256.756 293.252 257.343C293.512 257.929 293.642 258.617 293.642 259.408V264.598ZM287.447 264.598H285.699V255.745H287.219L287.447 257.659V264.598ZM303.201 264.598H301.453V252.874H305.649C307.016 252.874 308.056 253.198 308.77 253.846C309.487 254.491 309.845 255.341 309.845 256.397C309.845 257.44 309.487 258.284 308.77 258.929C308.056 259.572 307.016 259.893 305.649 259.893H303.201V264.598ZM310.195 264.598H307.92L304.674 259.205H306.558L310.195 264.598ZM303.201 254.383V258.697H305.491C306.325 258.697 306.961 258.497 307.397 258.097C307.832 257.695 308.049 257.175 308.049 256.537C308.049 255.879 307.845 255.356 307.438 254.968C307.031 254.578 306.434 254.383 305.649 254.383H303.201ZM316.136 264.837C315.375 264.837 314.688 264.641 314.075 264.248C313.461 263.855 312.975 263.309 312.617 262.61C312.259 261.911 312.08 261.101 312.08 260.181C312.08 259.204 312.257 258.368 312.613 257.674C312.969 256.977 313.454 256.441 314.067 256.065C314.681 255.692 315.37 255.506 316.136 255.506C316.823 255.506 317.412 255.646 317.903 255.925C318.393 256.203 318.79 256.577 319.092 257.048C319.391 257.517 319.597 258.048 319.71 258.642C319.825 259.238 319.846 259.852 319.773 260.482H313.478V259.47H318.576L318.153 259.746C318.17 259.415 318.153 259.084 318.101 258.752C318.05 258.421 317.951 258.117 317.803 257.84C317.656 257.56 317.449 257.335 317.181 257.166C316.914 256.997 316.575 256.912 316.165 256.912C315.65 256.912 315.219 257.041 314.873 257.298C314.525 257.556 314.262 257.902 314.086 258.336C313.906 258.768 313.817 259.242 313.817 259.757V260.464C313.817 261.036 313.903 261.542 314.075 261.984C314.246 262.426 314.503 262.774 314.844 263.03C315.185 263.282 315.616 263.409 316.136 263.409C316.646 263.409 317.068 263.29 317.402 263.052C317.736 262.811 317.943 262.452 318.024 261.973H319.809C319.716 262.55 319.504 263.053 319.173 263.482C318.841 263.912 318.417 264.245 317.899 264.483C317.381 264.719 316.793 264.837 316.136 264.837ZM325.761 264.837C325.037 264.837 324.363 264.643 323.737 264.255C323.111 263.87 322.608 263.328 322.228 262.628C321.847 261.929 321.657 261.107 321.657 260.162C321.657 259.168 321.847 258.327 322.228 257.637C322.608 256.945 323.111 256.417 323.737 256.054C324.363 255.689 325.037 255.506 325.761 255.506C326.294 255.506 326.769 255.591 327.186 255.76C327.603 255.927 327.962 256.154 328.264 256.441C328.564 256.725 328.808 257.046 328.997 257.402C329.183 257.757 329.313 258.125 329.387 258.506L327.609 258.598C327.481 258.136 327.257 257.767 326.935 257.49C326.612 257.21 326.214 257.07 325.743 257.07C325.343 257.07 324.967 257.182 324.617 257.405C324.263 257.628 323.977 257.97 323.759 258.428C323.54 258.885 323.431 259.463 323.431 260.162C323.431 260.812 323.533 261.367 323.737 261.826C323.938 262.287 324.214 262.641 324.565 262.886C324.913 263.131 325.306 263.254 325.743 263.254C326.369 263.254 326.836 263.102 327.145 262.798C327.454 262.493 327.609 262.075 327.609 261.542H329.387C329.387 262.161 329.242 262.719 328.953 263.217C328.665 263.713 328.251 264.107 327.708 264.399C327.164 264.691 326.515 264.837 325.761 264.837ZM333.149 253.857C332.8 253.857 332.525 253.761 332.324 253.57C332.125 253.376 332.026 253.113 332.026 252.782C332.026 252.463 332.125 252.21 332.324 252.024C332.525 251.835 332.8 251.74 333.149 251.74C333.492 251.74 333.763 251.835 333.962 252.024C334.163 252.21 334.264 252.463 334.264 252.782C334.264 253.113 334.163 253.376 333.962 253.57C333.763 253.761 333.492 253.857 333.149 253.857ZM334.025 264.598H332.276V255.716H334.025V264.598ZM342.056 264.837C341.411 264.837 340.853 264.691 340.382 264.399C339.908 264.107 339.547 263.677 339.299 263.111C339.052 262.544 338.928 261.839 338.928 260.998H339.609C339.609 261.484 339.713 261.893 339.922 262.227C340.13 262.561 340.405 262.816 340.746 262.993C341.085 263.167 341.448 263.254 341.836 263.254C342.24 263.254 342.634 263.139 343.017 262.908C343.4 262.677 343.714 262.333 343.959 261.874C344.205 261.412 344.328 260.842 344.328 260.162C344.328 259.512 344.22 258.957 344.004 258.498C343.785 258.037 343.488 257.684 343.113 257.438C342.74 257.193 342.32 257.07 341.854 257.07C341.461 257.07 341.093 257.163 340.75 257.35C340.406 257.536 340.13 257.81 339.922 258.171C339.713 258.529 339.609 258.966 339.609 259.481H338.928C338.928 258.59 339.07 257.851 339.355 257.262C339.639 256.673 340.025 256.233 340.51 255.944C340.994 255.652 341.53 255.506 342.119 255.506C342.813 255.506 343.464 255.691 344.07 256.062C344.678 256.432 345.172 256.965 345.55 257.659C345.925 258.351 346.113 259.185 346.113 260.162C346.113 261.136 345.923 261.973 345.542 262.672C345.162 263.372 344.664 263.908 344.048 264.281C343.432 264.652 342.768 264.837 342.056 264.837ZM339.609 268.941H337.86V255.745H339.303L339.609 257.869V268.941ZM351.995 264.837C351.234 264.837 350.547 264.641 349.933 264.248C349.32 263.855 348.833 263.309 348.472 262.61C348.114 261.911 347.935 261.101 347.935 260.181C347.935 259.204 348.113 258.368 348.468 257.674C348.824 256.977 349.309 256.441 349.922 256.065C350.536 255.692 351.227 255.506 351.995 255.506C352.682 255.506 353.271 255.646 353.762 255.925C354.252 256.203 354.647 256.577 354.947 257.048C355.249 257.517 355.456 258.048 355.569 258.642C355.682 259.238 355.701 259.852 355.628 260.482H349.333V259.47H354.431L354.008 259.746C354.028 259.415 354.011 259.084 353.957 258.752C353.905 258.421 353.806 258.117 353.658 257.84C353.511 257.56 353.304 257.335 353.036 257.166C352.771 256.997 352.433 256.912 352.02 256.912C351.505 256.912 351.075 257.041 350.729 257.298C350.383 257.556 350.12 257.902 349.941 258.336C349.764 258.768 349.676 259.242 349.676 259.757V260.464C349.676 261.036 349.762 261.542 349.933 261.984C350.105 262.426 350.36 262.774 350.699 263.03C351.04 263.282 351.472 263.409 351.995 263.409C352.503 263.409 352.924 263.29 353.257 263.052C353.593 262.811 353.801 262.452 353.879 261.973H355.665C355.574 262.55 355.363 263.053 355.031 263.482C354.7 263.912 354.274 264.245 353.754 264.483C353.236 264.719 352.65 264.837 351.995 264.837ZM361.635 264.837C360.776 264.837 360.052 264.715 359.463 264.472C358.874 264.229 358.425 263.892 358.116 263.46C357.807 263.028 357.646 262.52 357.634 261.936H359.279C359.304 262.447 359.509 262.825 359.894 263.07C360.277 263.315 360.796 263.438 361.451 263.438C361.802 263.438 362.12 263.383 362.404 263.272C362.689 263.162 362.916 263.011 363.085 262.82C363.254 262.631 363.339 262.416 363.339 262.176C363.339 261.876 363.229 261.639 363.008 261.465C362.787 261.291 362.431 261.135 361.94 260.998L360.126 260.383C359.402 260.138 358.847 259.811 358.462 259.404C358.074 258.994 357.88 258.505 357.88 257.935C357.88 257.204 358.206 256.616 358.856 256.172C359.506 255.728 360.369 255.506 361.443 255.506C362.553 255.506 363.41 255.74 364.016 256.209C364.62 256.678 364.934 257.265 364.959 257.972H363.273C363.231 257.621 363.058 257.352 362.754 257.166C362.45 256.979 362.013 256.886 361.443 256.886C360.909 256.886 360.49 257.003 360.188 257.236C359.884 257.469 359.732 257.733 359.732 258.027C359.732 258.555 360.186 258.947 361.094 259.205L362.997 259.875C363.721 260.108 364.279 260.409 364.672 260.777C365.064 261.145 365.261 261.611 365.261 262.176C365.261 262.63 365.111 263.059 364.811 263.464C364.51 263.869 364.088 264.199 363.545 264.454C363.003 264.709 362.366 264.837 361.635 264.837ZM374.323 264.598H372.574V252.874H376.771C378.14 252.874 379.181 253.198 379.896 253.846C380.61 254.491 380.967 255.341 380.967 256.397C380.967 257.44 380.61 258.284 379.896 258.929C379.181 259.572 378.14 259.893 376.771 259.893H374.323V264.598ZM381.316 264.598H379.045L375.795 259.205H377.683L381.316 264.598ZM374.323 254.383V258.697H376.616C377.45 258.697 378.085 258.497 378.519 258.097C378.956 257.695 379.174 257.175 379.174 256.537C379.174 255.879 378.97 255.356 378.563 254.968C378.153 254.578 377.556 254.383 376.771 254.383H374.323ZM387.261 264.837C386.5 264.837 385.813 264.641 385.2 264.248C384.586 263.855 384.1 263.309 383.742 262.61C383.384 261.911 383.205 261.101 383.205 260.181C383.205 259.204 383.383 258.368 383.738 257.674C384.094 256.977 384.579 256.441 385.192 256.065C385.806 255.692 386.495 255.506 387.261 255.506C387.948 255.506 388.537 255.646 389.028 255.925C389.519 256.203 389.915 256.577 390.217 257.048C390.516 257.517 390.722 258.048 390.835 258.642C390.95 259.238 390.971 259.852 390.898 260.482H384.603V259.47H389.701L389.278 259.746C389.295 259.415 389.278 259.084 389.227 258.752C389.175 258.421 389.076 258.117 388.928 257.84C388.781 257.56 388.574 257.335 388.306 257.166C388.039 256.997 387.7 256.912 387.29 256.912C386.775 256.912 386.343 257.041 385.995 257.298C385.649 257.556 385.387 257.902 385.211 258.336C385.032 258.768 384.942 259.242 384.942 259.757V260.464C384.942 261.036 385.028 261.542 385.2 261.984C385.371 262.426 385.628 262.774 385.969 263.03C386.31 263.282 386.741 263.409 387.261 263.409C387.771 263.409 388.193 263.29 388.527 263.052C388.861 262.811 389.068 262.452 389.149 261.973H390.934C390.841 262.55 390.629 263.053 390.298 263.482C389.966 263.912 389.542 264.245 389.024 264.483C388.506 264.719 387.919 264.837 387.261 264.837ZM396.875 264.837C396.151 264.837 395.486 264.642 394.88 264.252C394.272 263.861 393.788 263.315 393.43 262.614C393.072 261.912 392.893 261.085 392.893 260.133C392.893 259.188 393.069 258.37 393.423 257.678C393.774 256.983 394.241 256.448 394.825 256.073C395.407 255.695 396.053 255.506 396.765 255.506C397.415 255.506 397.983 255.664 398.469 255.981C398.953 256.295 399.328 256.752 399.595 257.354C399.863 257.955 399.997 258.689 399.997 259.555H399.389C399.389 259.02 399.281 258.567 399.065 258.197C398.852 257.826 398.573 257.545 398.23 257.354C397.886 257.165 397.518 257.07 397.126 257.07C396.664 257.07 396.248 257.194 395.878 257.442C395.507 257.69 395.213 258.043 394.994 258.502C394.776 258.959 394.667 259.502 394.667 260.133C394.667 260.771 394.776 261.325 394.994 261.796C395.213 262.265 395.507 262.626 395.878 262.879C396.248 263.129 396.661 263.254 397.115 263.254C397.49 263.254 397.851 263.155 398.197 262.956C398.543 262.755 398.829 262.468 399.054 262.095C399.278 261.719 399.389 261.274 399.389 260.758H399.997C399.997 261.642 399.857 262.388 399.577 262.996C399.297 263.603 398.922 264.061 398.451 264.373C397.977 264.682 397.452 264.837 396.875 264.837ZM401.145 264.598H399.691L399.389 262.47V252.016H401.145V264.598ZM405.746 253.857C405.398 253.857 405.123 253.761 404.922 253.57C404.723 253.376 404.624 253.113 404.624 252.782C404.624 252.463 404.723 252.21 404.922 252.024C405.123 251.835 405.398 251.74 405.746 251.74C406.09 251.74 406.361 251.835 406.56 252.024C406.761 252.21 406.862 252.463 406.862 252.782C406.862 253.113 406.761 253.376 406.56 253.57C406.361 253.761 406.09 253.857 405.746 253.857ZM406.622 264.598H404.874V255.716H406.622V264.598ZM413.697 264.837C412.838 264.837 412.114 264.715 411.525 264.472C410.936 264.229 410.487 263.892 410.178 263.46C409.866 263.028 409.704 262.52 409.692 261.936H411.341C411.366 262.447 411.569 262.825 411.952 263.07C412.335 263.315 412.855 263.438 413.513 263.438C413.861 263.438 414.179 263.383 414.466 263.272C414.751 263.162 414.978 263.011 415.147 262.82C415.314 262.631 415.397 262.416 415.397 262.176C415.397 261.876 415.287 261.639 415.066 261.465C414.845 261.291 414.489 261.135 413.999 260.998L412.188 260.383C411.464 260.138 410.908 259.811 410.52 259.404C410.135 258.994 409.942 258.505 409.942 257.935C409.942 257.204 410.268 256.616 410.918 256.172C411.568 255.728 412.429 255.506 413.502 255.506C414.613 255.506 415.471 255.74 416.075 256.209C416.678 256.678 416.992 257.265 417.017 257.972H415.335C415.291 257.621 415.118 257.352 414.816 257.166C414.512 256.979 414.074 256.886 413.502 256.886C412.969 256.886 412.551 257.003 412.247 257.236C411.942 257.469 411.79 257.733 411.79 258.027C411.79 258.555 412.244 258.947 413.152 259.205L415.059 259.875C415.783 260.108 416.341 260.409 416.734 260.777C417.126 261.145 417.322 261.611 417.322 262.176C417.322 262.63 417.172 263.059 416.87 263.464C416.57 263.869 416.15 264.199 415.607 264.454C415.062 264.709 414.426 264.837 413.697 264.837ZM423.366 264.837C422.643 264.837 421.968 264.643 421.342 264.255C420.716 263.87 420.213 263.328 419.833 262.628C419.452 261.929 419.262 261.107 419.262 260.162C419.262 259.168 419.452 258.327 419.833 257.637C420.213 256.945 420.716 256.417 421.342 256.054C421.968 255.689 422.643 255.506 423.366 255.506C423.901 255.506 424.377 255.591 424.795 255.76C425.212 255.927 425.57 256.154 425.869 256.441C426.171 256.725 426.415 257.046 426.602 257.402C426.788 257.757 426.918 258.125 426.992 258.506L425.218 258.598C425.088 258.136 424.862 257.767 424.541 257.49C424.219 257.21 423.822 257.07 423.348 257.07C422.951 257.07 422.575 257.182 422.222 257.405C421.868 257.628 421.582 257.97 421.364 258.428C421.148 258.885 421.04 259.463 421.04 260.162C421.04 260.812 421.141 261.367 421.342 261.826C421.546 262.287 421.822 262.641 422.17 262.886C422.521 263.131 422.914 263.254 423.348 263.254C423.974 263.254 424.441 263.102 424.75 262.798C425.062 262.493 425.218 262.075 425.218 261.542H426.992C426.992 262.161 426.849 262.719 426.561 263.217C426.272 263.713 425.856 264.107 425.314 264.399C424.771 264.691 424.122 264.837 423.366 264.837ZM433.073 264.837C432.27 264.837 431.551 264.661 430.916 264.31C430.28 263.962 429.778 263.441 429.41 262.746C429.042 262.054 428.858 261.199 428.858 260.181C428.858 259.143 429.042 258.279 429.41 257.589C429.778 256.9 430.28 256.379 430.916 256.029C431.551 255.68 432.27 255.506 433.073 255.506C433.865 255.506 434.577 255.68 435.208 256.029C435.841 256.379 436.34 256.9 436.706 257.589C437.069 258.279 437.251 259.143 437.251 260.181C437.251 261.199 437.069 262.054 436.706 262.746C436.34 263.441 435.841 263.962 435.208 264.31C434.577 264.661 433.865 264.837 433.073 264.837ZM433.018 263.309C433.528 263.309 433.969 263.187 434.339 262.941C434.71 262.696 434.995 262.339 435.197 261.87C435.395 261.399 435.495 260.836 435.495 260.181C435.495 259.174 435.291 258.395 434.884 257.843C434.474 257.291 433.886 257.015 433.121 257.015C432.605 257.015 432.162 257.139 431.792 257.387C431.419 257.637 431.133 257.997 430.934 258.465C430.736 258.934 430.636 259.506 430.636 260.181C430.636 261.167 430.841 261.935 431.251 262.485C431.663 263.034 432.252 263.309 433.018 263.309ZM441.881 264.598L438.447 255.745H440.453L442.949 263.096H442.765L445.256 255.745H447.263L443.821 264.598H441.881ZM452.508 264.837C451.747 264.837 451.06 264.641 450.446 264.248C449.833 263.855 449.347 263.309 448.989 262.61C448.628 261.911 448.448 261.101 448.448 260.181C448.448 259.204 448.626 258.368 448.982 257.674C449.337 256.977 449.822 256.441 450.435 256.065C451.049 255.692 451.74 255.506 452.508 255.506C453.195 255.506 453.784 255.646 454.275 255.925C454.765 256.203 455.16 256.577 455.46 257.048C455.762 257.517 455.969 258.048 456.082 258.642C456.195 259.238 456.214 259.852 456.141 260.482H449.847V259.47H454.945L454.521 259.746C454.541 259.415 454.525 259.084 454.473 258.752C454.419 258.421 454.319 258.117 454.172 257.84C454.024 257.56 453.818 257.335 453.553 257.166C453.286 256.997 452.946 256.912 452.534 256.912C452.018 256.912 451.588 257.041 451.242 257.298C450.896 257.556 450.633 257.902 450.454 258.336C450.277 258.768 450.189 259.242 450.189 259.757V260.464C450.189 261.036 450.275 261.542 450.446 261.984C450.618 262.426 450.875 262.774 451.216 263.03C451.554 263.282 451.985 263.409 452.508 263.409C453.016 263.409 453.438 263.29 453.774 263.052C454.108 262.811 454.314 262.452 454.392 261.973H456.178C456.087 262.55 455.876 263.053 455.544 263.482C455.213 263.912 454.789 264.245 454.271 264.483C453.751 264.719 453.163 264.837 452.508 264.837ZM460.661 264.598H458.912V255.716H460.661V264.598ZM460.661 260.641H460.182C460.182 259.505 460.3 258.561 460.536 257.81C460.771 257.059 461.103 256.5 461.53 256.132C461.957 255.764 462.458 255.579 463.035 255.579C463.207 255.579 463.368 255.592 463.517 255.616C463.667 255.641 463.815 255.674 463.963 255.716L463.9 257.457C463.733 257.413 463.553 257.375 463.359 257.343C463.168 257.308 462.992 257.291 462.833 257.291C462.33 257.291 461.918 257.425 461.599 257.692C461.28 257.957 461.044 258.34 460.889 258.841C460.737 259.341 460.661 259.941 460.661 260.641ZM468.976 264.837C468.215 264.837 467.528 264.641 466.915 264.248C466.301 263.855 465.815 263.309 465.457 262.61C465.099 261.911 464.92 261.101 464.92 260.181C464.92 259.204 465.098 258.368 465.453 257.674C465.809 256.977 466.294 256.441 466.907 256.065C467.521 255.692 468.21 255.506 468.976 255.506C469.663 255.506 470.252 255.646 470.743 255.925C471.233 256.203 471.63 256.577 471.932 257.048C472.231 257.517 472.438 258.048 472.554 258.642C472.667 259.238 472.686 259.852 472.613 260.482H466.318V259.47H471.416L470.993 259.746C471.01 259.415 470.993 259.084 470.941 258.752C470.89 258.421 470.791 258.117 470.643 257.84C470.496 257.56 470.289 257.335 470.021 257.166C469.754 256.997 469.415 256.912 469.005 256.912C468.49 256.912 468.059 257.041 467.713 257.298C467.365 257.556 467.102 257.902 466.926 258.336C466.747 258.768 466.657 259.242 466.657 259.757V260.464C466.657 261.036 466.743 261.542 466.915 261.984C467.086 262.426 467.343 262.774 467.684 263.03C468.025 263.282 468.456 263.409 468.976 263.409C469.486 263.409 469.908 263.29 470.242 263.052C470.576 262.811 470.783 262.452 470.864 261.973H472.649C472.556 262.55 472.344 263.053 472.013 263.482C471.681 263.912 471.257 264.245 470.739 264.483C470.221 264.719 469.634 264.837 468.976 264.837ZM478.594 264.837C477.87 264.837 477.204 264.642 476.595 264.252C475.989 263.861 475.506 263.315 475.145 262.614C474.787 261.912 474.608 261.085 474.608 260.133C474.608 259.188 474.784 258.37 475.138 257.678C475.491 256.983 475.958 256.448 476.54 256.073C477.124 255.695 477.772 255.506 478.484 255.506C479.134 255.506 479.701 255.664 480.184 255.981C480.67 256.295 481.045 256.752 481.31 257.354C481.578 257.955 481.712 258.689 481.712 259.555H481.104C481.104 259.02 480.998 258.567 480.784 258.197C480.568 257.826 480.288 257.545 479.945 257.354C479.601 257.165 479.233 257.07 478.841 257.07C478.382 257.07 477.966 257.194 477.593 257.442C477.222 257.69 476.928 258.043 476.709 258.502C476.493 258.959 476.385 259.502 476.385 260.133C476.385 260.771 476.493 261.325 476.709 261.796C476.928 262.265 477.222 262.626 477.593 262.879C477.966 263.129 478.379 263.254 478.833 263.254C479.206 263.254 479.566 263.155 479.912 262.956C480.26 262.755 480.546 262.468 480.769 262.095C480.993 261.719 481.104 261.274 481.104 260.758H481.712C481.712 261.642 481.572 262.388 481.292 262.996C481.015 263.603 480.639 264.061 480.166 264.373C479.695 264.682 479.171 264.837 478.594 264.837ZM482.864 264.598H481.41L481.104 262.47V252.016H482.864V264.598Z" fill="#E6B17E"/>
</g>
</g>
</g>
</g>
<defs>
<clipPath id="clip0_101_26">
<rect width="205.025" height="183.684" fill="white" transform="translate(139)"/>
</clipPath>
<clipPath id="clip1_101_26">
<rect width="205.025" height="183.684" fill="white" transform="translate(139)"/>
</clipPath>
<clipPath id="clip2_101_26">
<rect width="482.901" height="70.1619" fill="white" transform="translate(0 199)"/>
</clipPath>
<clipPath id="clip3_101_26">
<rect width="482.901" height="70.1619" fill="white" transform="translate(0 199)"/>
</clipPath>
<clipPath id="clip4_101_26">
<rect width="480.499" height="40.487" fill="white" transform="translate(1.20129 199)"/>
</clipPath>
<clipPath id="clip5_101_26">
<rect width="480.499" height="40.487" fill="white" transform="translate(1.20129 199)"/>
</clipPath>
<clipPath id="clip6_101_26">
<rect width="365.179" height="17.4215" fill="white" transform="translate(117.722 251.74)"/>
</clipPath>
<clipPath id="clip7_101_26">
<rect width="365.179" height="17.4215" fill="white" transform="translate(117.722 251.74)"/>
</clipPath>
</defs>
</svg>
