<svg width="701" height="184" viewBox="0 0 701 184" fill="none" xmlns="http://www.w3.org/2000/svg">
<g clip-path="url(#clip0_101_4)">
<g clip-path="url(#clip1_101_4)">
<g clip-path="url(#clip2_101_4)">
<g clip-path="url(#clip3_101_4)">
<g clip-path="url(#clip4_101_4)">
<path d="M694.489 101.849H221.246C218.579 101.849 216.417 102.666 216.417 103.675C216.417 104.683 218.579 105.5 221.246 105.5H694.489C697.156 105.5 699.318 104.683 699.318 103.675C699.318 102.666 697.156 101.849 694.489 101.849Z" fill="#50331E"/>
<g clip-path="url(#clip5_101_4)">
<g clip-path="url(#clip6_101_4)">
<path d="M217.635 96.8657V57.7434H251.469V67.1259H230.202V72.528H248.398V81.5125H230.202V87.4832H251.867V96.8657H217.635ZM258.691 96.8657V57.7434H271.257V86.8577H291.33V96.8657H258.691ZM309.754 96.8657H297.187V57.7434H309.754V96.8657ZM335.161 57.061C340.165 57.061 344.278 58.0732 347.5 60.0976C350.723 62.1295 352.372 65.1357 352.448 69.1162V69.7985H340.677V69.5711C340.677 68.4338 340.26 67.4861 339.426 66.7279C338.592 65.9697 337.322 65.5906 335.616 65.5906C333.948 65.5906 332.67 65.837 331.783 66.3298C330.889 66.8227 330.441 67.4292 330.441 68.1495C330.441 69.173 331.048 69.9312 332.261 70.424C333.474 70.9168 335.426 71.4286 338.118 71.9593C341.264 72.6038 343.854 73.2748 345.885 73.9723C347.91 74.6774 349.68 75.8261 351.197 77.4183C352.713 79.0105 353.49 81.1713 353.528 83.9007C353.528 88.5257 351.966 91.9564 348.842 94.1931C345.711 96.4297 341.53 97.548 336.298 97.548C330.195 97.548 325.449 96.5245 322.06 94.4774C318.663 92.4303 316.965 88.81 316.965 83.6164H328.849C328.849 85.5877 329.361 86.9031 330.384 87.5628C331.408 88.23 333 88.5636 335.161 88.5636C336.753 88.5636 338.072 88.393 339.119 88.0518C340.157 87.7106 340.677 87.0093 340.677 85.9478C340.677 85.0001 340.101 84.2874 338.948 83.8098C337.788 83.3397 335.9 82.8393 333.284 82.3086C330.1 81.6262 327.465 80.9135 325.38 80.1705C323.295 79.435 321.476 78.2144 319.921 76.5084C318.367 74.8025 317.59 72.4901 317.59 69.5711C317.59 65.2873 319.25 62.1295 322.571 60.0976C325.885 58.0732 330.081 57.061 335.161 57.061ZM399.303 96.8657H385.997L384.348 91.3499H370.644L368.995 96.8657H356.144L370.416 57.7434H385.03L399.303 96.8657ZM377.411 68.6612L373.26 82.5929H381.732L377.638 68.6612H377.411ZM412.325 66.1024L409.596 74.2339H405.729L403.056 66.1024V57.7434H412.325V66.1024ZM436.265 57.061C441.269 57.061 445.382 58.0732 448.604 60.0976C451.826 62.1295 453.476 65.1357 453.551 69.1162V69.7985H441.781V69.5711C441.781 68.4338 441.364 67.4861 440.53 66.7279C439.696 65.9697 438.426 65.5906 436.72 65.5906C435.052 65.5906 433.77 65.837 432.876 66.3298C431.989 66.8227 431.545 67.4292 431.545 68.1495C431.545 69.173 432.152 69.9312 433.365 70.424C434.578 70.9168 436.53 71.4286 439.222 71.9593C442.368 72.6038 444.954 73.2748 446.978 73.9723C449.01 74.6774 450.784 75.8261 452.3 77.4183C453.817 79.0105 454.594 81.1713 454.632 83.9007C454.632 88.5257 453.066 91.9564 449.935 94.1931C446.811 96.4297 442.633 97.548 437.402 97.548C431.299 97.548 426.549 96.5245 423.152 94.4774C419.763 92.4303 418.068 88.81 418.068 83.6164H429.953C429.953 85.5877 430.465 86.9031 431.488 87.5628C432.512 88.23 434.104 88.5636 436.265 88.5636C437.857 88.5636 439.172 88.393 440.211 88.0518C441.257 87.7106 441.781 87.0093 441.781 85.9478C441.781 85.0001 441.201 84.2874 440.04 83.8098C438.888 83.3397 437.004 82.8393 434.388 82.3086C431.204 81.6262 428.569 80.9135 426.484 80.1705C424.399 79.435 422.58 78.2144 421.025 76.5084C419.471 74.8025 418.694 72.4901 418.694 69.5711C418.694 65.2873 420.35 62.1295 423.664 60.0976C426.985 58.0732 431.185 57.061 436.265 57.061ZM498.462 57.061C504.262 57.061 508.849 58.5092 512.223 61.4054C515.597 64.3093 517.284 68.4527 517.284 73.8359H505.286C505.286 71.5613 504.691 69.7606 503.5 68.4338C502.303 67.107 500.604 66.4436 498.405 66.4436C495.866 66.4436 494 67.2397 492.81 68.8318C491.612 70.424 491.013 72.6417 491.013 75.4849V79.1242C491.013 81.9295 491.612 84.1358 492.81 85.7431C494 87.3581 495.828 88.1655 498.292 88.1655C500.718 88.1655 502.557 87.54 503.808 86.289C505.059 85.038 505.684 83.2752 505.684 81.0007H517.284C517.284 86.3459 515.647 90.4401 512.371 93.2833C509.088 96.1265 504.452 97.548 498.462 97.548C491.79 97.548 486.741 95.8421 483.314 92.4303C479.879 89.0185 478.162 83.9766 478.162 77.3045C478.162 70.6325 479.879 65.5906 483.314 62.1788C486.741 58.7669 491.79 57.061 498.462 57.061ZM543.498 57.061C550.246 57.061 555.459 58.7859 559.136 62.2356C562.813 65.6854 564.652 70.7083 564.652 77.3045C564.652 83.9007 562.813 88.9237 559.136 92.3734C555.459 95.8232 550.246 97.548 543.498 97.548C536.751 97.548 531.546 95.8308 527.884 92.3962C524.229 88.9692 522.402 83.9387 522.402 77.3045C522.402 70.6704 524.229 65.6361 527.884 62.2015C531.546 58.7745 536.751 57.061 543.498 57.061ZM543.498 66.4436C540.807 66.4436 538.76 67.2586 537.357 68.8887C535.954 70.5188 535.253 72.7175 535.253 75.4849V79.1242C535.253 81.8916 535.954 84.0903 537.357 85.7204C538.76 87.3505 540.807 88.1655 543.498 88.1655C546.19 88.1655 548.245 87.3505 549.662 85.7204C551.088 84.0903 551.801 81.8916 551.801 79.1242V75.4849C551.801 72.7175 551.088 70.5188 549.662 68.8887C548.245 67.2586 546.19 66.4436 543.498 66.4436ZM610.37 96.8657H599.396L582.962 77.8732V96.8657H571.419V57.7434H582.393L598.827 77.0202V57.7434H610.37V96.8657ZM618.775 96.8657V57.7434H652.609V67.1259H631.342V72.528H649.538V81.5125H631.342V87.4832H653.007V96.8657H618.775ZM696.962 69.7417C696.962 72.1299 696.318 74.2908 695.029 76.2241C693.74 78.1575 691.864 79.5791 689.4 80.4889L698.1 96.8657H683.997L677.06 82.5929H672.397V96.8657H659.83V57.7434H683.77C686.575 57.7434 688.975 58.2817 690.969 59.3583C692.955 60.4425 694.453 61.902 695.461 63.7368C696.462 65.5792 696.962 67.5808 696.962 69.7417ZM684.168 70.2534C684.168 69.2299 683.827 68.3769 683.145 67.6946C682.462 67.0122 681.628 66.671 680.643 66.671H672.397V73.8927H680.643C681.628 73.8927 682.462 73.5402 683.145 72.835C683.827 72.1375 684.168 71.277 684.168 70.2534Z" fill="#50331E"/>
</g>
</g>
<g clip-path="url(#clip7_101_4)">
<g clip-path="url(#clip8_101_4)">
<path d="M339.256 122.898C338.311 122.898 337.455 122.651 336.687 122.158C335.921 121.662 335.311 120.965 334.857 120.067C334.403 119.169 334.176 118.113 334.176 116.898C334.176 115.909 334.319 115.032 334.603 114.266C334.888 113.498 335.283 112.85 335.789 112.323C336.297 111.795 336.884 111.396 337.552 111.126C338.222 110.857 338.937 110.722 339.698 110.722C340.692 110.722 341.544 110.93 342.256 111.347C342.968 111.765 343.553 112.427 344.012 113.335L342.282 113.832C341.914 113.324 341.509 112.942 341.067 112.687C340.625 112.432 340.141 112.304 339.613 112.304C338.97 112.304 338.376 112.491 337.832 112.864C337.289 113.234 336.856 113.762 336.532 114.447C336.206 115.129 336.043 115.946 336.043 116.898C336.043 117.762 336.179 118.524 336.451 119.184C336.726 119.844 337.113 120.359 337.611 120.73C338.111 121.1 338.703 121.286 339.385 121.286C339.922 121.286 340.407 121.163 340.839 120.918C341.268 120.672 341.607 120.309 341.855 119.828C342.103 119.347 342.226 118.751 342.226 118.039H342.687C342.687 119.026 342.569 119.883 342.333 120.612C342.098 121.338 341.728 121.9 341.225 122.298C340.722 122.698 340.066 122.898 339.256 122.898ZM343.92 122.659H342.503L342.226 119.972V117.984L339.411 117.91V116.758H343.92V122.659ZM348.915 122.659H347.166V113.777H348.915V122.659ZM348.915 118.702H348.436C348.436 117.566 348.555 116.622 348.793 115.871C349.029 115.12 349.36 114.561 349.787 114.193C350.211 113.825 350.712 113.641 351.289 113.641C351.461 113.641 351.621 113.653 351.771 113.677C351.923 113.702 352.073 113.735 352.22 113.777L352.154 115.518C351.989 115.474 351.81 115.436 351.616 115.404C351.422 115.369 351.246 115.352 351.086 115.352C350.583 115.352 350.172 115.486 349.853 115.753C349.534 116.018 349.299 116.401 349.146 116.902C348.992 117.402 348.915 118.002 348.915 118.702ZM361.135 122.659H359.607L359.387 120.623V116.935C359.387 116.211 359.237 115.685 358.938 115.356C358.636 115.027 358.16 114.863 357.509 114.863C357.141 114.863 356.815 114.917 356.53 115.025C356.246 115.132 356.021 115.293 355.857 115.507C355.695 115.723 355.614 115.993 355.614 116.317H353.681C353.681 115.666 353.841 115.139 354.16 114.734C354.479 114.329 354.925 114.033 355.5 113.847C356.074 113.66 356.744 113.567 357.509 113.567C358.228 113.567 358.86 113.685 359.405 113.92C359.952 114.156 360.377 114.525 360.679 115.028C360.983 115.531 361.135 116.182 361.135 116.979V122.659ZM356.644 122.898C355.903 122.898 355.287 122.768 354.797 122.508C354.306 122.245 353.939 121.903 353.696 121.481C353.453 121.056 353.332 120.605 353.332 120.126C353.332 119.545 353.48 119.065 353.777 118.687C354.076 118.309 354.49 118.028 355.017 117.844C355.545 117.66 356.152 117.568 356.839 117.568C357.311 117.568 357.771 117.611 358.22 117.697C358.666 117.783 359.108 117.897 359.545 118.039V119.096C359.189 118.968 358.794 118.866 358.36 118.79C357.928 118.712 357.525 118.672 357.152 118.672C356.593 118.672 356.127 118.783 355.754 119.004C355.378 119.224 355.19 119.599 355.19 120.126C355.19 120.514 355.338 120.848 355.632 121.127C355.927 121.405 356.393 121.543 357.031 121.543C357.497 121.543 357.908 121.438 358.264 121.227C358.62 121.016 358.896 120.751 359.092 120.432C359.288 120.113 359.387 119.794 359.387 119.475H359.81C359.81 120.088 359.686 120.654 359.438 121.172C359.188 121.689 358.827 122.106 358.356 122.423C357.885 122.74 357.314 122.898 356.644 122.898ZM372.398 122.659H370.657V117.469C370.657 116.701 370.476 116.119 370.113 115.724C369.747 115.329 369.254 115.131 368.633 115.131C368.142 115.131 367.715 115.265 367.352 115.532C366.986 115.798 366.704 116.186 366.505 116.699C366.304 117.212 366.204 117.837 366.204 118.573H365.578C365.578 117.486 365.718 116.572 365.997 115.831C366.277 115.087 366.677 114.524 367.197 114.141C367.72 113.758 368.346 113.567 369.075 113.567C369.786 113.567 370.39 113.726 370.886 114.045C371.379 114.364 371.754 114.817 372.012 115.404C372.27 115.99 372.398 116.678 372.398 117.469V122.659ZM366.204 122.659H364.455V113.806H365.975L366.204 115.72V122.659ZM378.928 122.898C378.207 122.898 377.542 122.703 376.933 122.313C376.327 121.922 375.844 121.376 375.483 120.675C375.125 119.973 374.946 119.146 374.946 118.194C374.946 117.249 375.122 116.431 375.476 115.739C375.829 115.044 376.296 114.509 376.878 114.134C377.462 113.756 378.11 113.567 378.822 113.567C379.472 113.567 380.039 113.725 380.522 114.042C381.008 114.356 381.383 114.813 381.648 115.415C381.916 116.016 382.05 116.75 382.05 117.616H381.442C381.442 117.081 381.336 116.628 381.122 116.258C380.906 115.887 380.626 115.606 380.283 115.415C379.939 115.226 379.571 115.131 379.179 115.131C378.72 115.131 378.304 115.255 377.931 115.503C377.56 115.751 377.266 116.104 377.047 116.563C376.829 117.02 376.72 117.563 376.72 118.194C376.72 118.832 376.829 119.386 377.047 119.857C377.266 120.326 377.56 120.687 377.931 120.94C378.304 121.19 378.717 121.315 379.171 121.315C379.544 121.315 379.904 121.216 380.25 121.017C380.596 120.816 380.882 120.529 381.107 120.156C381.331 119.78 381.442 119.335 381.442 118.819H382.05C382.05 119.703 381.91 120.449 381.63 121.057C381.353 121.664 380.977 122.122 380.504 122.434C380.033 122.743 379.507 122.898 378.928 122.898ZM383.202 122.659H381.748L381.442 120.531V110.077H383.202V122.659ZM400.811 122.659H399.055V117.469C399.055 116.701 398.872 116.119 398.507 115.724C398.141 115.329 397.652 115.131 397.038 115.131C396.302 115.131 395.734 115.42 395.334 115.996C394.931 116.573 394.73 117.401 394.73 118.481H393.965C393.965 117.627 394.048 116.891 394.215 116.272C394.379 115.651 394.617 115.142 394.929 114.745C395.238 114.345 395.609 114.049 396.041 113.858C396.472 113.664 396.956 113.567 397.491 113.567C398.202 113.567 398.805 113.726 399.298 114.045C399.791 114.364 400.167 114.817 400.424 115.404C400.682 115.99 400.811 116.678 400.811 117.469V122.659ZM388.535 122.659H386.787V113.806H388.307L388.498 115.47C388.781 114.852 389.17 114.379 389.665 114.053C390.159 113.729 390.739 113.567 391.406 113.567C392.118 113.567 392.722 113.726 393.217 114.045C393.711 114.364 394.086 114.817 394.344 115.404C394.601 115.99 394.73 116.678 394.73 117.469V122.659H392.989V117.469C392.989 116.701 392.808 116.119 392.444 115.724C392.079 115.329 391.585 115.131 390.965 115.131C390.474 115.131 390.047 115.265 389.684 115.532C389.318 115.798 389.036 116.186 388.837 116.699C388.636 117.212 388.535 117.837 388.535 118.573V122.659ZM411.184 122.659H409.656L409.435 120.623V116.935C409.435 116.211 409.284 115.685 408.982 115.356C408.683 115.027 408.208 114.863 407.558 114.863C407.19 114.863 406.862 114.917 406.575 115.025C406.29 115.132 406.067 115.293 405.905 115.507C405.743 115.723 405.662 115.993 405.662 116.317H403.73C403.73 115.666 403.889 115.139 404.208 114.734C404.527 114.329 404.973 114.033 405.545 113.847C406.119 113.66 406.79 113.567 407.558 113.567C408.274 113.567 408.906 113.685 409.454 113.92C409.998 114.156 410.423 114.525 410.727 115.028C411.031 115.531 411.184 116.182 411.184 116.979V122.659ZM406.693 122.898C405.949 122.898 405.332 122.768 404.841 122.508C404.351 122.245 403.984 121.903 403.741 121.481C403.5 121.056 403.38 120.605 403.38 120.126C403.38 119.545 403.529 119.065 403.826 118.687C404.122 118.309 404.535 118.028 405.062 117.844C405.59 117.66 406.197 117.568 406.884 117.568C407.358 117.568 407.818 117.611 408.265 117.697C408.714 117.783 409.155 117.897 409.59 118.039V119.096C409.234 118.968 408.84 118.866 408.408 118.79C407.976 118.712 407.573 118.672 407.197 118.672C406.64 118.672 406.174 118.783 405.798 119.004C405.425 119.224 405.239 119.599 405.239 120.126C405.239 120.514 405.386 120.848 405.681 121.127C405.975 121.405 406.441 121.543 407.079 121.543C407.546 121.543 407.957 121.438 408.313 121.227C408.668 121.016 408.944 120.751 409.141 120.432C409.337 120.113 409.435 119.794 409.435 119.475H409.858C409.858 120.088 409.733 120.654 409.483 121.172C409.235 121.689 408.876 122.106 408.405 122.423C407.931 122.74 407.36 122.898 406.693 122.898ZM413.473 114.384L413.241 110.199H415.019L414.78 114.384H413.473ZM420.577 122.898C419.718 122.898 418.994 122.776 418.405 122.533C417.816 122.291 417.366 121.953 417.055 121.521C416.745 121.089 416.585 120.581 416.572 119.997H418.221C418.246 120.508 418.45 120.886 418.832 121.131C419.215 121.376 419.735 121.499 420.393 121.499C420.742 121.499 421.058 121.444 421.343 121.334C421.63 121.223 421.857 121.072 422.024 120.881C422.193 120.692 422.278 120.477 422.278 120.237C422.278 119.937 422.167 119.7 421.946 119.526C421.726 119.352 421.37 119.196 420.879 119.059L419.068 118.444C418.344 118.199 417.788 117.872 417.401 117.465C417.015 117.055 416.823 116.566 416.823 115.996C416.823 115.265 417.148 114.677 417.798 114.233C418.448 113.789 419.31 113.567 420.382 113.567C421.494 113.567 422.351 113.801 422.955 114.27C423.559 114.739 423.873 115.326 423.897 116.033H422.215C422.171 115.682 421.997 115.413 421.692 115.227C421.391 115.04 420.954 114.947 420.382 114.947C419.85 114.947 419.431 115.064 419.127 115.297C418.823 115.53 418.67 115.794 418.67 116.088C418.67 116.616 419.124 117.009 420.032 117.266L421.939 117.936C422.663 118.169 423.221 118.47 423.614 118.838C424.006 119.206 424.203 119.672 424.203 120.237C424.203 120.691 424.052 121.12 423.75 121.525C423.451 121.93 423.029 122.26 422.484 122.515C421.941 122.77 421.306 122.898 420.577 122.898ZM433.265 122.659H431.517V110.935H438.757V112.444H433.265V115.996H438.345V117.494H433.265V122.659ZM444.12 122.898C443.317 122.898 442.598 122.722 441.963 122.372C441.327 122.023 440.825 121.502 440.457 120.807C440.089 120.115 439.905 119.26 439.905 118.242C439.905 117.204 440.089 116.34 440.457 115.65C440.825 114.961 441.327 114.44 441.963 114.09C442.598 113.741 443.317 113.567 444.12 113.567C444.912 113.567 445.624 113.741 446.255 114.09C446.888 114.44 447.387 114.961 447.753 115.65C448.116 116.34 448.298 117.204 448.298 118.242C448.298 119.26 448.116 120.115 447.753 120.807C447.387 121.502 446.888 122.023 446.255 122.372C445.624 122.722 444.912 122.898 444.12 122.898ZM444.065 121.37C444.575 121.37 445.016 121.248 445.386 121.002C445.757 120.757 446.042 120.4 446.244 119.931C446.442 119.46 446.542 118.897 446.542 118.242C446.542 117.235 446.337 116.456 445.927 115.904C445.52 115.352 444.933 115.076 444.168 115.076C443.652 115.076 443.209 115.2 442.839 115.448C442.466 115.698 442.18 116.058 441.981 116.526C441.783 116.995 441.683 117.567 441.683 118.242C441.683 119.228 441.888 119.996 442.298 120.546C442.71 121.095 443.299 121.37 444.065 121.37ZM452.751 122.659H451.003V113.777H452.751V122.659ZM452.751 118.702H452.273C452.273 117.566 452.391 116.622 452.626 115.871C452.864 115.12 453.196 114.561 453.62 114.193C454.047 113.825 454.549 113.641 455.126 113.641C455.297 113.641 455.458 113.653 455.608 113.677C455.76 113.702 455.91 113.735 456.057 113.777L455.991 115.518C455.826 115.474 455.647 115.436 455.453 115.404C455.259 115.369 455.083 115.352 454.923 115.352C454.42 115.352 454.009 115.486 453.69 115.753C453.371 116.018 453.135 116.401 452.983 116.902C452.829 117.402 452.751 118.002 452.751 118.702ZM460.923 127.223C459.966 127.223 459.143 127.092 458.453 126.829C457.761 126.564 457.229 126.211 456.856 125.769C456.48 125.327 456.292 124.846 456.292 124.326C456.292 123.663 456.535 123.156 457.021 122.802C457.505 122.449 458.121 122.272 458.869 122.272L460.003 122.806C459.365 122.806 458.873 122.935 458.527 123.192C458.178 123.45 458.004 123.8 458.004 124.241C458.004 124.703 458.256 125.082 458.759 125.379C459.262 125.676 459.983 125.824 460.923 125.824C461.603 125.824 462.2 125.725 462.716 125.526C463.231 125.327 463.63 125.066 463.912 124.742C464.194 124.421 464.335 124.076 464.335 123.708C464.335 123.457 464.246 123.244 464.066 123.067C463.885 122.893 463.61 122.806 463.242 122.806H460.003C459.402 122.806 458.873 122.713 458.416 122.526C457.957 122.337 457.599 122.089 457.341 121.783C457.084 121.476 456.955 121.136 456.955 120.763C456.955 120.395 457.059 120.077 457.268 119.81C457.476 119.542 457.753 119.34 458.096 119.202C458.44 119.065 458.817 118.996 459.23 118.996L459.624 119.604C459.447 119.604 459.269 119.642 459.09 119.718C458.913 119.794 458.766 119.909 458.648 120.064C458.533 120.216 458.475 120.406 458.475 120.634C458.475 120.899 458.587 121.119 458.81 121.293C459.033 121.467 459.431 121.554 460.003 121.554H463.242C464.125 121.554 464.819 121.729 465.322 122.077C465.825 122.428 466.076 122.938 466.076 123.608C466.076 124.214 465.868 124.794 465.45 125.346C465.033 125.898 464.439 126.349 463.669 126.7C462.898 127.049 461.983 127.223 460.923 127.223ZM461.114 119.997C460.427 119.997 459.804 119.865 459.244 119.6C458.683 119.332 458.236 118.958 457.905 118.477C457.573 117.994 457.408 117.431 457.408 116.788C457.408 116.137 457.573 115.572 457.905 115.091C458.236 114.607 458.683 114.233 459.244 113.968C459.804 113.701 460.427 113.567 461.114 113.567C461.784 113.567 462.396 113.701 462.951 113.968C463.506 114.233 463.951 114.607 464.287 115.091C464.621 115.572 464.788 116.137 464.788 116.788C464.788 117.431 464.621 117.994 464.287 118.477C463.951 118.958 463.506 119.332 462.951 119.6C462.396 119.865 461.784 119.997 461.114 119.997ZM461.114 118.764C461.747 118.764 462.231 118.577 462.565 118.201C462.898 117.823 463.065 117.352 463.065 116.788C463.065 116.199 462.898 115.723 462.565 115.359C462.231 114.999 461.747 114.818 461.114 114.818C460.496 114.818 460.014 114.999 459.668 115.359C459.319 115.723 459.145 116.199 459.145 116.788C459.145 117.352 459.319 117.823 459.668 118.201C460.014 118.577 460.496 118.764 461.114 118.764ZM464.125 114.984L463.304 114.587C463.304 114.059 463.415 113.599 463.636 113.206C463.857 112.814 464.163 112.507 464.556 112.286C464.949 112.065 465.4 111.955 465.91 111.955L465.8 113.659C465.253 113.659 464.837 113.766 464.552 113.979C464.268 114.195 464.125 114.53 464.125 114.984ZM471.524 122.898C470.719 122.898 469.999 122.722 469.363 122.372C468.73 122.023 468.229 121.502 467.861 120.807C467.493 120.115 467.309 119.26 467.309 118.242C467.309 117.204 467.493 116.34 467.861 115.65C468.229 114.961 468.73 114.44 469.363 114.09C469.999 113.741 470.719 113.567 471.524 113.567C472.314 113.567 473.026 113.741 473.659 114.09C474.289 114.44 474.787 114.961 475.153 115.65C475.519 116.34 475.702 117.204 475.702 118.242C475.702 119.26 475.519 120.115 475.153 120.807C474.787 121.502 474.289 122.023 473.659 122.372C473.026 122.722 472.314 122.898 471.524 122.898ZM471.469 121.37C471.977 121.37 472.416 121.248 472.786 121.002C473.159 120.757 473.445 120.4 473.644 119.931C473.843 119.46 473.942 118.897 473.942 118.242C473.942 117.235 473.738 116.456 473.331 115.904C472.924 115.352 472.336 115.076 471.568 115.076C471.053 115.076 470.61 115.2 470.239 115.448C469.869 115.698 469.583 116.058 469.382 116.526C469.183 116.995 469.083 117.567 469.083 118.242C469.083 119.228 469.29 119.996 469.702 120.546C470.112 121.095 470.701 121.37 471.469 121.37ZM481.249 122.898C480.746 122.898 480.292 122.802 479.887 122.611C479.482 122.422 479.162 122.136 478.926 121.753C478.688 121.368 478.569 120.884 478.569 120.303V111.395H480.31V120.248C480.31 121.082 480.699 121.499 481.477 121.499C481.717 121.499 481.95 121.473 482.176 121.422C482.404 121.368 482.662 121.289 482.949 121.186L483.199 122.427C482.873 122.562 482.553 122.675 482.239 122.765C481.922 122.854 481.592 122.898 481.249 122.898ZM482.931 114.991H477.218V113.806H482.931V114.991ZM488.316 122.898C487.813 122.898 487.359 122.802 486.954 122.611C486.549 122.422 486.228 122.136 485.99 121.753C485.754 121.368 485.636 120.884 485.636 120.303V111.395H487.377V120.248C487.377 121.082 487.766 121.499 488.544 121.499C488.785 121.499 489.018 121.473 489.243 121.422C489.472 121.368 489.729 121.289 490.016 121.186L490.267 122.427C489.94 122.562 489.619 122.675 489.302 122.765C488.988 122.854 488.659 122.898 488.316 122.898ZM489.998 114.991H484.285V113.806H489.998V114.991ZM495.711 122.898C494.95 122.898 494.263 122.702 493.649 122.309C493.036 121.916 492.55 121.37 492.192 120.671C491.834 119.972 491.654 119.162 491.654 118.242C491.654 117.265 491.832 116.429 492.188 115.735C492.544 115.038 493.029 114.502 493.642 114.126C494.256 113.753 494.945 113.567 495.711 113.567C496.398 113.567 496.987 113.707 497.477 113.987C497.968 114.264 498.365 114.638 498.666 115.109C498.966 115.578 499.173 116.109 499.288 116.703C499.401 117.299 499.421 117.913 499.347 118.543H493.053V117.531H498.151L497.728 117.807C497.745 117.476 497.728 117.145 497.676 116.813C497.625 116.482 497.525 116.178 497.378 115.901C497.231 115.621 497.024 115.396 496.756 115.227C496.489 115.058 496.15 114.973 495.74 114.973C495.225 114.973 494.794 115.102 494.448 115.359C494.1 115.617 493.837 115.963 493.66 116.397C493.481 116.829 493.392 117.303 493.392 117.818V118.525C493.392 119.097 493.478 119.604 493.649 120.045C493.821 120.487 494.078 120.835 494.419 121.091C494.76 121.343 495.19 121.47 495.711 121.47C496.221 121.47 496.643 121.351 496.977 121.113C497.311 120.872 497.518 120.513 497.599 120.034H499.384C499.291 120.611 499.079 121.114 498.747 121.543C498.416 121.973 497.992 122.306 497.474 122.545C496.956 122.78 496.368 122.898 495.711 122.898ZM510.059 122.659H508.318V117.469C508.318 116.701 508.135 116.119 507.769 115.724C507.406 115.329 506.914 115.131 506.293 115.131C505.802 115.131 505.374 115.265 505.009 115.532C504.645 115.798 504.363 116.186 504.162 116.699C503.963 117.212 503.864 117.837 503.864 118.573H503.238C503.238 117.486 503.378 116.572 503.658 115.831C503.937 115.087 504.337 114.524 504.858 114.141C505.38 113.758 506.006 113.567 506.735 113.567C507.446 113.567 508.049 113.726 508.542 114.045C509.038 114.364 509.413 114.817 509.668 115.404C509.929 115.99 510.059 116.678 510.059 117.469V122.659ZM503.864 122.659H502.115V113.806H503.636L503.864 115.72V122.659ZM519.618 122.659H517.869V110.935H522.066C523.432 110.935 524.473 111.259 525.187 111.907C525.903 112.552 526.262 113.402 526.262 114.458C526.262 115.501 525.903 116.345 525.187 116.99C524.473 117.633 523.432 117.954 522.066 117.954H519.618V122.659ZM526.611 122.659H524.337L521.09 117.266H522.975L526.611 122.659ZM519.618 112.444V116.758H521.907C522.742 116.758 523.377 116.558 523.814 116.158C524.248 115.756 524.466 115.236 524.466 114.598C524.466 113.94 524.262 113.417 523.854 113.029C523.447 112.639 522.851 112.444 522.066 112.444H519.618ZM532.552 122.898C531.792 122.898 531.105 122.702 530.491 122.309C529.878 121.916 529.392 121.37 529.033 120.671C528.675 119.972 528.496 119.162 528.496 118.242C528.496 117.265 528.674 116.429 529.03 115.735C529.386 115.038 529.87 114.502 530.484 114.126C531.097 113.753 531.787 113.567 532.552 113.567C533.239 113.567 533.828 113.707 534.319 113.987C534.81 114.264 535.206 114.638 535.508 115.109C535.807 115.578 536.014 116.109 536.126 116.703C536.242 117.299 536.263 117.913 536.189 118.543H529.895V117.531H534.993L534.569 117.807C534.587 117.476 534.569 117.145 534.518 116.813C534.466 116.482 534.367 116.178 534.22 115.901C534.073 115.621 533.865 115.396 533.598 115.227C533.33 115.058 532.992 114.973 532.582 114.973C532.066 114.973 531.636 115.102 531.29 115.359C530.941 115.617 530.679 115.963 530.502 116.397C530.323 116.829 530.233 117.303 530.233 117.818V118.525C530.233 119.097 530.319 119.604 530.491 120.045C530.663 120.487 530.919 120.835 531.26 121.091C531.601 121.343 532.032 121.47 532.552 121.47C533.063 121.47 533.485 121.351 533.819 121.113C534.152 120.872 534.36 120.513 534.441 120.034H536.226C536.133 120.611 535.92 121.114 535.589 121.543C535.258 121.973 534.833 122.306 534.315 122.545C533.798 122.78 533.21 122.898 532.552 122.898ZM542.178 122.898C541.454 122.898 540.779 122.704 540.153 122.316C539.528 121.931 539.025 121.389 538.644 120.689C538.264 119.99 538.074 119.168 538.074 118.223C538.074 117.229 538.264 116.388 538.644 115.698C539.025 115.006 539.528 114.479 540.153 114.115C540.779 113.75 541.454 113.567 542.178 113.567C542.71 113.567 543.185 113.652 543.602 113.821C544.019 113.988 544.379 114.215 544.681 114.502C544.98 114.786 545.224 115.107 545.413 115.463C545.6 115.818 545.73 116.186 545.803 116.567L544.026 116.659C543.898 116.197 543.673 115.828 543.352 115.551C543.028 115.271 542.631 115.131 542.159 115.131C541.759 115.131 541.384 115.243 541.033 115.466C540.68 115.69 540.394 116.031 540.175 116.49C539.957 116.946 539.848 117.524 539.848 118.223C539.848 118.873 539.95 119.428 540.153 119.887C540.355 120.348 540.631 120.702 540.982 120.947C541.33 121.192 541.723 121.315 542.159 121.315C542.785 121.315 543.253 121.163 543.562 120.859C543.871 120.554 544.026 120.136 544.026 119.604H545.803C545.803 120.222 545.659 120.78 545.369 121.278C545.082 121.774 544.667 122.168 544.125 122.46C543.58 122.752 542.931 122.898 542.178 122.898ZM549.565 111.918C549.217 111.918 548.942 111.822 548.741 111.631C548.542 111.437 548.443 111.174 548.443 110.843C548.443 110.524 548.542 110.271 548.741 110.085C548.942 109.896 549.217 109.801 549.565 109.801C549.909 109.801 550.18 109.896 550.379 110.085C550.58 110.271 550.681 110.524 550.681 110.843C550.681 111.174 550.58 111.437 550.379 111.631C550.18 111.822 549.909 111.918 549.565 111.918ZM550.441 122.659H548.693V113.777H550.441V122.659ZM558.473 122.898C557.828 122.898 557.269 122.752 556.798 122.46C556.325 122.168 555.964 121.738 555.716 121.172C555.468 120.605 555.344 119.9 555.344 119.059H556.025C556.025 119.545 556.129 119.954 556.338 120.288C556.547 120.622 556.821 120.877 557.163 121.054C557.501 121.228 557.864 121.315 558.252 121.315C558.657 121.315 559.051 121.2 559.434 120.969C559.816 120.738 560.131 120.394 560.376 119.935C560.621 119.473 560.744 118.903 560.744 118.223C560.744 117.573 560.636 117.018 560.42 116.559C560.202 116.098 559.905 115.745 559.529 115.499C559.156 115.254 558.737 115.131 558.27 115.131C557.878 115.131 557.51 115.225 557.166 115.411C556.823 115.598 556.547 115.871 556.338 116.232C556.129 116.59 556.025 117.027 556.025 117.542H555.344C555.344 116.651 555.487 115.912 555.771 115.323C556.056 114.734 556.441 114.294 556.927 114.005C557.41 113.713 557.947 113.567 558.535 113.567C559.23 113.567 559.88 113.752 560.486 114.123C561.095 114.493 561.588 115.026 561.966 115.72C562.341 116.412 562.529 117.247 562.529 118.223C562.529 119.197 562.339 120.034 561.959 120.734C561.578 121.433 561.08 121.969 560.464 122.342C559.848 122.713 559.185 122.898 558.473 122.898ZM556.025 127.002H554.277V113.806H555.72L556.025 115.93V127.002ZM568.411 122.898C567.651 122.898 566.963 122.702 566.35 122.309C565.736 121.916 565.249 121.37 564.889 120.671C564.53 119.972 564.351 119.162 564.351 118.242C564.351 117.265 564.529 116.429 564.885 115.735C565.241 115.038 565.725 114.502 566.339 114.126C566.952 113.753 567.643 113.567 568.411 113.567C569.098 113.567 569.687 113.707 570.178 113.987C570.669 114.264 571.064 114.638 571.363 115.109C571.665 115.578 571.872 116.109 571.985 116.703C572.098 117.299 572.118 117.913 572.044 118.543H565.75V117.531H570.848L570.425 117.807C570.444 117.476 570.427 117.145 570.373 116.813C570.322 116.482 570.222 116.178 570.075 115.901C569.928 115.621 569.72 115.396 569.453 115.227C569.188 115.058 568.849 114.973 568.437 114.973C567.922 114.973 567.491 115.102 567.145 115.359C566.799 115.617 566.536 115.963 566.357 116.397C566.181 116.829 566.092 117.303 566.092 117.818V118.525C566.092 119.097 566.178 119.604 566.35 120.045C566.522 120.487 566.777 120.835 567.116 121.091C567.457 121.343 567.889 121.47 568.411 121.47C568.919 121.47 569.34 121.351 569.674 121.113C570.01 120.872 570.217 120.513 570.296 120.034H572.081C571.99 120.611 571.779 121.114 571.448 121.543C571.117 121.973 570.691 122.306 570.171 122.545C569.653 122.78 569.066 122.898 568.411 122.898ZM578.051 122.898C577.193 122.898 576.469 122.776 575.88 122.533C575.291 122.291 574.842 121.953 574.532 121.521C574.223 121.089 574.063 120.581 574.05 119.997H575.696C575.72 120.508 575.925 120.886 576.31 121.131C576.693 121.376 577.212 121.499 577.867 121.499C578.218 121.499 578.536 121.444 578.821 121.334C579.105 121.223 579.332 121.072 579.502 120.881C579.671 120.692 579.756 120.477 579.756 120.237C579.756 119.937 579.645 119.7 579.424 119.526C579.203 119.352 578.848 119.196 578.357 119.059L576.542 118.444C575.818 118.199 575.264 117.872 574.878 117.465C574.491 117.055 574.297 116.566 574.297 115.996C574.297 115.265 574.622 114.677 575.272 114.233C575.923 113.789 576.785 113.567 577.86 113.567C578.969 113.567 579.827 113.801 580.433 114.27C581.037 114.739 581.351 115.326 581.375 116.033H579.689C579.648 115.682 579.475 115.413 579.17 115.227C578.866 115.04 578.429 114.947 577.86 114.947C577.325 114.947 576.907 115.064 576.605 115.297C576.301 115.53 576.148 115.794 576.148 116.088C576.148 116.616 576.602 117.009 577.51 117.266L579.413 117.936C580.137 118.169 580.695 118.47 581.088 118.838C581.481 119.206 581.677 119.672 581.677 120.237C581.677 120.691 581.527 121.12 581.228 121.525C580.926 121.93 580.504 122.26 579.962 122.515C579.419 122.77 578.783 122.898 578.051 122.898ZM590.739 122.659H588.991V110.935H593.187C594.556 110.935 595.598 111.259 596.312 111.907C597.026 112.552 597.383 113.402 597.383 114.458C597.383 115.501 597.026 116.345 596.312 116.99C595.598 117.633 594.556 117.954 593.187 117.954H590.739V122.659ZM597.733 122.659H595.462L592.212 117.266H594.1L597.733 122.659ZM590.739 112.444V116.758H593.032C593.867 116.758 594.501 116.558 594.935 116.158C595.372 115.756 595.591 115.236 595.591 114.598C595.591 113.94 595.387 113.417 594.98 113.029C594.57 112.639 593.972 112.444 593.187 112.444H590.739ZM603.677 122.898C602.917 122.898 602.23 122.702 601.616 122.309C601.003 121.916 600.517 121.37 600.159 120.671C599.8 119.972 599.621 119.162 599.621 118.242C599.621 117.265 599.799 116.429 600.155 115.735C600.511 115.038 600.995 114.502 601.609 114.126C602.222 113.753 602.912 113.567 603.677 113.567C604.365 113.567 604.953 113.707 605.444 113.987C605.935 114.264 606.331 114.638 606.633 115.109C606.933 115.578 607.139 116.109 607.252 116.703C607.367 117.299 607.388 117.913 607.314 118.543H601.02V117.531H606.118L605.695 117.807C605.712 117.476 605.695 117.145 605.643 116.813C605.592 116.482 605.492 116.178 605.345 115.901C605.198 115.621 604.99 115.396 604.723 115.227C604.455 115.058 604.117 114.973 603.707 114.973C603.192 114.973 602.76 115.102 602.411 115.359C602.065 115.617 601.804 115.963 601.627 116.397C601.448 116.829 601.359 117.303 601.359 117.818V118.525C601.359 119.097 601.444 119.604 601.616 120.045C601.788 120.487 602.044 120.835 602.385 121.091C602.727 121.343 603.157 121.47 603.677 121.47C604.188 121.47 604.61 121.351 604.944 121.113C605.277 120.872 605.485 120.513 605.566 120.034H607.351C607.258 120.611 607.045 121.114 606.714 121.543C606.383 121.973 605.958 122.306 605.441 122.545C604.923 122.78 604.335 122.898 603.677 122.898ZM613.292 122.898C612.568 122.898 611.903 122.703 611.297 122.313C610.688 121.922 610.205 121.376 609.847 120.675C609.488 119.973 609.309 119.146 609.309 118.194C609.309 117.249 609.486 116.431 609.839 115.739C610.19 115.044 610.658 114.509 611.242 114.134C611.823 113.756 612.47 113.567 613.181 113.567C613.832 113.567 614.4 113.725 614.886 114.042C615.369 114.356 615.745 114.813 616.012 115.415C616.279 116.016 616.413 116.75 616.413 117.616H615.806C615.806 117.081 615.698 116.628 615.482 116.258C615.268 115.887 614.99 115.606 614.646 115.415C614.303 115.226 613.935 115.131 613.542 115.131C613.081 115.131 612.665 115.255 612.294 115.503C611.924 115.751 611.629 116.104 611.411 116.563C611.193 117.02 611.083 117.563 611.083 118.194C611.083 118.832 611.193 119.386 611.411 119.857C611.629 120.326 611.924 120.687 612.294 120.94C612.665 121.19 613.077 121.315 613.531 121.315C613.907 121.315 614.267 121.216 614.613 121.017C614.959 120.816 615.245 120.529 615.471 120.156C615.694 119.78 615.806 119.335 615.806 118.819H616.413C616.413 119.703 616.273 120.449 615.994 121.057C615.714 121.664 615.338 122.122 614.867 122.434C614.394 122.743 613.869 122.898 613.292 122.898ZM617.562 122.659H616.108L615.806 120.531V110.077H617.562V122.659ZM622.163 111.918C621.814 111.918 621.539 111.822 621.338 111.631C621.139 111.437 621.04 111.174 621.04 110.843C621.04 110.524 621.139 110.271 621.338 110.085C621.539 109.896 621.814 109.801 622.163 109.801C622.506 109.801 622.777 109.896 622.976 110.085C623.177 110.271 623.278 110.524 623.278 110.843C623.278 111.174 623.177 111.437 622.976 111.631C622.777 111.822 622.506 111.918 622.163 111.918ZM623.039 122.659H621.29V113.777H623.039V122.659ZM630.113 122.898C629.254 122.898 628.531 122.776 627.942 122.533C627.353 122.291 626.904 121.953 626.594 121.521C626.283 121.089 626.121 120.581 626.109 119.997H627.758C627.782 120.508 627.986 120.886 628.369 121.131C628.751 121.376 629.272 121.499 629.929 121.499C630.278 121.499 630.596 121.444 630.883 121.334C631.167 121.223 631.394 121.072 631.564 120.881C631.73 120.692 631.814 120.477 631.814 120.237C631.814 119.937 631.703 119.7 631.483 119.526C631.262 119.352 630.906 119.196 630.415 119.059L628.604 118.444C627.88 118.199 627.324 117.872 626.937 117.465C626.552 117.055 626.359 116.566 626.359 115.996C626.359 115.265 626.684 114.677 627.334 114.233C627.985 113.789 628.846 113.567 629.918 113.567C631.03 113.567 631.888 113.801 632.491 114.27C633.095 114.739 633.409 115.326 633.433 116.033H631.751C631.707 115.682 631.534 115.413 631.232 115.227C630.928 115.04 630.49 114.947 629.918 114.947C629.386 114.947 628.967 115.064 628.663 115.297C628.359 115.53 628.207 115.794 628.207 116.088C628.207 116.616 628.661 117.009 629.569 117.266L631.475 117.936C632.199 118.169 632.757 118.47 633.15 118.838C633.543 119.206 633.739 119.672 633.739 120.237C633.739 120.691 633.588 121.12 633.286 121.525C632.987 121.93 632.566 122.26 632.024 122.515C631.479 122.77 630.842 122.898 630.113 122.898ZM639.783 122.898C639.059 122.898 638.384 122.704 637.758 122.316C637.133 121.931 636.63 121.389 636.249 120.689C635.869 119.99 635.679 119.168 635.679 118.223C635.679 117.229 635.869 116.388 636.249 115.698C636.63 115.006 637.133 114.479 637.758 114.115C638.384 113.75 639.059 113.567 639.783 113.567C640.318 113.567 640.794 113.652 641.211 113.821C641.628 113.988 641.987 114.215 642.286 114.502C642.588 114.786 642.832 115.107 643.018 115.463C643.205 115.818 643.335 116.186 643.409 116.567L641.634 116.659C641.504 116.197 641.279 115.828 640.957 115.551C640.636 115.271 640.238 115.131 639.765 115.131C639.367 115.131 638.992 115.243 638.638 115.466C638.285 115.69 637.999 116.031 637.781 116.49C637.565 116.946 637.457 117.524 637.457 118.223C637.457 118.873 637.557 119.428 637.758 119.887C637.962 120.348 638.238 120.702 638.587 120.947C638.938 121.192 639.33 121.315 639.765 121.315C640.39 121.315 640.858 121.163 641.167 120.859C641.479 120.554 641.634 120.136 641.634 119.604H643.409C643.409 120.222 643.265 120.78 642.978 121.278C642.688 121.774 642.272 122.168 641.73 122.46C641.188 122.752 640.539 122.898 639.783 122.898ZM649.489 122.898C648.687 122.898 647.968 122.722 647.332 122.372C646.697 122.023 646.195 121.502 645.827 120.807C645.459 120.115 645.275 119.26 645.275 118.242C645.275 117.204 645.459 116.34 645.827 115.65C646.195 114.961 646.697 114.44 647.332 114.09C647.968 113.741 648.687 113.567 649.489 113.567C650.282 113.567 650.994 113.741 651.624 114.09C652.257 114.44 652.757 114.961 653.122 115.65C653.486 116.34 653.667 117.204 653.667 118.242C653.667 119.26 653.486 120.115 653.122 120.807C652.757 121.502 652.257 122.023 651.624 122.372C650.994 122.722 650.282 122.898 649.489 122.898ZM649.434 121.37C649.945 121.37 650.385 121.248 650.756 121.002C651.126 120.757 651.412 120.4 651.613 119.931C651.812 119.46 651.911 118.897 651.911 118.242C651.911 117.235 651.708 116.456 651.3 115.904C650.891 115.352 650.303 115.076 649.537 115.076C649.022 115.076 648.579 115.2 648.208 115.448C647.835 115.698 647.55 116.058 647.351 116.526C647.152 116.995 647.053 117.567 647.053 118.242C647.053 119.228 647.258 119.996 647.667 120.546C648.08 121.095 648.669 121.37 649.434 121.37ZM658.298 122.659L654.863 113.806H656.869L659.365 121.157H659.181L661.673 113.806H663.679L660.237 122.659H658.298ZM668.924 122.898C668.164 122.898 667.476 122.702 666.863 122.309C666.25 121.916 665.764 121.37 665.405 120.671C665.045 119.972 664.864 119.162 664.864 118.242C664.864 117.265 665.042 116.429 665.398 115.735C665.754 115.038 666.238 114.502 666.852 114.126C667.465 113.753 668.156 113.567 668.924 113.567C669.611 113.567 670.2 113.707 670.691 113.987C671.182 114.264 671.577 114.638 671.876 115.109C672.178 115.578 672.385 116.109 672.498 116.703C672.611 117.299 672.631 117.913 672.557 118.543H666.263V117.531H671.361L670.938 117.807C670.957 117.476 670.941 117.145 670.89 116.813C670.836 116.482 670.735 116.178 670.588 115.901C670.441 115.621 670.235 115.396 669.97 115.227C669.702 115.058 669.362 114.973 668.95 114.973C668.435 114.973 668.004 115.102 667.658 115.359C667.312 115.617 667.049 115.963 666.87 116.397C666.694 116.829 666.605 117.303 666.605 117.818V118.525C666.605 119.097 666.691 119.604 666.863 120.045C667.035 120.487 667.291 120.835 667.632 121.091C667.971 121.343 668.402 121.47 668.924 121.47C669.432 121.47 669.854 121.351 670.19 121.113C670.524 120.872 670.73 120.513 670.809 120.034H672.594C672.503 120.611 672.292 121.114 671.961 121.543C671.63 121.973 671.205 122.306 670.687 122.545C670.167 122.78 669.579 122.898 668.924 122.898ZM677.077 122.659H675.329V113.777H677.077V122.659ZM677.077 118.702H676.599C676.599 117.566 676.717 116.622 676.952 115.871C677.188 115.12 677.519 114.561 677.946 114.193C678.373 113.825 678.875 113.641 679.452 113.641C679.623 113.641 679.784 113.653 679.934 113.677C680.083 113.702 680.232 113.735 680.379 113.777L680.316 115.518C680.15 115.474 679.969 115.436 679.775 115.404C679.584 115.369 679.409 115.352 679.249 115.352C678.746 115.352 678.335 115.486 678.016 115.753C677.697 116.018 677.46 116.401 677.306 116.902C677.153 117.402 677.077 118.002 677.077 118.702ZM685.392 122.898C684.632 122.898 683.945 122.702 683.331 122.309C682.718 121.916 682.232 121.37 681.874 120.671C681.515 119.972 681.336 119.162 681.336 118.242C681.336 117.265 681.514 116.429 681.87 115.735C682.226 115.038 682.71 114.502 683.324 114.126C683.937 113.753 684.627 113.567 685.392 113.567C686.079 113.567 686.668 113.707 687.159 113.987C687.65 114.264 688.046 114.638 688.348 115.109C688.647 115.578 688.855 116.109 688.97 116.703C689.083 117.299 689.103 117.913 689.029 118.543H682.735V117.531H687.833L687.41 117.807C687.427 117.476 687.41 117.145 687.358 116.813C687.306 116.482 687.207 116.178 687.06 115.901C686.913 115.621 686.705 115.396 686.438 115.227C686.17 115.058 685.832 114.973 685.422 114.973C684.907 114.973 684.476 115.102 684.13 115.359C683.781 115.617 683.519 115.963 683.342 116.397C683.163 116.829 683.073 117.303 683.073 117.818V118.525C683.073 119.097 683.159 119.604 683.331 120.045C683.503 120.487 683.759 120.835 684.1 121.091C684.442 121.343 684.872 121.47 685.392 121.47C685.903 121.47 686.325 121.351 686.659 121.113C686.992 120.872 687.2 120.513 687.281 120.034H689.066C688.973 120.611 688.76 121.114 688.429 121.543C688.098 121.973 687.673 122.306 687.156 122.545C686.638 122.78 686.05 122.898 685.392 122.898ZM695.01 122.898C694.287 122.898 693.62 122.703 693.012 122.313C692.406 121.922 691.922 121.376 691.561 120.675C691.203 119.973 691.024 119.146 691.024 118.194C691.024 117.249 691.201 116.431 691.554 115.739C691.908 115.044 692.375 114.509 692.957 114.134C693.541 113.756 694.188 113.567 694.9 113.567C695.55 113.567 696.117 113.725 696.601 114.042C697.086 114.356 697.462 114.813 697.727 115.415C697.994 116.016 698.128 116.75 698.128 117.616H697.521C697.521 117.081 697.414 116.628 697.201 116.258C696.985 115.887 696.705 115.606 696.361 115.415C696.018 115.226 695.65 115.131 695.257 115.131C694.798 115.131 694.382 115.255 694.009 115.503C693.639 115.751 693.344 116.104 693.126 116.563C692.91 117.02 692.802 117.563 692.802 118.194C692.802 118.832 692.91 119.386 693.126 119.857C693.344 120.326 693.639 120.687 694.009 120.94C694.382 121.19 694.796 121.315 695.25 121.315C695.623 121.315 695.982 121.216 696.328 121.017C696.677 120.816 696.963 120.529 697.186 120.156C697.409 119.78 697.521 119.335 697.521 118.819H698.128C698.128 119.703 697.988 120.449 697.709 121.057C697.431 121.664 697.056 122.122 696.582 122.434C696.111 122.743 695.587 122.898 695.01 122.898ZM699.28 122.659H697.826L697.521 120.531V110.077H699.28V122.659Z" fill="#E6B17E"/>
</g>
</g>
</g>
</g>
<g clip-path="url(#clip9_101_4)">
<g clip-path="url(#clip10_101_4)">
<path d="M104.346 0.300049C47.7305 0.300049 1.83362 41.4201 1.83362 92.1419C1.83362 142.866 47.7305 183.984 104.346 183.984C160.962 183.984 206.859 142.866 206.859 92.1419C206.859 41.4201 160.962 0.300049 104.346 0.300049ZM156.283 132.047C89.0952 172.132 29.0162 130.652 17.4547 118.549C47.764 142.247 95.4407 149.609 135.369 132.743C159.029 121.5 171.632 106.27 177.547 86.0328C183.464 63.5476 176.426 42.1855 154.242 27.5684C133.539 14.0764 106.916 9.57981 80.2986 16.3247C59.5953 23.0718 43.3259 35.4385 37.4113 53.4271C30.018 72.5408 43.328 91.6525 65.5099 101.771C87.6918 109.641 118.75 106.268 130.581 88.2811C137.975 75.9123 135.017 60.172 118.75 52.3019C111.357 48.9284 101.385 48.2131 96.0367 52.6658C88.6727 58.7979 99.9896 53.4208 108.322 57.2795C113.586 59.7161 120.034 63.899 118.75 74.7892C117.135 88.507 95.0893 95.0281 80.2986 90.5294C64.0313 84.9076 56.6359 72.5408 58.1166 60.172C61.074 46.6801 74.3839 36.5616 90.6533 33.1881C118.752 27.5663 143.891 42.1834 152.765 62.4224C160.159 81.5341 148.329 99.5227 127.624 110.766C109.88 119.762 89.1726 122.01 69.948 116.388C41.8493 108.518 22.6247 89.4063 21.1461 65.7959C19.6653 35.4385 46.2832 12.9533 83.2559 5.0832C124.665 -1.66173 166.073 14.0785 183.819 43.3086C200.086 73.666 191.369 111.113 156.283 132.047Z" fill="#E6B17E"/>
</g>
</g>
</g>
</g>
</g>
<defs>
<clipPath id="clip0_101_4">
<rect width="700" height="183.4" fill="white" transform="translate(0.575806 0.441895)"/>
</clipPath>
<clipPath id="clip1_101_4">
<rect width="697.484" height="183.684" fill="white" transform="translate(1.83362 0.300049)"/>
</clipPath>
<clipPath id="clip2_101_4">
<rect width="697.484" height="183.684" fill="white" transform="translate(1.83362 0.300049)"/>
</clipPath>
<clipPath id="clip3_101_4">
<rect width="482.901" height="70.1619" fill="white" transform="translate(216.417 57.061)"/>
</clipPath>
<clipPath id="clip4_101_4">
<rect width="482.901" height="70.1619" fill="white" transform="translate(216.417 57.061)"/>
</clipPath>
<clipPath id="clip5_101_4">
<rect width="480.499" height="40.487" fill="white" transform="translate(217.618 57.061)"/>
</clipPath>
<clipPath id="clip6_101_4">
<rect width="480.499" height="40.487" fill="white" transform="translate(217.618 57.061)"/>
</clipPath>
<clipPath id="clip7_101_4">
<rect width="365.179" height="17.4215" fill="white" transform="translate(334.139 109.801)"/>
</clipPath>
<clipPath id="clip8_101_4">
<rect width="365.179" height="17.4215" fill="white" transform="translate(334.139 109.801)"/>
</clipPath>
<clipPath id="clip9_101_4">
<rect width="205.025" height="183.684" fill="white" transform="translate(1.83362 0.300049)"/>
</clipPath>
<clipPath id="clip10_101_4">
<rect width="205.025" height="183.684" fill="white" transform="translate(1.83362 0.300049)"/>
</clipPath>
</defs>
</svg>
