<svg id="Layer_2" data-name="Layer 2" xmlns="http://www.w3.org/2000/svg" viewBox="0 0 981.971 942.446" style="width: 100%; height: 100%;">
  <g id="Layer_2-2" data-name="Layer 2">
    <g>
      <g>
        <rect x="167.751" y="0" width="172.061" height="223.958" transform="translate(507.563 223.958) rotate(-180)" fill="#f4f4f4"></rect>
        <rect x="162.169" y="0" width="5.582" height="223.958" fill="#f4f4f4"></rect>
        <rect x="162.169" y="0" width="5.582" height="223.958" fill="#292a2e" opacity=".05"></rect>
        <rect x="199.094" y="40.797" width="109.375" height="142.365" transform="translate(507.563 223.958) rotate(-180)" fill="#292a2e" opacity=".05"></rect>
        <rect x="199.094" y="40.797" width="5.7" height="142.365" transform="translate(403.888 223.958) rotate(-180)" fill="#292a2e" opacity=".03"></rect>
        <rect x="27.033" y="279.033" width="140.718" height="142.01" transform="translate(194.783 700.077) rotate(-180)" fill="#f4f4f4"></rect>
        <rect x="52.666" y="304.902" width="89.451" height="90.272" transform="translate(194.783 700.077) rotate(-180)" fill="#292a2e" opacity=".05"></rect>
        <rect x="21.451" y="279.033" width="5.582" height="142.01" fill="#f4f4f4"></rect>
        <rect x="21.451" y="279.033" width="5.582" height="142.01" fill="#292a2e" opacity=".05"></rect>
        <rect x="52.666" y="304.902" width="5.7" height="90.272" transform="translate(111.033 700.077) rotate(-180)" fill="#292a2e" opacity=".03"></rect>
      </g>
      <g>
        <rect id="c_3_c" x="525.001" y="7.981" width="405.081" height="405.081" fill="#f4f4f4"></rect>
        <rect id="c_3_c-2" data-name="c_3_c" x="930.082" y="7.981" width="4.643" height="405.081" fill="#f4f4f4"></rect>
        <rect id="c_3_c-3" data-name="c_3_c" x="930.082" y="7.981" width="4.643" height="405.081" fill="#292a2e" opacity=".05"></rect>
        <polygon id="c_3_c-4" data-name="c_3_c" points="831.95 287.115 831.95 181.133 745.134 181.133 745.134 242.706 610.657 242.706 610.657 351.73 553.503 351.73 553.503 413.062 610.657 413.062 621.668 413.062 910.596 413.062 910.596 287.115 831.95 287.115" fill="#292a2e" opacity=".05"></polygon>
        <g id="c_3_wh">
          <rect id="c_3_wh-2" data-name="c_3_wh" x="756.278" y="192.64" width="63.22" height="11.507" fill="#fffffa" opacity=".34"></rect>
          <rect id="c_3_wh-3" data-name="c_3_wh" x="756.278" y="216.486" width="63.22" height="11.507" fill="#fffffa" opacity=".34"></rect>
          <rect id="c_3_wh-4" data-name="c_3_wh" x="756.278" y="240.331" width="63.22" height="11.507" fill="#fffffa" opacity=".34"></rect>
        </g>
        <g id="c_3_wh-5" data-name="c_3_wh">
          <rect id="c_3_wh-6" data-name="c_3_wh" x="887.733" y="298.285" width="11.652" height="11.507" fill="#fffffa" opacity=".34"></rect>
          <rect id="c_3_wh-7" data-name="c_3_wh" x="887.733" y="322.131" width="11.652" height="11.507" fill="#fffffa" opacity=".34"></rect>
          <rect id="c_3_wh-8" data-name="c_3_wh" x="887.733" y="345.976" width="11.652" height="11.507" fill="#fffffa" opacity=".34"></rect>
          <rect id="c_3_wh-9" data-name="c_3_wh" x="866.177" y="298.285" width="11.652" height="11.507" fill="#fffffa" opacity=".34"></rect>
          <rect id="c_3_wh-10" data-name="c_3_wh" x="866.177" y="322.131" width="11.652" height="11.507" fill="#fffffa" opacity=".34"></rect>
          <rect id="c_3_wh-11" data-name="c_3_wh" x="866.177" y="345.976" width="11.652" height="11.507" fill="#fffffa" opacity=".34"></rect>
          <rect id="c_3_wh-12" data-name="c_3_wh" x="845.203" y="298.285" width="11.652" height="11.507" fill="#fffffa" opacity=".34"></rect>
          <rect id="c_3_wh-13" data-name="c_3_wh" x="845.203" y="322.131" width="11.652" height="11.507" fill="#fffffa" opacity=".34"></rect>
          <rect id="c_3_wh-14" data-name="c_3_wh" x="845.203" y="345.976" width="11.652" height="11.507" fill="#fffffa" opacity=".34"></rect>
        </g>
        <polygon points="930.082 208.25 848.573 208.25 848.573 7.981 841.832 7.981 841.832 208.25 621.668 208.25 621.668 7.981 614.927 7.981 614.927 208.25 525.001 208.25 525.001 214.99 614.927 214.99 614.927 413.062 621.668 413.062 621.668 214.99 841.832 214.99 841.832 413.062 848.573 413.062 848.573 214.99 930.082 214.99 930.082 208.25" fill="#fff"></polygon>
        <rect id="c_3_c-5" data-name="c_3_c" x="508.864" y="412.574" width="437.355" height="13.471" fill="#f4f4f4"></rect>
        <rect id="c_3_c-6" data-name="c_3_c" x="508.864" y="412.574" width="437.355" height="13.471" fill="#292a2e" opacity=".1"></rect>
        <rect id="c_3_c-7" data-name="c_3_c" x="946.219" y="412.574" width="6.314" height="13.471" fill="#292a2e" opacity=".1"></rect>
        <rect id="c_3_c-8" data-name="c_3_c" x="946.219" y="412.574" width="6.314" height="13.471" fill="#292a2e" opacity=".1"></rect>
      </g>
      <g>
        <path d="m894.912,809.348c-.256,0-.512-.098-.707-.293-1.409-1.409-3.706-27.259-9.892-104.223-2.531-31.492-4.922-61.238-6.667-79.315-.125-1.291-.625-1.441-.79-1.491-2.388-.721-9.652,5.007-13.707,10.022-.347.429-.977.497-1.407.149-.429-.348-.496-.977-.149-1.407,2.682-3.316,11.422-12.009,15.838-10.68.891.268,1.996,1.042,2.206,3.214,1.746,18.093,4.137,47.847,6.669,79.347,3.759,46.77,8.018,99.756,9.417,103.093.282.391.247.939-.105,1.291-.195.195-.451.293-.707.293Z" fill="#494949"></path>
        <ellipse cx="857.316" cy="636.534" rx="38.507" ry="28.398" transform="translate(-209.738 676.069) rotate(-38.715)" fill="#0cbc8b"></ellipse>
        <ellipse cx="857.316" cy="636.534" rx="38.507" ry="28.398" transform="translate(-209.738 676.069) rotate(-38.715)" fill="#fff" opacity=".2"></ellipse>
        <path d="m831.922,663.727c-.112,0-.225-.038-.319-.115-.212-.176-.242-.491-.065-.704l47.291-57.029c.176-.211.491-.242.704-.065.212.176.242.491.065.704l-47.291,57.029c-.099.119-.241.181-.385.181Z" fill="#fff"></path>
        <path d="m905.227,797.123c-.109,0-.22-.018-.329-.056-.521-.181-.797-.751-.616-1.273l17.764-51.087c1.066-3.065,3.586-5.351,6.741-6.112,3.156-.763,6.44.122,8.788,2.364l9.391,8.971c.399.381.414,1.015.032,1.414-.382.399-1.015.413-1.414.032l-9.391-8.971c-1.853-1.77-4.445-2.469-6.937-1.867-2.49.601-4.479,2.405-5.321,4.825l-17.764,51.087c-.144.413-.53.672-.944.672Z" fill="#494949"></path>
        <ellipse cx="949.306" cy="748.016" rx="28.398" ry="38.507" transform="translate(-259.29 750.686) rotate(-38.363)" fill="#0cbc8b"></ellipse>
        <path d="m886.842,806.091c-.452,0-.862-.309-.972-.768l-29.811-124.645c-.422-1.767-1.729-3.079-3.494-3.51-1.765-.429-3.53.133-4.718,1.506l-9.189,10.619c-.361.417-.994.463-1.411.102-.417-.361-.463-.993-.102-1.411l9.189-10.619c1.665-1.924,4.233-2.744,6.705-2.141,2.471.603,4.374,2.514,4.965,4.988l29.811,124.645c.128.537-.203,1.077-.74,1.205-.078.019-.156.027-.233.027Z" fill="#494949"></path>
        <ellipse cx="847.861" cy="712.144" rx="38.507" ry="28.398" transform="translate(1.662 1426.262) rotate(-80.189)" fill="#0cbc8b"></ellipse>
        <path d="m894.914,809.348c-.041,0-.082-.002-.124-.007-.548-.068-.938-.567-.871-1.115l19.036-154.558c.43-3.486,2.78-6.296,6.135-7.335,3.354-1.039,6.883-.049,9.207,2.583l21.758,24.643c.366.414.326,1.046-.088,1.412-.414.366-1.046.326-1.411-.087l-21.758-24.643c-1.797-2.035-4.522-2.799-7.116-1.997-2.593.803-4.41,2.975-4.741,5.669l-19.036,154.558c-.062.507-.494.878-.991.878Z" fill="#494949"></path>
        <ellipse cx="938.675" cy="668.616" rx="28.398" ry="38.507" transform="translate(-100.746 1166.373) rotate(-61.051)" fill="#0cbc8b"></ellipse>
        <ellipse cx="949.306" cy="748.016" rx="28.398" ry="38.507" transform="translate(-259.29 750.686) rotate(-38.363)" fill="#fff" opacity=".2"></ellipse>
        <ellipse cx="847.861" cy="712.144" rx="38.507" ry="28.398" transform="translate(1.662 1426.262) rotate(-80.189)" fill="#fff" opacity=".5"></ellipse>
        <ellipse cx="938.675" cy="668.616" rx="28.398" ry="38.507" transform="translate(-100.746 1166.373) rotate(-61.051)" fill="#fff" opacity=".5"></ellipse>
        <polygon points="919.26 940.49 870.564 940.49 862.495 784.686 927.33 784.686 919.26 940.49" fill="#292a2e"></polygon>
        <polygon points="919.26 940.49 870.564 940.49 862.495 784.686 927.33 784.686 919.26 940.49" fill="#fff" opacity=".3"></polygon>
        <path d="m973.206,778.71c-.148,0-.294-.065-.393-.189l-47.799-60.386c-.171-.217-.135-.531.082-.703.218-.172.532-.134.703.082l47.799,60.386c.171.217.135.531-.082.703-.092.073-.202.108-.31.108Z" fill="#fff"></path>
        <path d="m969.192,692.092c-.102,0-.206-.031-.294-.096l-61.167-44.663c-.223-.163-.272-.476-.109-.699.163-.223.476-.272.699-.109l61.167,44.663c.223.163.272.476.109.699-.098.134-.25.205-.404.205Z" fill="#fff"></path>
        <path d="m838.817,749.441c-.043,0-.086-.005-.129-.017-.267-.071-.425-.345-.354-.612l19.472-72.953c.071-.267.35-.424.612-.354.267.071.425.345.354.612l-19.472,72.953c-.06.224-.262.371-.482.371Z" fill="#fff"></path>
      </g>
      <g>
        <g>
          <rect x="100.533" y="631.721" width="80.326" height="23.372" fill="#f4f4f4"></rect>
          <rect x="111.32" y="631.721" width="10.525" height="23.372" fill="#292a2e" opacity=".05"></rect>
          <rect x="126.831" y="636.801" width="43.764" height="13.85" fill="#fff"></rect>
        </g>
        <g>
          <rect x="162.21" y="617.494" width="81.445" height="23.372" transform="translate(268.797 -28.628) rotate(23.594)" fill="#f4f4f4"></rect>
          <rect x="162.21" y="617.494" width="81.445" height="23.372" transform="translate(268.797 -28.628) rotate(23.594)" fill="#292a2e" opacity=".05"></rect>
          <rect x="220.002" y="627.28" width="10.672" height="23.372" transform="translate(274.587 -36.778) rotate(23.594)" fill="#fff"></rect>
          <rect x="173.17" y="619.293" width="44.373" height="13.85" transform="translate(266.978 -25.843) rotate(23.594)" fill="#fff"></rect>
        </g>
        <g>
          <g>
            <rect x="224.884" y="927.797" width="20.186" height="13.481" fill="#292a2e" opacity=".05"></rect>
            <rect x="18.504" y="927.797" width="20.186" height="13.481" fill="#292a2e" opacity=".05"></rect>
          </g>
          <rect x="0" y="656.189" width="263.574" height="271.152" fill="#f4f4f4"></rect>
          <rect x="0" y="656.189" width="263.574" height="271.152" fill="#292a2e" opacity=".03"></rect>
          <rect x="48.844" y="656.189" width="263.574" height="271.152" fill="#f4f4f4"></rect>
          <g>
            <rect x="273.729" y="927.797" width="20.186" height="13.481" fill="#292a2e" opacity=".05"></rect>
            <rect x="67.348" y="927.797" width="20.186" height="13.481" fill="#292a2e" opacity=".05"></rect>
          </g>
          <rect x="58.739" y="668.888" width="243.786" height="52.094" fill="#fff" opacity=".7"></rect>
          <rect x="58.739" y="733.733" width="243.786" height="52.094" fill="#fff" opacity=".7"></rect>
          <rect x="58.739" y="798.576" width="243.786" height="52.094" fill="#fff" opacity=".7"></rect>
          <circle cx="180.632" cy="694.935" r="7.289" fill="#292a2e" opacity=".05"></circle>
          <circle cx="180.632" cy="759.78" r="7.289" fill="#292a2e" opacity=".05"></circle>
          <circle cx="180.632" cy="824.624" r="7.289" fill="#292a2e" opacity=".05"></circle>
          <g>
            <rect x="58.739" y="864.882" width="243.786" height="52.094" fill="#fff" opacity=".7"></rect>
            <circle cx="180.632" cy="890.929" r="7.289" fill="#292a2e" opacity=".05"></circle>
          </g>
        </g>
      </g>
      <g>
        <g>
          <g>
            <path d="m636.745,724.626H119.73c-14.532,0-26.312-11.78-26.312-26.312L111.418,114.68h568.64l-17,583.634c0,14.532-11.78,26.312-26.312,26.312Z" fill="#292a2e"></path>
            <path d="m636.745,724.626H119.73c-14.532,0-26.312-11.78-26.312-26.312L111.418,114.68h568.64l-17,583.634c0,14.532-11.78,26.312-26.312,26.312Z" fill="#fff" opacity=".9"></path>
            <path d="m636.745,725.626H119.73c-15.06,0-27.312-12.252-27.312-27.312L110.417,113.68h570.64l-17,584.634c0,15.06-12.252,27.312-27.312,27.312ZM112.417,115.68l-18,582.634c0,13.957,11.355,25.312,25.312,25.312h517.016c13.957,0,25.312-11.355,25.312-25.312l17-582.634H112.417Z" fill="#292a2e"></path>
          </g>
          <path d="m655.745,56.811H138.73c-15.06,0-27.312,12.252-27.312,27.312l-1,31.557h570.64l2-31.557c0-15.06-12.252-27.312-27.312-27.312Z" fill="#0c0c0c"></path>
        </g>
        <g>
          <path d="m665.745,56.811H142.73c-15.06,0-27.312,12.252-27.312,27.312v31.557h577.64v-31.557c0-15.06-12.252-27.312-27.312-27.312Z" fill="#292a2e"></path>
          <g>
            <path d="m116.418,114.68h575.64v593.634c0,14.522-11.79,26.312-26.312,26.312H142.73c-14.522,0-26.312-11.79-26.312-26.312V114.68h0Z" fill="#fff"></path>
            <path d="m665.745,735.626H142.73c-15.06,0-27.312-12.252-27.312-27.312V113.68h577.64v594.634c0,15.06-12.252,27.312-27.312,27.312ZM117.417,115.68v592.634c0,13.957,11.355,25.312,25.312,25.312h523.016c13.957,0,25.312-11.355,25.312-25.312V115.68H117.417Z" fill="#292a2e"></path>
          </g>
        </g>
        <g>
          <path d="m185.587,33.176c-13.033,0-23.635,10.603-23.635,23.635h2c0-11.93,9.706-21.635,21.635-21.635s21.635,9.706,21.635,21.635c0,10.918-8.13,19.968-18.654,21.425-.539-1.108-1.666-1.879-2.982-1.879-1.837,0-3.326,1.489-3.326,3.326s1.489,3.326,3.326,3.326c1.655,0,3.017-1.212,3.273-2.795,11.489-1.599,20.363-11.482,20.363-23.404,0-13.033-10.603-23.635-23.635-23.635Z" fill="#f4f4f4"></path>
          <path d="m646.523,56.811c0-13.033-10.603-23.635-23.635-23.635s-23.635,10.603-23.635,23.635h2c0-11.93,9.706-21.635,21.635-21.635s21.635,9.706,21.635,21.635c0,10.918-8.13,19.968-18.654,21.425-.539-1.108-1.666-1.879-2.982-1.879-1.837,0-3.326,1.489-3.326,3.326s1.489,3.326,3.326,3.326c1.655,0,3.017-1.212,3.273-2.795,11.489-1.599,20.363-11.482,20.363-23.404Z" fill="#f4f4f4"></path>
          <path d="m584.051,56.811c0-13.033-10.603-23.635-23.635-23.635s-23.635,10.603-23.635,23.635h2c0-11.93,9.706-21.635,21.635-21.635s21.635,9.706,21.635,21.635c0,10.918-8.13,19.968-18.654,21.425-.539-1.108-1.666-1.879-2.982-1.879-1.837,0-3.326,1.489-3.326,3.326s1.489,3.326,3.326,3.326c1.655,0,3.017-1.212,3.273-2.795,11.489-1.599,20.363-11.482,20.363-23.404Z" fill="#f4f4f4"></path>
          <path d="m521.58,56.811c0-13.033-10.603-23.635-23.635-23.635s-23.635,10.603-23.635,23.635h2c0-11.93,9.706-21.635,21.635-21.635s21.635,9.706,21.635,21.635c0,10.918-8.13,19.968-18.654,21.425-.539-1.108-1.666-1.879-2.982-1.879-1.837,0-3.326,1.489-3.326,3.326s1.489,3.326,3.326,3.326c1.655,0,3.017-1.212,3.273-2.795,11.489-1.599,20.363-11.482,20.363-23.404Z" fill="#f4f4f4"></path>
          <path d="m459.108,56.811c0-13.033-10.603-23.635-23.635-23.635s-23.635,10.603-23.635,23.635h2c0-11.93,9.706-21.635,21.635-21.635s21.635,9.706,21.635,21.635c0,10.918-8.13,19.968-18.654,21.425-.539-1.108-1.666-1.879-2.982-1.879-1.837,0-3.326,1.489-3.326,3.326s1.489,3.326,3.326,3.326c1.655,0,3.017-1.212,3.273-2.795,11.489-1.599,20.363-11.482,20.363-23.404Z" fill="#f4f4f4"></path>
          <path d="m396.637,56.811c0-13.033-10.603-23.635-23.635-23.635s-23.635,10.603-23.635,23.635h2c0-11.93,9.706-21.635,21.635-21.635s21.635,9.706,21.635,21.635c0,10.918-8.13,19.968-18.654,21.425-.539-1.108-1.666-1.879-2.982-1.879-1.837,0-3.326,1.489-3.326,3.326s1.489,3.326,3.326,3.326c1.655,0,3.017-1.212,3.273-2.795,11.489-1.599,20.363-11.482,20.363-23.404Z" fill="#f4f4f4"></path>
          <path d="m334.165,56.811c0-13.033-10.603-23.635-23.635-23.635s-23.635,10.603-23.635,23.635h2c0-11.93,9.706-21.635,21.635-21.635s21.635,9.706,21.635,21.635c0,10.918-8.13,19.968-18.654,21.425-.539-1.108-1.666-1.879-2.982-1.879-1.837,0-3.326,1.489-3.326,3.326s1.489,3.326,3.326,3.326c1.655,0,3.017-1.212,3.273-2.795,11.489-1.599,20.363-11.482,20.363-23.404Z" fill="#f4f4f4"></path>
          <path d="m271.694,56.811c0-13.033-10.603-23.635-23.635-23.635s-23.635,10.603-23.635,23.635h2c0-11.93,9.706-21.635,21.635-21.635s21.635,9.706,21.635,21.635c0,10.918-8.13,19.968-18.654,21.425-.539-1.108-1.666-1.879-2.982-1.879-1.837,0-3.326,1.489-3.326,3.326s1.489,3.326,3.326,3.326c1.655,0,3.017-1.212,3.273-2.795,11.489-1.599,20.363-11.482,20.363-23.404Z" fill="#f4f4f4"></path>
        </g>
        <g fill="none" opacity=".6">
          <path d="m185.587,33.176c-13.033,0-23.635,10.603-23.635,23.635h2c0-11.93,9.706-21.635,21.635-21.635s21.635,9.706,21.635,21.635c0,10.918-8.13,19.968-18.654,21.425-.539-1.108-1.666-1.879-2.982-1.879-1.837,0-3.326,1.489-3.326,3.326s1.489,3.326,3.326,3.326c1.655,0,3.017-1.212,3.273-2.795,11.489-1.599,20.363-11.482,20.363-23.404,0-13.033-10.603-23.635-23.635-23.635Z" fill="#292a2e"></path>
          <path d="m646.523,56.811c0-13.033-10.603-23.635-23.635-23.635s-23.635,10.603-23.635,23.635h2c0-11.93,9.706-21.635,21.635-21.635s21.635,9.706,21.635,21.635c0,10.918-8.13,19.968-18.654,21.425-.539-1.108-1.666-1.879-2.982-1.879-1.837,0-3.326,1.489-3.326,3.326s1.489,3.326,3.326,3.326c1.655,0,3.017-1.212,3.273-2.795,11.489-1.599,20.363-11.482,20.363-23.404Z" fill="#292a2e"></path>
          <path d="m584.051,56.811c0-13.033-10.603-23.635-23.635-23.635s-23.635,10.603-23.635,23.635h2c0-11.93,9.706-21.635,21.635-21.635s21.635,9.706,21.635,21.635c0,10.918-8.13,19.968-18.654,21.425-.539-1.108-1.666-1.879-2.982-1.879-1.837,0-3.326,1.489-3.326,3.326s1.489,3.326,3.326,3.326c1.655,0,3.017-1.212,3.273-2.795,11.489-1.599,20.363-11.482,20.363-23.404Z" fill="#292a2e"></path>
          <path d="m521.58,56.811c0-13.033-10.603-23.635-23.635-23.635s-23.635,10.603-23.635,23.635h2c0-11.93,9.706-21.635,21.635-21.635s21.635,9.706,21.635,21.635c0,10.918-8.13,19.968-18.654,21.425-.539-1.108-1.666-1.879-2.982-1.879-1.837,0-3.326,1.489-3.326,3.326s1.489,3.326,3.326,3.326c1.655,0,3.017-1.212,3.273-2.795,11.489-1.599,20.363-11.482,20.363-23.404Z" fill="#292a2e"></path>
          <path d="m459.108,56.811c0-13.033-10.603-23.635-23.635-23.635s-23.635,10.603-23.635,23.635h2c0-11.93,9.706-21.635,21.635-21.635s21.635,9.706,21.635,21.635c0,10.918-8.13,19.968-18.654,21.425-.539-1.108-1.666-1.879-2.982-1.879-1.837,0-3.326,1.489-3.326,3.326s1.489,3.326,3.326,3.326c1.655,0,3.017-1.212,3.273-2.795,11.489-1.599,20.363-11.482,20.363-23.404Z" fill="#292a2e"></path>
          <path d="m396.637,56.811c0-13.033-10.603-23.635-23.635-23.635s-23.635,10.603-23.635,23.635h2c0-11.93,9.706-21.635,21.635-21.635s21.635,9.706,21.635,21.635c0,10.918-8.13,19.968-18.654,21.425-.539-1.108-1.666-1.879-2.982-1.879-1.837,0-3.326,1.489-3.326,3.326s1.489,3.326,3.326,3.326c1.655,0,3.017-1.212,3.273-2.795,11.489-1.599,20.363-11.482,20.363-23.404Z" fill="#292a2e"></path>
          <path d="m334.165,56.811c0-13.033-10.603-23.635-23.635-23.635s-23.635,10.603-23.635,23.635h2c0-11.93,9.706-21.635,21.635-21.635s21.635,9.706,21.635,21.635c0,10.918-8.13,19.968-18.654,21.425-.539-1.108-1.666-1.879-2.982-1.879-1.837,0-3.326,1.489-3.326,3.326s1.489,3.326,3.326,3.326c1.655,0,3.017-1.212,3.273-2.795,11.489-1.599,20.363-11.482,20.363-23.404Z" fill="#292a2e"></path>
          <path d="m271.694,56.811c0-13.033-10.603-23.635-23.635-23.635s-23.635,10.603-23.635,23.635h2c0-11.93,9.706-21.635,21.635-21.635s21.635,9.706,21.635,21.635c0,10.918-8.13,19.968-18.654,21.425-.539-1.108-1.666-1.879-2.982-1.879-1.837,0-3.326,1.489-3.326,3.326s1.489,3.326,3.326,3.326c1.655,0,3.017-1.212,3.273-2.795,11.489-1.599,20.363-11.482,20.363-23.404Z" fill="#292a2e"></path>
        </g>
        <g fill="none" opacity=".72">
          <path d="m637.416,179.48H168.342c-.552,0-1-.447-1-1s.448-1,1-1h469.073c.552,0,1,.447,1,1s-.448,1-1,1Z" fill="#292a2e"></path>
        </g>
        <g fill="none" opacity=".72">
          <path d="m637.416,236.175H168.342c-.552,0-1-.447-1-1s.448-1,1-1h469.073c.552,0,1,.447,1,1s-.448,1-1,1Z" fill="#292a2e"></path>
        </g>
        <g fill="none" opacity=".72">
          <path d="m372.744,292.871h-204.401c-.552,0-1-.447-1-1s.448-1,1-1h204.401c.552,0,1,.447,1,1s-.448,1-1,1Z" fill="#292a2e"></path>
        </g>
      </g>
      <g>
        <path d="m860.851,475.024c8.397,0,16.401-3.854,21.635-10.558,5.849-7.491,7.408-17.475,4.12-26.393-1.553-4.213-37.973-100.656-44.906-118.526l-51.339,20.802c3.898,10.048,18.023,48.132,29.37,78.811l-18.852-2.049-5.934,54.585,62.935,3.167c.993.108,1.985.161,2.971.161Z" fill="#367cff"></path>
        <g>
          <polygon points="409.376 339.501 428.352 271.663 875.455 391.096 856.479 458.934 409.376 339.501" fill="#367cff"></polygon>
          <polygon points="409.376 339.501 428.352 271.663 875.455 391.096 856.479 458.934 409.376 339.501" fill="#fff" opacity=".5"></polygon>
          <rect x="855.282" y="406.401" width="70.442" height="50.956" transform="translate(1546.301 -309.367) rotate(105.627)" fill="#262626"></rect>
          <path d="m409.376,339.503s-12.88-14.434-24.377-27.406c-9.118-10.288-17.366-19.655-17.619-20.168-.265-.528,12.135-4.708,25.819-9.134,16.625-5.383,35.155-11.134,35.155-11.134l-18.978,67.842Z" fill="#367cff"></path>
          <path d="m409.376,339.503s-12.88-14.434-24.377-27.406c-9.118-10.288-17.366-19.655-17.619-20.168-.265-.528,12.135-4.708,25.819-9.134,16.625-5.383,35.155-11.134,35.155-11.134l-18.978,67.842Z" fill="#fff" opacity=".9"></path>
          <path d="m384.999,312.097c-9.118-10.288-17.366-19.655-17.619-20.168-.265-.528,12.135-4.708,25.819-9.134l-8.2,29.302Z" fill="#262626"></path>
          <polygon points="415.414 318.414 862.636 436.582 861.781 439.68 414.558 321.513 415.414 318.414" fill="#fff"></polygon>
          <polygon points="422.827 291.871 870.05 410.038 869.194 413.136 421.972 294.969 422.827 291.871" fill="#fff"></polygon>
        </g>
        <g>
          <g>
            <g>
              <path d="m802.573,898.203s-4.515,23.404-26.428,24.708c-21.913,1.304-17.161,18.761-17.161,18.761h83.739v-41.837l-40.15-1.632Z" fill="#367cff"></path>
              <path d="m828.402,471.273s-.263-7.036-.207,8.924c.207,59.529,1.24,127.525,3.764,167.315,4.057,63.964,14.459,265.628,14.459,265.628l-55.026-.462-53.333-443.823,90.342,2.419Z" fill="#262626"></path>
              <path d="m766.262,541.471s-2.28,43.2-2.703,53.341c-.978,23.455-1.318,47.739-1.318,75.273l-8.674-72.18s6.347-22.621,12.695-56.434Z" fill="#0a0a0a"></path>
              <path d="m704.612,898.203s-4.515,23.404-26.428,24.708c-21.913,1.304-17.161,18.761-17.161,18.761h83.739v-41.837s-40.15-1.632-40.15-1.632Z" fill="#367cff"></path>
              <path d="m677.968,475.895s-4.874,203.456-4.16,213.4l20.464,222.303,54.117,1-5.274-231.343s3.72-63.816,19.139-123.073c7.912-30.406,12.613-61.557,14.168-92.938h0s-98.454,10.651-98.454,10.651Z" fill="#262626"></path>
              <path d="m829,471.267l.18.01s-.13-3.47-.18-.01Z" fill="#333"></path>
              <path d="m670.222,362.964c1.135,13.332,6.655,96.51,7.746,112.931h150.372c.849-14.811.993-78.984,4.214-107.947,3.075-27.638,12.779-42.067,8.357-50.238-7.226-13.354-26.972-21.071-40.436-22.894-8.222-1.113-20.587-1.911-20.587-1.911,0,0-1.047,21.181-26.013,22.359-33.986,1.603-31.716-22.359-31.884-22.359-5.506,0-35.955,3.118-42.653,9.046-18.01,15.941-11.525,32.759-9.116,61.012Z" fill="#367cff"></path>
            </g>
            <g>
              <path id="h_3_sk" d="m704.077,291.08c.168-.022,4.781,17.336,40.778,14.635,24.921-1.867,30.997-18.829,31.568-18.829-2.687-.571-7.05-1.164-8.243-1.801-3.924-2.108-6.783-4.675-8.221-10.183-1.125-4.308-1.698-20.891-1.698-29.211l-38.347,8.617c.534,9.385,4.275,31.143-8.836,34.994-2.182.637-4.532,1.223-6.999,1.779Z" fill="#ff9e85"></path>
              <path d="m721.239,272.759c15.117,1.193,34.537-5.19,38.226-25.359l3.328-18.199c3.689-20.169-3.914-38.457-22.905-41.93h0c-18.99-3.473-36.175,10.281-39.864,30.45l-1.474,8.057c-1.415,7.739-4.284,44.853,22.688,46.981Z" fill="#ff9e85"></path>
              <path d="m707.222,254.241c2.714-13.634,3.958-22.731,3.814-32.328-3.822-6.704-2.817-14.399-1.948-17.724-3.746,2.044-5.313,2.266-8.839,2.266,0,0,6.321-25.368,27.805-32.194,3.95-1.538,14.037-3.48,27.43-1.643,11.392,1.562,39.471,10.08,43.483,41.693h.002s0,.009.001.018c.133,1.048,2.829,30.175,8.204,44.15,7.226,18.787,17.37,24.624,17.113,46.299-.331,27.881-51.587,31.592-82.504,29.507-30.916-2.086-48.174-12.251-48.398-32.344-.251-22.513,8.407-20.422,13.837-47.7Z" fill="#0a0a0a"></path>
            </g>
            <rect x="776.185" y="421.414" width="108.028" height="1" transform="translate(380.145 1237.2) rotate(-88.04)" fill="#0c0c0c"></rect>
          </g>
          <g>
            <path d="m529.134,370.05l-14.859-21.259c-1.368-1.957-4.134-2.355-6.007-.789-1.66,1.389-1.839,3.892-.599,5.666l3.186,4.558-16.6-9.736c-1.827-1.115-4.781-1.314-5.896.817-1.015,1.664-.702,3.762.635,5.068-.013.016-.03.029-.04.048-.009.014-.009.03-.016.045l-2.817-1.719c-2.172-1.325-5.089-.392-6.011,2.137-.675,1.852.183,3.922,1.866,4.949l1.199.732c-.005.045-.002.09.008.133-1.855-.615-3.965.161-4.927,1.996-1.02,1.945-.206,4.36,1.669,5.504l2.977,1.816c-.118.01-.23.068-.297.178-.038.065-.048.136-.045.206-1.739-.082-3.466.942-4.104,2.824-.621,1.832.248,3.845,1.9,4.853l25.121,15.328c7.189,4.387,16.321,3.972,23.084-1.047h0c5.927-4.399,7.279-12.715,3.05-18.765l-2.476-3.543Z" fill="#ff9e85"></path>
            <g fill="none" opacity=".2">
              <path d="m505.377,364.095c-.108.174-.336.231-.514.127l-15.774-9.279c-.18-.106-.24-.338-.134-.519.086-.177.338-.24.519-.134l15.774,9.279c.18.106.24.338.134.519l-.005.008Z" fill="#0c0c0c"></path>
            </g>
            <g fill="none" opacity=".2">
              <path d="m501.477,371.165c-.108.174-.336.231-.514.127l-17.604-10.356c-.18-.106-.24-.338-.134-.519.098-.164.338-.24.519-.134l17.604,10.356c.18.106.24.338.134.519l-.005.008Z" fill="#0c0c0c"></path>
            </g>
            <g fill="none" opacity=".2">
              <path d="m497.296,378.846c-.108.174-.336.231-.514.127l-14.043-8.26c-.18-.106-.24-.338-.134-.519.111-.18.338-.24.519-.134l14.043,8.26c.18.106.24.338.134.519l-.005.008Z" fill="#0c0c0c"></path>
            </g>
          </g>
          <path d="m673.747,308.371l-62.352,93.446-78.721-45.642-28.43,46.565,100.843,64.758c13.416,8.603,31.331,4.919,40.214-8.394l.374-.56,77.982-116.87-49.909-33.302Z" fill="#367cff"></path>
          <path d="m673.937,417.348c-.096,0-.193-.027-.278-.085-.229-.154-.29-.465-.136-.693l16.442-24.478c.154-.23.465-.292.694-.137.229.154.29.465.136.693l-16.442,24.479c-.097.144-.254.221-.416.221Z" fill="#0c0c0c"></path>
        </g>
      </g>
      <path d="m951.495,942.446H10.026c-.426,0-.773-.346-.773-.773s.346-.773.773-.773h941.469c.427,0,.773.346.773.773s-.346.773-.773.773Z" fill="#3f3f3f"></path>
    </g>
  </g>
</svg>